G04 #@! TF.GenerationSoftware,KiCad,Pcbnew,(5.0.2)-1*
G04 #@! TF.CreationDate,2019-04-06T17:54:20-07:00*
G04 #@! TF.ProjectId,AergoPcb,41657267-6f50-4636-922e-6b696361645f,rev?*
G04 #@! TF.SameCoordinates,Original*
G04 #@! TF.FileFunction,Copper,L1,Top*
G04 #@! TF.FilePolarity,Positive*
%FSLAX46Y46*%
G04 Gerber Fmt 4.6, Leading zero omitted, Abs format (unit mm)*
G04 Created by KiCad (PCBNEW (5.0.2)-1) date 4/6/2019 5:54:20 PM*
%MOMM*%
%LPD*%
G01*
G04 APERTURE LIST*
G04 #@! TA.AperFunction,ComponentPad*
%ADD10C,2.250000*%
G04 #@! TD*
G04 #@! TA.AperFunction,ComponentPad*
%ADD11C,1.905000*%
G04 #@! TD*
G04 #@! TA.AperFunction,Conductor*
%ADD12C,0.100000*%
G04 #@! TD*
G04 #@! TA.AperFunction,ComponentPad*
%ADD13R,1.905000X1.905000*%
G04 #@! TD*
G04 #@! TA.AperFunction,ViaPad*
%ADD14C,0.800000*%
G04 #@! TD*
G04 #@! TA.AperFunction,Conductor*
%ADD15C,0.381000*%
G04 #@! TD*
G04 #@! TA.AperFunction,Conductor*
%ADD16C,0.254000*%
G04 #@! TD*
G04 APERTURE END LIST*
D10*
G04 #@! TO.P,MX_6,2*
G04 #@! TO.N,Net-(D27-Pad2)*
X202444364Y-106911329D03*
G04 #@! TO.P,MX_6,1*
G04 #@! TO.N,COL6*
X195668505Y-107839676D03*
D11*
G04 #@! TO.P,MX_6,3*
G04 #@! TO.N,+5V*
X196289611Y-115847811D03*
G04 #@! TO.P,MX_6,4*
G04 #@! TO.N,Net-(MX_6-Pad4)*
X198754162Y-116462293D03*
D12*
G04 #@! TD*
G04 #@! TO.N,Net-(MX_6-Pad4)*
G04 #@! TO.C,MX_6*
G36*
X197599525Y-117156069D02*
X198060386Y-115307656D01*
X199908799Y-115768517D01*
X199447938Y-117616930D01*
X197599525Y-117156069D01*
X197599525Y-117156069D01*
G37*
D10*
G04 #@! TO.P,MX_SPACE1,2*
G04 #@! TO.N,Net-(D66-Pad2)*
X185278972Y-181721291D03*
G04 #@! TO.P,MX_SPACE1,1*
G04 #@! TO.N,COL5*
X178503113Y-182649638D03*
D11*
G04 #@! TO.P,MX_SPACE1,3*
G04 #@! TO.N,+5V*
X179124219Y-190657773D03*
G04 #@! TO.P,MX_SPACE1,4*
G04 #@! TO.N,Net-(MX_SPACE1-Pad4)*
X181588770Y-191272255D03*
D12*
G04 #@! TD*
G04 #@! TO.N,Net-(MX_SPACE1-Pad4)*
G04 #@! TO.C,MX_SPACE1*
G36*
X180434133Y-191966031D02*
X180894994Y-190117618D01*
X182743407Y-190578479D01*
X182282546Y-192426892D01*
X180434133Y-191966031D01*
X180434133Y-191966031D01*
G37*
D11*
G04 #@! TO.P,MX_0,4*
G04 #@! TO.N,Net-(MX_0-Pad4)*
X306860430Y-102892210D03*
D12*
G04 #@! TD*
G04 #@! TO.N,Net-(MX_0-Pad4)*
G04 #@! TO.C,MX_0*
G36*
X306031110Y-103953691D02*
X305798949Y-102062890D01*
X307689750Y-101830729D01*
X307921911Y-103721530D01*
X306031110Y-103953691D01*
X306031110Y-103953691D01*
G37*
D11*
G04 #@! TO.P,MX_0,3*
G04 #@! TO.N,5VR*
X304339363Y-103201761D03*
D10*
G04 #@! TO.P,MX_0,1*
G04 #@! TO.N,COL10R*
X300889651Y-95948105D03*
G04 #@! TO.P,MX_0,2*
G04 #@! TO.N,Net-(D211-Pad2)*
X306882771Y-92653167D03*
G04 #@! TD*
D13*
G04 #@! TO.P,MX_1,4*
G04 #@! TO.N,Net-(MX_1-Pad4)*
X103790750Y-101123750D03*
D11*
G04 #@! TO.P,MX_1,3*
G04 #@! TO.N,+5V*
X101250750Y-101123750D03*
D10*
G04 #@! TO.P,MX_1,1*
G04 #@! TO.N,COL1*
X98710750Y-93503750D03*
G04 #@! TO.P,MX_1,2*
G04 #@! TO.N,Net-(D22-Pad2)*
X105060750Y-90963750D03*
G04 #@! TD*
G04 #@! TO.P,MX_2,2*
G04 #@! TO.N,Net-(D23-Pad2)*
X125699336Y-91467457D03*
G04 #@! TO.P,MX_2,1*
G04 #@! TO.N,COL2*
X119152124Y-93444352D03*
D11*
G04 #@! TO.P,MX_2,3*
G04 #@! TO.N,+5V*
X121018332Y-101256731D03*
G04 #@! TO.P,MX_2,4*
G04 #@! TO.N,Net-(MX_2-Pad4)*
X123548666Y-101478107D03*
D12*
G04 #@! TD*
G04 #@! TO.N,Net-(MX_2-Pad4)*
G04 #@! TO.C,MX_2*
G36*
X122516775Y-102343967D02*
X122682806Y-100446216D01*
X124580557Y-100612247D01*
X124414526Y-102509998D01*
X122516775Y-102343967D01*
X122516775Y-102343967D01*
G37*
D10*
G04 #@! TO.P,MX_3,2*
G04 #@! TO.N,Net-(D24-Pad2)*
X145167613Y-93272264D03*
G04 #@! TO.P,MX_3,1*
G04 #@! TO.N,COL3*
X138555397Y-95019461D03*
D11*
G04 #@! TO.P,MX_3,3*
G04 #@! TO.N,+5V*
X140147820Y-102892210D03*
G04 #@! TO.P,MX_3,4*
G04 #@! TO.N,Net-(MX_3-Pad4)*
X142668887Y-103201761D03*
D12*
G04 #@! TD*
G04 #@! TO.N,Net-(MX_3-Pad4)*
G04 #@! TO.C,MX_3*
G36*
X141607406Y-104031081D02*
X141839567Y-102140280D01*
X143730368Y-102372441D01*
X143498207Y-104263242D01*
X141607406Y-104031081D01*
X141607406Y-104031081D01*
G37*
D11*
G04 #@! TO.P,MX_4,4*
G04 #@! TO.N,Net-(MX_4-Pad4)*
X161765507Y-106316044D03*
D12*
G04 #@! TD*
G04 #@! TO.N,Net-(MX_4-Pad4)*
G04 #@! TO.C,MX_4*
G36*
X160648762Y-107069298D02*
X161012253Y-105199299D01*
X162882252Y-105562790D01*
X162518761Y-107432789D01*
X160648762Y-107069298D01*
X160648762Y-107069298D01*
G37*
D11*
G04 #@! TO.P,MX_4,3*
G04 #@! TO.N,+5V*
X159272174Y-105831389D03*
D10*
G04 #@! TO.P,MX_4,1*
G04 #@! TO.N,COL4*
X158232805Y-97866735D03*
G04 #@! TO.P,MX_4,2*
G04 #@! TO.N,Net-(D25-Pad2)*
X164950793Y-96585039D03*
G04 #@! TD*
D11*
G04 #@! TO.P,MX_5,4*
G04 #@! TO.N,Net-(MX_5-Pad4)*
X180296006Y-111129188D03*
D12*
G04 #@! TD*
G04 #@! TO.N,Net-(MX_5-Pad4)*
G04 #@! TO.C,MX_5*
G36*
X179166285Y-111862838D02*
X179562356Y-109999467D01*
X181425727Y-110395538D01*
X181029656Y-112258909D01*
X179166285Y-111862838D01*
X179166285Y-111862838D01*
G37*
D11*
G04 #@! TO.P,MX_5,3*
G04 #@! TO.N,+5V*
X177811511Y-110601092D03*
D10*
G04 #@! TO.P,MX_5,1*
G04 #@! TO.N,COL5*
X176911303Y-102619513D03*
G04 #@! TO.P,MX_5,2*
G04 #@! TO.N,Net-(D26-Pad2)*
X183650636Y-101455256D03*
G04 #@! TD*
D11*
G04 #@! TO.P,MX_7,4*
G04 #@! TO.N,Net-(MX_7-Pad4)*
X250718639Y-115847811D03*
D12*
G04 #@! TD*
G04 #@! TO.N,Net-(MX_7-Pad4)*
G04 #@! TO.C,MX_7*
G36*
X250024863Y-117002448D02*
X249564002Y-115154035D01*
X251412415Y-114693174D01*
X251873276Y-116541587D01*
X250024863Y-117002448D01*
X250024863Y-117002448D01*
G37*
D11*
G04 #@! TO.P,MX_7,3*
G04 #@! TO.N,5VR*
X248254088Y-116462293D03*
D10*
G04 #@! TO.P,MX_7,1*
G04 #@! TO.N,COL7R*
X243946092Y-109683121D03*
G04 #@! TO.P,MX_7,2*
G04 #@! TO.N,Net-(D28-Pad2)*
X249492988Y-105682366D03*
G04 #@! TD*
G04 #@! TO.P,MX_8,2*
G04 #@! TO.N,Net-(D29-Pad2)*
X268326604Y-100399064D03*
G04 #@! TO.P,MX_8,1*
G04 #@! TO.N,COL8R*
X262643462Y-104203799D03*
D11*
G04 #@! TO.P,MX_8,3*
G04 #@! TO.N,5VR*
X266712244Y-111129188D03*
G04 #@! TO.P,MX_8,4*
G04 #@! TO.N,Net-(MX_8-Pad4)*
X269196739Y-110601092D03*
D12*
G04 #@! TD*
G04 #@! TO.N,Net-(MX_8-Pad4)*
G04 #@! TO.C,MX_8*
G36*
X268463089Y-111730813D02*
X268067018Y-109867442D01*
X269930389Y-109471371D01*
X270326460Y-111334742D01*
X268463089Y-111730813D01*
X268463089Y-111730813D01*
G37*
D10*
G04 #@! TO.P,MX_9,2*
G04 #@! TO.N,Net-(D210-Pad2)*
X287044123Y-95615729D03*
G04 #@! TO.P,MX_9,1*
G04 #@! TO.N,COL9R*
X281295446Y-99320699D03*
D11*
G04 #@! TO.P,MX_9,3*
G04 #@! TO.N,5VR*
X285242743Y-106316044D03*
G04 #@! TO.P,MX_9,4*
G04 #@! TO.N,Net-(MX_9-Pad4)*
X287736076Y-105831389D03*
D12*
G04 #@! TD*
G04 #@! TO.N,Net-(MX_9-Pad4)*
G04 #@! TO.C,MX_9*
G36*
X286982822Y-106948134D02*
X286619331Y-105078135D01*
X288489330Y-104714644D01*
X288852821Y-106584643D01*
X286982822Y-106948134D01*
X286982822Y-106948134D01*
G37*
D10*
G04 #@! TO.P,MX_-1,2*
G04 #@! TO.N,Net-(D212-Pad2)*
X326369583Y-91024705D03*
G04 #@! TO.P,MX_-1,1*
G04 #@! TO.N,COl11R*
X320265123Y-94108479D03*
D11*
G04 #@! TO.P,MX_-1,3*
G04 #@! TO.N,5VR*
X323459584Y-101478107D03*
G04 #@! TO.P,MX_-1,4*
G04 #@! TO.N,Net-(MX_-1-Pad4)*
X325989918Y-101256731D03*
D12*
G04 #@! TD*
G04 #@! TO.N,Net-(MX_-1-Pad4)*
G04 #@! TO.C,MX_-1*
G36*
X325124058Y-102288622D02*
X324958027Y-100390871D01*
X326855778Y-100224840D01*
X327021809Y-102122591D01*
X325124058Y-102288622D01*
X325124058Y-102288622D01*
G37*
D10*
G04 #@! TO.P,MX_/1,2*
G04 #@! TO.N,Net-(D513-Pad2)*
X342265000Y-148113750D03*
G04 #@! TO.P,MX_/1,1*
G04 #@! TO.N,COL12R*
X335915000Y-150653750D03*
D11*
G04 #@! TO.P,MX_/1,3*
G04 #@! TO.N,5VR*
X338455000Y-158273750D03*
D13*
G04 #@! TO.P,MX_/1,4*
G04 #@! TO.N,Net-(MX_/1-Pad4)*
X340995000Y-158273750D03*
G04 #@! TD*
D10*
G04 #@! TO.P,MX_;1,2*
G04 #@! TO.N,Net-(D413-Pad2)*
X342265000Y-129063750D03*
G04 #@! TO.P,MX_;1,1*
G04 #@! TO.N,COL12R*
X335915000Y-131603750D03*
D11*
G04 #@! TO.P,MX_;1,3*
G04 #@! TO.N,5VR*
X338455000Y-139223750D03*
D13*
G04 #@! TO.P,MX_;1,4*
G04 #@! TO.N,Net-(MX_;1-Pad4)*
X340995000Y-139223750D03*
G04 #@! TD*
D10*
G04 #@! TO.P,MX_<1,2*
G04 #@! TO.N,Net-(D511-Pad2)*
X301579023Y-151375229D03*
G04 #@! TO.P,MX_<1,1*
G04 #@! TO.N,COL10R*
X295830346Y-155080199D03*
D11*
G04 #@! TO.P,MX_<1,3*
G04 #@! TO.N,5VR*
X299777643Y-162075544D03*
G04 #@! TO.P,MX_<1,4*
G04 #@! TO.N,Net-(MX_<1-Pad4)*
X302270976Y-161590889D03*
D12*
G04 #@! TD*
G04 #@! TO.N,Net-(MX_<1-Pad4)*
G04 #@! TO.C,MX_<1*
G36*
X301517722Y-162707634D02*
X301154231Y-160837635D01*
X303024230Y-160474144D01*
X303387721Y-162344143D01*
X301517722Y-162707634D01*
X301517722Y-162707634D01*
G37*
D13*
G04 #@! TO.P,MX_=1,4*
G04 #@! TO.N,Net-(MX_=1-Pad4)*
X345757500Y-101123750D03*
D11*
G04 #@! TO.P,MX_=1,3*
G04 #@! TO.N,5VR*
X343217500Y-101123750D03*
D10*
G04 #@! TO.P,MX_=1,1*
G04 #@! TO.N,COL12R*
X340677500Y-93503750D03*
G04 #@! TO.P,MX_=1,2*
G04 #@! TO.N,Net-(D213-Pad2)*
X347027500Y-90963750D03*
G04 #@! TD*
G04 #@! TO.P,MX_>1,2*
G04 #@! TO.N,Net-(D512-Pad2)*
X321968683Y-148778105D03*
G04 #@! TO.P,MX_>1,1*
G04 #@! TO.N,COl11R*
X315864223Y-151861879D03*
D11*
G04 #@! TO.P,MX_>1,3*
G04 #@! TO.N,5VR*
X319058684Y-159231507D03*
G04 #@! TO.P,MX_>1,4*
G04 #@! TO.N,Net-(MX_>1-Pad4)*
X321589018Y-159010131D03*
D12*
G04 #@! TD*
G04 #@! TO.N,Net-(MX_>1-Pad4)*
G04 #@! TO.C,MX_>1*
G36*
X320723158Y-160042022D02*
X320557127Y-158144271D01*
X322454878Y-157978240D01*
X322620909Y-159875991D01*
X320723158Y-160042022D01*
X320723158Y-160042022D01*
G37*
D10*
G04 #@! TO.P,MX_A1,2*
G04 #@! TO.N,Net-(D42-Pad2)*
X109823250Y-129063750D03*
G04 #@! TO.P,MX_A1,1*
G04 #@! TO.N,COL1*
X103473250Y-131603750D03*
D11*
G04 #@! TO.P,MX_A1,3*
G04 #@! TO.N,+5V*
X106013250Y-139223750D03*
D13*
G04 #@! TO.P,MX_A1,4*
G04 #@! TO.N,Net-(MX_A1-Pad4)*
X108553250Y-139223750D03*
G04 #@! TD*
D11*
G04 #@! TO.P,MX_B1,4*
G04 #@! TO.N,Net-(MX_B1-Pad4)*
X184219362Y-172221693D03*
D12*
G04 #@! TD*
G04 #@! TO.N,Net-(MX_B1-Pad4)*
G04 #@! TO.C,MX_B1*
G36*
X183064725Y-172915469D02*
X183525586Y-171067056D01*
X185373999Y-171527917D01*
X184913138Y-173376330D01*
X183064725Y-172915469D01*
X183064725Y-172915469D01*
G37*
D11*
G04 #@! TO.P,MX_B1,3*
G04 #@! TO.N,+5V*
X181754811Y-171607211D03*
D10*
G04 #@! TO.P,MX_B1,1*
G04 #@! TO.N,COL5*
X181133705Y-163599076D03*
G04 #@! TO.P,MX_B1,2*
G04 #@! TO.N,Net-(D56-Pad2)*
X187909564Y-162670729D03*
G04 #@! TD*
G04 #@! TO.P,MX_BackSpace1,2*
G04 #@! TO.N,Net-(D214-Pad2)*
X366077500Y-90963750D03*
G04 #@! TO.P,MX_BackSpace1,1*
G04 #@! TO.N,COL13R*
X359727500Y-93503750D03*
D11*
G04 #@! TO.P,MX_BackSpace1,3*
G04 #@! TO.N,5VR*
X362267500Y-101123750D03*
D13*
G04 #@! TO.P,MX_BackSpace1,4*
G04 #@! TO.N,Net-(MX_BackSpace1-Pad4)*
X364807500Y-101123750D03*
G04 #@! TD*
D11*
G04 #@! TO.P,MX_C1,4*
G04 #@! TO.N,Net-(MX_C1-Pad4)*
X147230607Y-162075544D03*
D12*
G04 #@! TD*
G04 #@! TO.N,Net-(MX_C1-Pad4)*
G04 #@! TO.C,MX_C1*
G36*
X146113862Y-162828798D02*
X146477353Y-160958799D01*
X148347352Y-161322290D01*
X147983861Y-163192289D01*
X146113862Y-162828798D01*
X146113862Y-162828798D01*
G37*
D11*
G04 #@! TO.P,MX_C1,3*
G04 #@! TO.N,+5V*
X144737274Y-161590889D03*
D10*
G04 #@! TO.P,MX_C1,1*
G04 #@! TO.N,COL3*
X143697905Y-153626235D03*
G04 #@! TO.P,MX_C1,2*
G04 #@! TO.N,Net-(D54-Pad2)*
X150415893Y-152344539D03*
G04 #@! TD*
D11*
G04 #@! TO.P,MX_D1,4*
G04 #@! TO.N,Net-(MX_D1-Pad4)*
X150865507Y-143375544D03*
D12*
G04 #@! TD*
G04 #@! TO.N,Net-(MX_D1-Pad4)*
G04 #@! TO.C,MX_D1*
G36*
X149748762Y-144128798D02*
X150112253Y-142258799D01*
X151982252Y-142622290D01*
X151618761Y-144492289D01*
X149748762Y-144128798D01*
X149748762Y-144128798D01*
G37*
D11*
G04 #@! TO.P,MX_D1,3*
G04 #@! TO.N,+5V*
X148372174Y-142890889D03*
D10*
G04 #@! TO.P,MX_D1,1*
G04 #@! TO.N,COL3*
X147332805Y-134926235D03*
G04 #@! TO.P,MX_D1,2*
G04 #@! TO.N,Net-(D44-Pad2)*
X154050793Y-133644539D03*
G04 #@! TD*
G04 #@! TO.P,MX_DEL1,2*
G04 #@! TO.N,Net-(D314-Pad2)*
X361315000Y-110013750D03*
G04 #@! TO.P,MX_DEL1,1*
G04 #@! TO.N,COL13R*
X354965000Y-112553750D03*
D11*
G04 #@! TO.P,MX_DEL1,3*
G04 #@! TO.N,5VR*
X357505000Y-120173750D03*
D13*
G04 #@! TO.P,MX_DEL1,4*
G04 #@! TO.N,Net-(MX_DEL1-Pad4)*
X360045000Y-120173750D03*
G04 #@! TD*
D11*
G04 #@! TO.P,MX_E1,4*
G04 #@! TO.N,Net-(MX_E1-Pad4)*
X154500407Y-124675544D03*
D12*
G04 #@! TD*
G04 #@! TO.N,Net-(MX_E1-Pad4)*
G04 #@! TO.C,MX_E1*
G36*
X153383662Y-125428798D02*
X153747153Y-123558799D01*
X155617152Y-123922290D01*
X155253661Y-125792289D01*
X153383662Y-125428798D01*
X153383662Y-125428798D01*
G37*
D11*
G04 #@! TO.P,MX_E1,3*
G04 #@! TO.N,+5V*
X152007074Y-124190889D03*
D10*
G04 #@! TO.P,MX_E1,1*
G04 #@! TO.N,COL3*
X150967705Y-116226235D03*
G04 #@! TO.P,MX_E1,2*
G04 #@! TO.N,Net-(D34-Pad2)*
X157685693Y-114944539D03*
G04 #@! TD*
D11*
G04 #@! TO.P,MX_END1,4*
G04 #@! TO.N,Net-(MX_END1-Pad4)*
X244465039Y-166973711D03*
D12*
G04 #@! TD*
G04 #@! TO.N,Net-(MX_END1-Pad4)*
G04 #@! TO.C,MX_END1*
G36*
X243771263Y-168128348D02*
X243310402Y-166279935D01*
X245158815Y-165819074D01*
X245619676Y-167667487D01*
X243771263Y-168128348D01*
X243771263Y-168128348D01*
G37*
D11*
G04 #@! TO.P,MX_END1,3*
G04 #@! TO.N,5VR*
X242000488Y-167588193D03*
D10*
G04 #@! TO.P,MX_END1,1*
G04 #@! TO.N,COL7R*
X237692492Y-160809021D03*
G04 #@! TO.P,MX_END1,2*
G04 #@! TO.N,Net-(D48-Pad2)*
X243239388Y-156808266D03*
G04 #@! TD*
G04 #@! TO.P,MX_ENTER1,2*
G04 #@! TO.N,Net-(D610-Pad2)*
X283233261Y-177081974D03*
G04 #@! TO.P,MX_ENTER1,1*
G04 #@! TO.N,COL9R*
X277550119Y-180886709D03*
D11*
G04 #@! TO.P,MX_ENTER1,3*
G04 #@! TO.N,5VR*
X281618901Y-187812098D03*
G04 #@! TO.P,MX_ENTER1,4*
G04 #@! TO.N,Net-(MX_ENTER1-Pad4)*
X284103396Y-187284002D03*
D12*
G04 #@! TD*
G04 #@! TO.N,Net-(MX_ENTER1-Pad4)*
G04 #@! TO.C,MX_ENTER1*
G36*
X283369746Y-188413723D02*
X282973675Y-186550352D01*
X284837046Y-186154281D01*
X285233117Y-188017652D01*
X283369746Y-188413723D01*
X283369746Y-188413723D01*
G37*
D10*
G04 #@! TO.P,MX_ESC1,2*
G04 #@! TO.N,Net-(D21-Pad2)*
X86010750Y-90963750D03*
G04 #@! TO.P,MX_ESC1,1*
G04 #@! TO.N,COL0*
X79660750Y-93503750D03*
D11*
G04 #@! TO.P,MX_ESC1,3*
G04 #@! TO.N,+5V*
X82200750Y-101123750D03*
D13*
G04 #@! TO.P,MX_ESC1,4*
G04 #@! TO.N,Net-(MX_ESC1-Pad4)*
X84740750Y-101123750D03*
G04 #@! TD*
G04 #@! TO.P,MX_F1,4*
G04 #@! TO.N,Net-(MX_F1-Pad4)*
X110170750Y-76165750D03*
D11*
G04 #@! TO.P,MX_F1,3*
G04 #@! TO.N,+5V*
X107630750Y-76165750D03*
D10*
G04 #@! TO.P,MX_F1,1*
G04 #@! TO.N,COL0*
X105090750Y-68545750D03*
G04 #@! TO.P,MX_F1,2*
G04 #@! TO.N,Net-(D11-Pad2)*
X111440750Y-66005750D03*
G04 #@! TD*
D11*
G04 #@! TO.P,MX_F2,4*
G04 #@! TO.N,Net-(MX_F2-Pad4)*
X129567166Y-77123107D03*
D12*
G04 #@! TD*
G04 #@! TO.N,Net-(MX_F2-Pad4)*
G04 #@! TO.C,MX_F2*
G36*
X128535275Y-77988967D02*
X128701306Y-76091216D01*
X130599057Y-76257247D01*
X130433026Y-78154998D01*
X128535275Y-77988967D01*
X128535275Y-77988967D01*
G37*
D11*
G04 #@! TO.P,MX_F2,3*
G04 #@! TO.N,+5V*
X127036832Y-76901731D03*
D10*
G04 #@! TO.P,MX_F2,1*
G04 #@! TO.N,COL1*
X125170624Y-69089352D03*
G04 #@! TO.P,MX_F2,2*
G04 #@! TO.N,Net-(D12-Pad2)*
X131717836Y-67112457D03*
G04 #@! TD*
D11*
G04 #@! TO.P,MX_F3,4*
G04 #@! TO.N,Net-(MX_F3-Pad4)*
X148659187Y-79174661D03*
D12*
G04 #@! TD*
G04 #@! TO.N,Net-(MX_F3-Pad4)*
G04 #@! TO.C,MX_F3*
G36*
X147597706Y-80003981D02*
X147829867Y-78113180D01*
X149720668Y-78345341D01*
X149488507Y-80236142D01*
X147597706Y-80003981D01*
X147597706Y-80003981D01*
G37*
D11*
G04 #@! TO.P,MX_F3,3*
G04 #@! TO.N,+5V*
X146138120Y-78865110D03*
D10*
G04 #@! TO.P,MX_F3,1*
G04 #@! TO.N,COL2*
X144545697Y-70992361D03*
G04 #@! TO.P,MX_F3,2*
G04 #@! TO.N,Net-(D13-Pad2)*
X151157913Y-69245164D03*
G04 #@! TD*
G04 #@! TO.P,MX_F4,2*
G04 #@! TO.N,Net-(D14-Pad2)*
X170941393Y-72647739D03*
G04 #@! TO.P,MX_F4,1*
G04 #@! TO.N,COL3*
X164223405Y-73929435D03*
D11*
G04 #@! TO.P,MX_F4,3*
G04 #@! TO.N,+5V*
X165262774Y-81894089D03*
G04 #@! TO.P,MX_F4,4*
G04 #@! TO.N,Net-(MX_F4-Pad4)*
X167756107Y-82378744D03*
D12*
G04 #@! TD*
G04 #@! TO.N,Net-(MX_F4-Pad4)*
G04 #@! TO.C,MX_F4*
G36*
X166639362Y-83131998D02*
X167002853Y-81261999D01*
X168872852Y-81625490D01*
X168509361Y-83495489D01*
X166639362Y-83131998D01*
X166639362Y-83131998D01*
G37*
D10*
G04 #@! TO.P,MX_F5,2*
G04 #@! TO.N,Net-(D15-Pad2)*
X189641436Y-77427856D03*
G04 #@! TO.P,MX_F5,1*
G04 #@! TO.N,COL4*
X182902103Y-78592113D03*
D11*
G04 #@! TO.P,MX_F5,3*
G04 #@! TO.N,+5V*
X183802311Y-86573692D03*
G04 #@! TO.P,MX_F5,4*
G04 #@! TO.N,Net-(MX_F5-Pad4)*
X186286806Y-87101788D03*
D12*
G04 #@! TD*
G04 #@! TO.N,Net-(MX_F5-Pad4)*
G04 #@! TO.C,MX_F5*
G36*
X185157085Y-87835438D02*
X185553156Y-85972067D01*
X187416527Y-86368138D01*
X187020456Y-88231509D01*
X185157085Y-87835438D01*
X185157085Y-87835438D01*
G37*
D11*
G04 #@! TO.P,MX_F6,4*
G04 #@! TO.N,Net-(MX_F6-Pad4)*
X204745062Y-92435093D03*
D12*
G04 #@! TD*
G04 #@! TO.N,Net-(MX_F6-Pad4)*
G04 #@! TO.C,MX_F6*
G36*
X203590425Y-93128869D02*
X204051286Y-91280456D01*
X205899699Y-91741317D01*
X205438838Y-93589730D01*
X203590425Y-93128869D01*
X203590425Y-93128869D01*
G37*
D11*
G04 #@! TO.P,MX_F6,3*
G04 #@! TO.N,+5V*
X202280511Y-91820611D03*
D10*
G04 #@! TO.P,MX_F6,1*
G04 #@! TO.N,COL5*
X201659405Y-83812476D03*
G04 #@! TO.P,MX_F6,2*
G04 #@! TO.N,Net-(D16-Pad2)*
X208435264Y-82884129D03*
G04 #@! TD*
G04 #@! TO.P,MX_F7,2*
G04 #@! TO.N,Net-(D19-Pad2)*
X243502288Y-81655366D03*
G04 #@! TO.P,MX_F7,1*
G04 #@! TO.N,COL8R*
X237955392Y-85656121D03*
D11*
G04 #@! TO.P,MX_F7,3*
G04 #@! TO.N,5VR*
X242263388Y-92435293D03*
G04 #@! TO.P,MX_F7,4*
G04 #@! TO.N,Net-(MX_F7-Pad4)*
X244727939Y-91820811D03*
D12*
G04 #@! TD*
G04 #@! TO.N,Net-(MX_F7-Pad4)*
G04 #@! TO.C,MX_F7*
G36*
X244034163Y-92975448D02*
X243573302Y-91127035D01*
X245421715Y-90666174D01*
X245882576Y-92514587D01*
X244034163Y-92975448D01*
X244034163Y-92975448D01*
G37*
D10*
G04 #@! TO.P,MX_F8,2*
G04 #@! TO.N,Net-(D110-Pad2)*
X262336004Y-76399164D03*
G04 #@! TO.P,MX_F8,1*
G04 #@! TO.N,COL9R*
X256652862Y-80203899D03*
D11*
G04 #@! TO.P,MX_F8,3*
G04 #@! TO.N,5VR*
X260721644Y-87129288D03*
G04 #@! TO.P,MX_F8,4*
G04 #@! TO.N,Net-(MX_F8-Pad4)*
X263206139Y-86601192D03*
D12*
G04 #@! TD*
G04 #@! TO.N,Net-(MX_F8-Pad4)*
G04 #@! TO.C,MX_F8*
G36*
X262472489Y-87730913D02*
X262076418Y-85867542D01*
X263939789Y-85471471D01*
X264335860Y-87334842D01*
X262472489Y-87730913D01*
X262472489Y-87730913D01*
G37*
D11*
G04 #@! TO.P,MX_F9,4*
G04 #@! TO.N,Net-(MX_F9-Pad4)*
X281745476Y-81804489D03*
D12*
G04 #@! TD*
G04 #@! TO.N,Net-(MX_F9-Pad4)*
G04 #@! TO.C,MX_F9*
G36*
X280992222Y-82921234D02*
X280628731Y-81051235D01*
X282498730Y-80687744D01*
X282862221Y-82557743D01*
X280992222Y-82921234D01*
X280992222Y-82921234D01*
G37*
D11*
G04 #@! TO.P,MX_F9,3*
G04 #@! TO.N,5VR*
X279252143Y-82289144D03*
D10*
G04 #@! TO.P,MX_F9,1*
G04 #@! TO.N,COL10R*
X275304846Y-75293799D03*
G04 #@! TO.P,MX_F9,2*
G04 #@! TO.N,Net-(D111-Pad2)*
X281053523Y-71588829D03*
G04 #@! TD*
D11*
G04 #@! TO.P,MX_F10,4*
G04 #@! TO.N,Net-(MX_F10-Pad4)*
X300869830Y-78865210D03*
D12*
G04 #@! TD*
G04 #@! TO.N,Net-(MX_F10-Pad4)*
G04 #@! TO.C,MX_F10*
G36*
X300040510Y-79926691D02*
X299808349Y-78035890D01*
X301699150Y-77803729D01*
X301931311Y-79694530D01*
X300040510Y-79926691D01*
X300040510Y-79926691D01*
G37*
D11*
G04 #@! TO.P,MX_F10,3*
G04 #@! TO.N,5VR*
X298348763Y-79174761D03*
D10*
G04 #@! TO.P,MX_F10,1*
G04 #@! TO.N,COl11R*
X294899051Y-71921105D03*
G04 #@! TO.P,MX_F10,2*
G04 #@! TO.N,Net-(D112-Pad2)*
X300892171Y-68626167D03*
G04 #@! TD*
D11*
G04 #@! TO.P,MX_F11,4*
G04 #@! TO.N,Net-(MX_F11-Pad4)*
X319971518Y-76902131D03*
D12*
G04 #@! TD*
G04 #@! TO.N,Net-(MX_F11-Pad4)*
G04 #@! TO.C,MX_F11*
G36*
X319105658Y-77934022D02*
X318939627Y-76036271D01*
X320837378Y-75870240D01*
X321003409Y-77767991D01*
X319105658Y-77934022D01*
X319105658Y-77934022D01*
G37*
D11*
G04 #@! TO.P,MX_F11,3*
G04 #@! TO.N,5VR*
X317441184Y-77123507D03*
D10*
G04 #@! TO.P,MX_F11,1*
G04 #@! TO.N,COL12R*
X314246723Y-69753879D03*
G04 #@! TO.P,MX_F11,2*
G04 #@! TO.N,Net-(D113-Pad2)*
X320351183Y-66670105D03*
G04 #@! TD*
G04 #@! TO.P,MX_F12,2*
G04 #@! TO.N,Net-(D114-Pad2)*
X340647500Y-66005750D03*
G04 #@! TO.P,MX_F12,1*
G04 #@! TO.N,COL13R*
X334297500Y-68545750D03*
D11*
G04 #@! TO.P,MX_F12,3*
G04 #@! TO.N,5VR*
X336837500Y-76165750D03*
D13*
G04 #@! TO.P,MX_F12,4*
G04 #@! TO.N,Net-(MX_F12-Pad4)*
X339377500Y-76165750D03*
G04 #@! TD*
D10*
G04 #@! TO.P,MX_F13,2*
G04 #@! TO.N,Net-(D45-Pad2)*
X173076436Y-138581056D03*
G04 #@! TO.P,MX_F13,1*
G04 #@! TO.N,COL4*
X166337103Y-139745313D03*
D11*
G04 #@! TO.P,MX_F13,3*
G04 #@! TO.N,+5V*
X167237311Y-147726892D03*
G04 #@! TO.P,MX_F13,4*
G04 #@! TO.N,Net-(MX_F13-Pad4)*
X169721806Y-148254988D03*
D12*
G04 #@! TD*
G04 #@! TO.N,Net-(MX_F13-Pad4)*
G04 #@! TO.C,MX_F13*
G36*
X168592085Y-148988638D02*
X168988156Y-147125267D01*
X170851527Y-147521338D01*
X170455456Y-149384709D01*
X168592085Y-148988638D01*
X168592085Y-148988638D01*
G37*
D13*
G04 #@! TO.P,MX_FN1,4*
G04 #@! TO.N,Net-(MX_FN1-Pad4)*
X89503250Y-177323750D03*
D11*
G04 #@! TO.P,MX_FN1,3*
G04 #@! TO.N,+5V*
X86963250Y-177323750D03*
D10*
G04 #@! TO.P,MX_FN1,1*
G04 #@! TO.N,COL0*
X84423250Y-169703750D03*
G04 #@! TO.P,MX_FN1,2*
G04 #@! TO.N,Net-(D61-Pad2)*
X90773250Y-167163750D03*
G04 #@! TD*
G04 #@! TO.P,MX_FN2,2*
G04 #@! TO.N,Net-(D69-Pad2)*
X252462788Y-183958466D03*
G04 #@! TO.P,MX_FN2,1*
G04 #@! TO.N,COL8R*
X246915892Y-187959221D03*
D11*
G04 #@! TO.P,MX_FN2,3*
G04 #@! TO.N,5VR*
X251223888Y-194738393D03*
G04 #@! TO.P,MX_FN2,4*
G04 #@! TO.N,Net-(MX_FN2-Pad4)*
X253688439Y-194123911D03*
D12*
G04 #@! TD*
G04 #@! TO.N,Net-(MX_FN2-Pad4)*
G04 #@! TO.C,MX_FN2*
G36*
X252994663Y-195278548D02*
X252533802Y-193430135D01*
X254382215Y-192969274D01*
X254843076Y-194817687D01*
X252994663Y-195278548D01*
X252994663Y-195278548D01*
G37*
D10*
G04 #@! TO.P,MX_G1,2*
G04 #@! TO.N,Net-(D46-Pad2)*
X192518164Y-144186629D03*
G04 #@! TO.P,MX_G1,1*
G04 #@! TO.N,COL5*
X185742305Y-145114976D03*
D11*
G04 #@! TO.P,MX_G1,3*
G04 #@! TO.N,+5V*
X186363411Y-153123111D03*
G04 #@! TO.P,MX_G1,4*
G04 #@! TO.N,Net-(MX_G1-Pad4)*
X188827962Y-153737593D03*
D12*
G04 #@! TD*
G04 #@! TO.N,Net-(MX_G1-Pad4)*
G04 #@! TO.C,MX_G1*
G36*
X187673325Y-154431369D02*
X188134186Y-152582956D01*
X189982599Y-153043817D01*
X189521738Y-154892230D01*
X187673325Y-154431369D01*
X187673325Y-154431369D01*
G37*
D11*
G04 #@! TO.P,MX_H1,4*
G04 #@! TO.N,Net-(MX_H1-Pad4)*
X260644839Y-153123111D03*
D12*
G04 #@! TD*
G04 #@! TO.N,Net-(MX_H1-Pad4)*
G04 #@! TO.C,MX_H1*
G36*
X259951063Y-154277748D02*
X259490202Y-152429335D01*
X261338615Y-151968474D01*
X261799476Y-153816887D01*
X259951063Y-154277748D01*
X259951063Y-154277748D01*
G37*
D11*
G04 #@! TO.P,MX_H1,3*
G04 #@! TO.N,5VR*
X258180288Y-153737593D03*
D10*
G04 #@! TO.P,MX_H1,1*
G04 #@! TO.N,COL8R*
X253872292Y-146958421D03*
G04 #@! TO.P,MX_H1,2*
G04 #@! TO.N,Net-(D49-Pad2)*
X259419188Y-142957666D03*
G04 #@! TD*
G04 #@! TO.P,MX_HOME1,2*
G04 #@! TO.N,Net-(D38-Pad2)*
X238630788Y-138324166D03*
G04 #@! TO.P,MX_HOME1,1*
G04 #@! TO.N,COL7R*
X233083892Y-142324921D03*
D11*
G04 #@! TO.P,MX_HOME1,3*
G04 #@! TO.N,5VR*
X237391888Y-149104093D03*
G04 #@! TO.P,MX_HOME1,4*
G04 #@! TO.N,Net-(MX_HOME1-Pad4)*
X239856439Y-148489611D03*
D12*
G04 #@! TD*
G04 #@! TO.N,Net-(MX_HOME1-Pad4)*
G04 #@! TO.C,MX_HOME1*
G36*
X239162663Y-149644248D02*
X238701802Y-147795835D01*
X240550215Y-147334974D01*
X241011076Y-149183387D01*
X239162663Y-149644248D01*
X239162663Y-149644248D01*
G37*
D11*
G04 #@! TO.P,MX_I1,4*
G04 #@! TO.N,Net-(MX_I1-Pad4)*
X295001176Y-124190889D03*
D12*
G04 #@! TD*
G04 #@! TO.N,Net-(MX_I1-Pad4)*
G04 #@! TO.C,MX_I1*
G36*
X294247922Y-125307634D02*
X293884431Y-123437635D01*
X295754430Y-123074144D01*
X296117921Y-124944143D01*
X294247922Y-125307634D01*
X294247922Y-125307634D01*
G37*
D11*
G04 #@! TO.P,MX_I1,3*
G04 #@! TO.N,5VR*
X292507843Y-124675544D03*
D10*
G04 #@! TO.P,MX_I1,1*
G04 #@! TO.N,COL10R*
X288560546Y-117680199D03*
G04 #@! TO.P,MX_I1,2*
G04 #@! TO.N,Net-(D311-Pad2)*
X294309223Y-113975229D03*
G04 #@! TD*
D11*
G04 #@! TO.P,MX_J1,4*
G04 #@! TO.N,Net-(MX_J1-Pad4)*
X279770939Y-147726892D03*
D12*
G04 #@! TD*
G04 #@! TO.N,Net-(MX_J1-Pad4)*
G04 #@! TO.C,MX_J1*
G36*
X279037289Y-148856613D02*
X278641218Y-146993242D01*
X280504589Y-146597171D01*
X280900660Y-148460542D01*
X279037289Y-148856613D01*
X279037289Y-148856613D01*
G37*
D11*
G04 #@! TO.P,MX_J1,3*
G04 #@! TO.N,5VR*
X277286444Y-148254988D03*
D10*
G04 #@! TO.P,MX_J1,1*
G04 #@! TO.N,COL9R*
X273217662Y-141329599D03*
G04 #@! TO.P,MX_J1,2*
G04 #@! TO.N,Net-(D410-Pad2)*
X278900804Y-137524864D03*
G04 #@! TD*
G04 #@! TO.P,MX_K1,2*
G04 #@! TO.N,Net-(D411-Pad2)*
X297944123Y-132675229D03*
G04 #@! TO.P,MX_K1,1*
G04 #@! TO.N,COL10R*
X292195446Y-136380199D03*
D11*
G04 #@! TO.P,MX_K1,3*
G04 #@! TO.N,5VR*
X296142743Y-143375544D03*
G04 #@! TO.P,MX_K1,4*
G04 #@! TO.N,Net-(MX_K1-Pad4)*
X298636076Y-142890889D03*
D12*
G04 #@! TD*
G04 #@! TO.N,Net-(MX_K1-Pad4)*
G04 #@! TO.C,MX_K1*
G36*
X297882822Y-144007634D02*
X297519331Y-142137635D01*
X299389330Y-141774144D01*
X299752821Y-143644143D01*
X297882822Y-144007634D01*
X297882822Y-144007634D01*
G37*
D10*
G04 #@! TO.P,MX_L1,2*
G04 #@! TO.N,Net-(D412-Pad2)*
X320308383Y-129800605D03*
G04 #@! TO.P,MX_L1,1*
G04 #@! TO.N,COl11R*
X314203923Y-132884379D03*
D11*
G04 #@! TO.P,MX_L1,3*
G04 #@! TO.N,5VR*
X317398384Y-140254007D03*
G04 #@! TO.P,MX_L1,4*
G04 #@! TO.N,Net-(MX_L1-Pad4)*
X319928718Y-140032631D03*
D12*
G04 #@! TD*
G04 #@! TO.N,Net-(MX_L1-Pad4)*
G04 #@! TO.C,MX_L1*
G36*
X319062858Y-141064522D02*
X318896827Y-139166771D01*
X320794578Y-139000740D01*
X320960609Y-140898491D01*
X319062858Y-141064522D01*
X319062858Y-141064522D01*
G37*
D10*
G04 #@! TO.P,MX_LALT1,2*
G04 #@! TO.N,Net-(D64-Pad2)*
X145452993Y-172372639D03*
G04 #@! TO.P,MX_LALT1,1*
G04 #@! TO.N,COL3*
X138735005Y-173654335D03*
D11*
G04 #@! TO.P,MX_LALT1,3*
G04 #@! TO.N,+5V*
X139774374Y-181618989D03*
G04 #@! TO.P,MX_LALT1,4*
G04 #@! TO.N,Net-(MX_LALT1-Pad4)*
X142267707Y-182103644D03*
D12*
G04 #@! TD*
G04 #@! TO.N,Net-(MX_LALT1-Pad4)*
G04 #@! TO.C,MX_LALT1*
G36*
X141150962Y-182856898D02*
X141514453Y-180986899D01*
X143384452Y-181350390D01*
X143020961Y-183220389D01*
X141150962Y-182856898D01*
X141150962Y-182856898D01*
G37*
D11*
G04 #@! TO.P,MX_M1,4*
G04 #@! TO.N,Net-(MX_M1-Pad4)*
X283731639Y-166360592D03*
D12*
G04 #@! TD*
G04 #@! TO.N,Net-(MX_M1-Pad4)*
G04 #@! TO.C,MX_M1*
G36*
X282997989Y-167490313D02*
X282601918Y-165626942D01*
X284465289Y-165230871D01*
X284861360Y-167094242D01*
X282997989Y-167490313D01*
X282997989Y-167490313D01*
G37*
D11*
G04 #@! TO.P,MX_M1,3*
G04 #@! TO.N,5VR*
X281247144Y-166888688D03*
D10*
G04 #@! TO.P,MX_M1,1*
G04 #@! TO.N,COL9R*
X277178362Y-159963299D03*
G04 #@! TO.P,MX_M1,2*
G04 #@! TO.N,Net-(D510-Pad2)*
X282861504Y-156158564D03*
G04 #@! TD*
D11*
G04 #@! TO.P,MX_N1,4*
G04 #@! TO.N,Net-(MX_N1-Pad4)*
X265253439Y-171607211D03*
D12*
G04 #@! TD*
G04 #@! TO.N,Net-(MX_N1-Pad4)*
G04 #@! TO.C,MX_N1*
G36*
X264559663Y-172761848D02*
X264098802Y-170913435D01*
X265947215Y-170452574D01*
X266408076Y-172300987D01*
X264559663Y-172761848D01*
X264559663Y-172761848D01*
G37*
D11*
G04 #@! TO.P,MX_N1,3*
G04 #@! TO.N,5VR*
X262788888Y-172221693D03*
D10*
G04 #@! TO.P,MX_N1,1*
G04 #@! TO.N,COL8R*
X258480892Y-165442521D03*
G04 #@! TO.P,MX_N1,2*
G04 #@! TO.N,Net-(D59-Pad2)*
X264027788Y-161441766D03*
G04 #@! TD*
D11*
G04 #@! TO.P,MX_O1,4*
G04 #@! TO.N,Net-(MX_O1-Pad4)*
X318268418Y-121055131D03*
D12*
G04 #@! TD*
G04 #@! TO.N,Net-(MX_O1-Pad4)*
G04 #@! TO.C,MX_O1*
G36*
X317402558Y-122087022D02*
X317236527Y-120189271D01*
X319134278Y-120023240D01*
X319300309Y-121920991D01*
X317402558Y-122087022D01*
X317402558Y-122087022D01*
G37*
D11*
G04 #@! TO.P,MX_O1,3*
G04 #@! TO.N,5VR*
X315738084Y-121276507D03*
D10*
G04 #@! TO.P,MX_O1,1*
G04 #@! TO.N,COl11R*
X312543623Y-113906879D03*
G04 #@! TO.P,MX_O1,2*
G04 #@! TO.N,Net-(D312-Pad2)*
X318648083Y-110823105D03*
G04 #@! TD*
G04 #@! TO.P,MX_P1,2*
G04 #@! TO.N,Net-(D313-Pad2)*
X342265000Y-110013750D03*
G04 #@! TO.P,MX_P1,1*
G04 #@! TO.N,COL12R*
X335915000Y-112553750D03*
D11*
G04 #@! TO.P,MX_P1,3*
G04 #@! TO.N,5VR*
X338455000Y-120173750D03*
D13*
G04 #@! TO.P,MX_P1,4*
G04 #@! TO.N,Net-(MX_P1-Pad4)*
X340995000Y-120173750D03*
G04 #@! TD*
D10*
G04 #@! TO.P,MX_PGDN1,2*
G04 #@! TO.N,Net-(D47-Pad2)*
X208697964Y-158037229D03*
G04 #@! TO.P,MX_PGDN1,1*
G04 #@! TO.N,COL6*
X201922105Y-158965576D03*
D11*
G04 #@! TO.P,MX_PGDN1,3*
G04 #@! TO.N,+5V*
X202543211Y-166973711D03*
G04 #@! TO.P,MX_PGDN1,4*
G04 #@! TO.N,Net-(MX_PGDN1-Pad4)*
X205007762Y-167588193D03*
D12*
G04 #@! TD*
G04 #@! TO.N,Net-(MX_PGDN1-Pad4)*
G04 #@! TO.C,MX_PGDN1*
G36*
X203853125Y-168281969D02*
X204313986Y-166433556D01*
X206162399Y-166894417D01*
X205701538Y-168742830D01*
X203853125Y-168281969D01*
X203853125Y-168281969D01*
G37*
D11*
G04 #@! TO.P,MX_PGUP1,4*
G04 #@! TO.N,Net-(MX_PGUP1-Pad4)*
X209616362Y-149104093D03*
D12*
G04 #@! TD*
G04 #@! TO.N,Net-(MX_PGUP1-Pad4)*
G04 #@! TO.C,MX_PGUP1*
G36*
X208461725Y-149797869D02*
X208922586Y-147949456D01*
X210770999Y-148410317D01*
X210310138Y-150258730D01*
X208461725Y-149797869D01*
X208461725Y-149797869D01*
G37*
D11*
G04 #@! TO.P,MX_PGUP1,3*
G04 #@! TO.N,+5V*
X207151811Y-148489611D03*
D10*
G04 #@! TO.P,MX_PGUP1,1*
G04 #@! TO.N,COL6*
X206530705Y-140481476D03*
G04 #@! TO.P,MX_PGUP1,2*
G04 #@! TO.N,Net-(D37-Pad2)*
X213306564Y-139553129D03*
G04 #@! TD*
G04 #@! TO.P,MX_Q1,2*
G04 #@! TO.N,Net-(D32-Pad2)*
X109823250Y-110013750D03*
G04 #@! TO.P,MX_Q1,1*
G04 #@! TO.N,COL1*
X103473250Y-112553750D03*
D11*
G04 #@! TO.P,MX_Q1,3*
G04 #@! TO.N,+5V*
X106013250Y-120173750D03*
D13*
G04 #@! TO.P,MX_Q1,4*
G04 #@! TO.N,Net-(MX_Q1-Pad4)*
X108553250Y-120173750D03*
G04 #@! TD*
D11*
G04 #@! TO.P,MX_R1,4*
G04 #@! TO.N,Net-(MX_R1-Pad4)*
X173682506Y-129621288D03*
D12*
G04 #@! TD*
G04 #@! TO.N,Net-(MX_R1-Pad4)*
G04 #@! TO.C,MX_R1*
G36*
X172552785Y-130354938D02*
X172948856Y-128491567D01*
X174812227Y-128887638D01*
X174416156Y-130751009D01*
X172552785Y-130354938D01*
X172552785Y-130354938D01*
G37*
D11*
G04 #@! TO.P,MX_R1,3*
G04 #@! TO.N,+5V*
X171198011Y-129093192D03*
D10*
G04 #@! TO.P,MX_R1,1*
G04 #@! TO.N,COL4*
X170297803Y-121111613D03*
G04 #@! TO.P,MX_R1,2*
G04 #@! TO.N,Net-(D35-Pad2)*
X177037136Y-119947356D03*
G04 #@! TD*
D11*
G04 #@! TO.P,MX_RALT1,4*
G04 #@! TO.N,Net-(MX_RALT1-Pad4)*
X311986539Y-181349992D03*
D12*
G04 #@! TD*
G04 #@! TO.N,Net-(MX_RALT1-Pad4)*
G04 #@! TO.C,MX_RALT1*
G36*
X311252889Y-182479713D02*
X310856818Y-180616342D01*
X312720189Y-180220271D01*
X313116260Y-182083642D01*
X311252889Y-182479713D01*
X311252889Y-182479713D01*
G37*
D11*
G04 #@! TO.P,MX_RALT1,3*
G04 #@! TO.N,5VR*
X309502044Y-181878088D03*
D10*
G04 #@! TO.P,MX_RALT1,1*
G04 #@! TO.N,COL10R*
X305433262Y-174952699D03*
G04 #@! TO.P,MX_RALT1,2*
G04 #@! TO.N,Net-(D611-Pad2)*
X311116404Y-171147964D03*
G04 #@! TD*
G04 #@! TO.P,MX_RCTRL1,2*
G04 #@! TO.N,Net-(D614-Pad2)*
X361315000Y-167163750D03*
G04 #@! TO.P,MX_RCTRL1,1*
G04 #@! TO.N,COL13R*
X354965000Y-169703750D03*
D11*
G04 #@! TO.P,MX_RCTRL1,3*
G04 #@! TO.N,5VR*
X357505000Y-177323750D03*
D13*
G04 #@! TO.P,MX_RCTRL1,4*
G04 #@! TO.N,Net-(MX_RCTRL1-Pad4)*
X360045000Y-177323750D03*
G04 #@! TD*
D10*
G04 #@! TO.P,MX_S1,2*
G04 #@! TO.N,Net-(D43-Pad2)*
X131760536Y-130243357D03*
G04 #@! TO.P,MX_S1,1*
G04 #@! TO.N,COL2*
X125213324Y-132220252D03*
D11*
G04 #@! TO.P,MX_S1,3*
G04 #@! TO.N,+5V*
X127079532Y-140032631D03*
G04 #@! TO.P,MX_S1,4*
G04 #@! TO.N,Net-(MX_S1-Pad4)*
X129609866Y-140254007D03*
D12*
G04 #@! TD*
G04 #@! TO.N,Net-(MX_S1-Pad4)*
G04 #@! TO.C,MX_S1*
G36*
X128577975Y-141119867D02*
X128744006Y-139222116D01*
X130641757Y-139388147D01*
X130475726Y-141285898D01*
X128577975Y-141119867D01*
X128577975Y-141119867D01*
G37*
D10*
G04 #@! TO.P,MX_T1,2*
G04 #@! TO.N,Net-(D36-Pad2)*
X197126764Y-125702529D03*
G04 #@! TO.P,MX_T1,1*
G04 #@! TO.N,COL5*
X190350905Y-126630876D03*
D11*
G04 #@! TO.P,MX_T1,3*
G04 #@! TO.N,+5V*
X190972011Y-134639011D03*
G04 #@! TO.P,MX_T1,4*
G04 #@! TO.N,Net-(MX_T1-Pad4)*
X193436562Y-135253493D03*
D12*
G04 #@! TD*
G04 #@! TO.N,Net-(MX_T1-Pad4)*
G04 #@! TO.C,MX_T1*
G36*
X192281925Y-135947269D02*
X192742786Y-134098856D01*
X194591199Y-134559717D01*
X194130338Y-136408130D01*
X192281925Y-135947269D01*
X192281925Y-135947269D01*
G37*
D10*
G04 #@! TO.P,MX_TAB1,2*
G04 #@! TO.N,Net-(D31-Pad2)*
X90773250Y-110013750D03*
G04 #@! TO.P,MX_TAB1,1*
G04 #@! TO.N,COL0*
X84423250Y-112553750D03*
D11*
G04 #@! TO.P,MX_TAB1,3*
G04 #@! TO.N,+5V*
X86963250Y-120173750D03*
D13*
G04 #@! TO.P,MX_TAB1,4*
G04 #@! TO.N,Net-(MX_TAB1-Pad4)*
X89503250Y-120173750D03*
G04 #@! TD*
D10*
G04 #@! TO.P,MX_U1,2*
G04 #@! TO.N,Net-(D310-Pad2)*
X274940104Y-118891164D03*
G04 #@! TO.P,MX_U1,1*
G04 #@! TO.N,COL9R*
X269256962Y-122695899D03*
D11*
G04 #@! TO.P,MX_U1,3*
G04 #@! TO.N,5VR*
X273325744Y-129621288D03*
G04 #@! TO.P,MX_U1,4*
G04 #@! TO.N,Net-(MX_U1-Pad4)*
X275810239Y-129093192D03*
D12*
G04 #@! TD*
G04 #@! TO.N,Net-(MX_U1-Pad4)*
G04 #@! TO.C,MX_U1*
G36*
X275076589Y-130222913D02*
X274680518Y-128359542D01*
X276543889Y-127963471D01*
X276939960Y-129826842D01*
X275076589Y-130222913D01*
X275076589Y-130222913D01*
G37*
D11*
G04 #@! TO.P,MX_V1,4*
G04 #@! TO.N,Net-(MX_V1-Pad4)*
X165761106Y-166888688D03*
D12*
G04 #@! TD*
G04 #@! TO.N,Net-(MX_V1-Pad4)*
G04 #@! TO.C,MX_V1*
G36*
X164631385Y-167622338D02*
X165027456Y-165758967D01*
X166890827Y-166155038D01*
X166494756Y-168018409D01*
X164631385Y-167622338D01*
X164631385Y-167622338D01*
G37*
D11*
G04 #@! TO.P,MX_V1,3*
G04 #@! TO.N,+5V*
X163276611Y-166360592D03*
D10*
G04 #@! TO.P,MX_V1,1*
G04 #@! TO.N,COL4*
X162376403Y-158379013D03*
G04 #@! TO.P,MX_V1,2*
G04 #@! TO.N,Net-(D55-Pad2)*
X169115736Y-157214756D03*
G04 #@! TD*
D11*
G04 #@! TO.P,MX_W1,4*
G04 #@! TO.N,Net-(MX_W1-Pad4)*
X131270166Y-121276507D03*
D12*
G04 #@! TD*
G04 #@! TO.N,Net-(MX_W1-Pad4)*
G04 #@! TO.C,MX_W1*
G36*
X130238275Y-122142367D02*
X130404306Y-120244616D01*
X132302057Y-120410647D01*
X132136026Y-122308398D01*
X130238275Y-122142367D01*
X130238275Y-122142367D01*
G37*
D11*
G04 #@! TO.P,MX_W1,3*
G04 #@! TO.N,+5V*
X128739832Y-121055131D03*
D10*
G04 #@! TO.P,MX_W1,1*
G04 #@! TO.N,COL2*
X126873624Y-113242752D03*
G04 #@! TO.P,MX_W1,2*
G04 #@! TO.N,Net-(D33-Pad2)*
X133420836Y-111265857D03*
G04 #@! TD*
D11*
G04 #@! TO.P,MX_X1,4*
G04 #@! TO.N,Net-(MX_X1-Pad4)*
X127949566Y-159231507D03*
D12*
G04 #@! TD*
G04 #@! TO.N,Net-(MX_X1-Pad4)*
G04 #@! TO.C,MX_X1*
G36*
X126917675Y-160097367D02*
X127083706Y-158199616D01*
X128981457Y-158365647D01*
X128815426Y-160263398D01*
X126917675Y-160097367D01*
X126917675Y-160097367D01*
G37*
D11*
G04 #@! TO.P,MX_X1,3*
G04 #@! TO.N,+5V*
X125419232Y-159010131D03*
D10*
G04 #@! TO.P,MX_X1,1*
G04 #@! TO.N,COL2*
X123553024Y-151197752D03*
G04 #@! TO.P,MX_X1,2*
G04 #@! TO.N,Net-(D53-Pad2)*
X130100236Y-149220857D03*
G04 #@! TD*
D11*
G04 #@! TO.P,MX_Y1,4*
G04 #@! TO.N,Net-(MX_Y1-Pad4)*
X256036239Y-134639011D03*
D12*
G04 #@! TD*
G04 #@! TO.N,Net-(MX_Y1-Pad4)*
G04 #@! TO.C,MX_Y1*
G36*
X255342463Y-135793648D02*
X254881602Y-133945235D01*
X256730015Y-133484374D01*
X257190876Y-135332787D01*
X255342463Y-135793648D01*
X255342463Y-135793648D01*
G37*
D11*
G04 #@! TO.P,MX_Y1,3*
G04 #@! TO.N,5VR*
X253571688Y-135253493D03*
D10*
G04 #@! TO.P,MX_Y1,1*
G04 #@! TO.N,COL8R*
X249263692Y-128474321D03*
G04 #@! TO.P,MX_Y1,2*
G04 #@! TO.N,Net-(D39-Pad2)*
X254810588Y-124473566D03*
G04 #@! TD*
G04 #@! TO.P,MX_Z1,2*
G04 #@! TO.N,Net-(D52-Pad2)*
X109823250Y-148113750D03*
G04 #@! TO.P,MX_Z1,1*
G04 #@! TO.N,COL1*
X103473250Y-150653750D03*
D11*
G04 #@! TO.P,MX_Z1,3*
G04 #@! TO.N,+5V*
X106013250Y-158273750D03*
D13*
G04 #@! TO.P,MX_Z1,4*
G04 #@! TO.N,Net-(MX_Z1-Pad4)*
X108553250Y-158273750D03*
G04 #@! TD*
G04 #@! TO.P,MX_'1,4*
G04 #@! TO.N,Net-(MX_'1-Pad4)*
X362426300Y-139223750D03*
D11*
G04 #@! TO.P,MX_'1,3*
G04 #@! TO.N,5VR*
X359886300Y-139223750D03*
D10*
G04 #@! TO.P,MX_'1,1*
G04 #@! TO.N,COL13R*
X357346300Y-131603750D03*
G04 #@! TO.P,MX_'1,2*
G04 #@! TO.N,Net-(D414-Pad2)*
X363696300Y-129063750D03*
G04 #@! TD*
G04 #@! TO.P,MX_LCTRL1,2*
G04 #@! TO.N,Net-(D41-Pad2)*
X88391950Y-129063750D03*
G04 #@! TO.P,MX_LCTRL1,1*
G04 #@! TO.N,COL0*
X82041950Y-131603750D03*
D11*
G04 #@! TO.P,MX_LCTRL1,3*
G04 #@! TO.N,+5V*
X84581950Y-139223750D03*
D13*
G04 #@! TO.P,MX_LCTRL1,4*
G04 #@! TO.N,Net-(MX_LCTRL1-Pad4)*
X87121950Y-139223750D03*
G04 #@! TD*
D10*
G04 #@! TO.P,MX_LSHIFT1,2*
G04 #@! TO.N,Net-(D51-Pad2)*
X88391950Y-148113750D03*
G04 #@! TO.P,MX_LSHIFT1,1*
G04 #@! TO.N,COL0*
X82041950Y-150653750D03*
D11*
G04 #@! TO.P,MX_LSHIFT1,3*
G04 #@! TO.N,+5V*
X84581950Y-158273750D03*
D13*
G04 #@! TO.P,MX_LSHIFT1,4*
G04 #@! TO.N,Net-(MX_LSHIFT1-Pad4)*
X87121950Y-158273750D03*
G04 #@! TD*
G04 #@! TO.P,MX_RSHIFT1,4*
G04 #@! TO.N,Net-(MX_RSHIFT1-Pad4)*
X362426250Y-158273750D03*
D11*
G04 #@! TO.P,MX_RSHIFT1,3*
G04 #@! TO.N,5VR*
X359886250Y-158273750D03*
D10*
G04 #@! TO.P,MX_RSHIFT1,1*
G04 #@! TO.N,COL13R*
X357346250Y-150653750D03*
G04 #@! TO.P,MX_RSHIFT1,2*
G04 #@! TO.N,Net-(D514-Pad2)*
X363696250Y-148113750D03*
G04 #@! TD*
D14*
G04 #@! TO.N,+5V*
X119075200Y-159010131D03*
X118821200Y-178222200D03*
X118872000Y-140032631D03*
X118872000Y-121055131D03*
X113893600Y-99314000D03*
X124155200Y-76901731D03*
X216814400Y-110134400D03*
X216077800Y-98907600D03*
X214477600Y-175717200D03*
X214680800Y-186791600D03*
X202996800Y-175463200D03*
X201543058Y-186027867D03*
X201269600Y-137718800D03*
X186664600Y-156718000D03*
G04 #@! TO.N,GND*
X188493400Y-102895400D03*
X197078600Y-171450000D03*
G04 #@! TO.N,ROW0*
X183032400Y-84429600D03*
X176987200Y-175514000D03*
G04 #@! TO.N,ROW1*
X210820000Y-113741200D03*
X94488000Y-98552000D03*
X99923600Y-164439600D03*
X204470000Y-189026800D03*
X193852800Y-184759600D03*
X207670400Y-115417600D03*
G04 #@! TO.N,ROW2*
X211654292Y-133911885D03*
X215595200Y-148793200D03*
X206956200Y-173532800D03*
G04 #@! TO.N,ROW3*
X210655458Y-133960187D03*
X215849200Y-155092400D03*
X206095600Y-172923200D03*
G04 #@! TO.N,ROW4*
X138836400Y-86969600D03*
X137566400Y-158301430D03*
G04 #@! TO.N,ROW5*
X161594800Y-84328000D03*
X154243941Y-182118000D03*
G04 #@! TO.N,Net-(F1-Pad2)*
X192074800Y-105257600D03*
X203098400Y-165100000D03*
G04 #@! TO.N,COL13*
X213664800Y-133705600D03*
X208483200Y-173075600D03*
G04 #@! TO.N,COL11*
X215729387Y-133639081D03*
X210153377Y-171216215D03*
G04 #@! TO.N,COL10*
X216728599Y-133599330D03*
X215687029Y-183657965D03*
G04 #@! TO.N,COL9*
X217726898Y-133657656D03*
X216001600Y-184607200D03*
G04 #@! TO.N,COL8*
X218795600Y-133604000D03*
X216357200Y-185572400D03*
G04 #@! TO.N,COL7*
X212648800Y-133807200D03*
X207670400Y-172110400D03*
G04 #@! TO.N,5VR*
X272034000Y-84074000D03*
X288925000Y-103201759D03*
X284861000Y-125857000D03*
X288798000Y-145161000D03*
X292608000Y-163830000D03*
X297815000Y-181878088D03*
G04 #@! TO.N,COL8R*
X244200433Y-96266000D03*
G04 #@! TO.N,COL9R*
X258445000Y-93980000D03*
G04 #@! TO.N,COL10R*
X277396690Y-89485845D03*
G04 #@! TO.N,COl11R*
X306832000Y-82423000D03*
G04 #@! TO.N,COL12R*
X318643000Y-81788000D03*
G04 #@! TO.N,COL13R*
X335280000Y-80182065D03*
G04 #@! TO.N,Net-(J3-Pad2)*
X212648800Y-158699200D03*
X205206600Y-106222800D03*
G04 #@! TO.N,Net-(J3-Pad3)*
X213944200Y-158673800D03*
X206474718Y-106072995D03*
G04 #@! TO.N,COL0*
X205282800Y-189788800D03*
X194100733Y-186035667D03*
G04 #@! TO.N,COL1*
X106629200Y-167690800D03*
G04 #@! TO.N,COL2*
X124002800Y-167030400D03*
G04 #@! TO.N,COL3*
X138735005Y-166979600D03*
G04 #@! TO.N,COL4*
X160985200Y-173024800D03*
G04 #@! TO.N,COL5*
X179739931Y-176312282D03*
G04 #@! TO.N,COL6*
X206883000Y-189687200D03*
X195122800Y-153644600D03*
X200507600Y-156565600D03*
G04 #@! TO.N,Net-(R3-Pad2)*
X211988400Y-189179200D03*
X200816057Y-171754800D03*
G04 #@! TO.N,SwLedPWM*
X206121000Y-190627000D03*
X196850000Y-190906400D03*
G04 #@! TO.N,COL12*
X214731600Y-133705600D03*
X209296000Y-172364400D03*
G04 #@! TD*
D15*
G04 #@! TO.N,+5V*
X118821200Y-159264131D02*
X119075200Y-159010131D01*
X118821200Y-178222200D02*
X118821200Y-159264131D01*
X118872000Y-158806931D02*
X119075200Y-159010131D01*
X118872000Y-140032631D02*
X118872000Y-158806931D01*
X118872000Y-140032631D02*
X118872000Y-121055131D01*
X113893600Y-103987600D02*
X113893600Y-99314000D01*
X118872000Y-108966000D02*
X113893600Y-103987600D01*
X118872000Y-121055131D02*
X118872000Y-108966000D01*
X124155200Y-81178400D02*
X124155200Y-76901731D01*
X113893600Y-91440000D02*
X124155200Y-81178400D01*
X113893600Y-99314000D02*
X113893600Y-91440000D01*
X214477600Y-175717200D02*
X214477600Y-186588400D01*
X214477600Y-186588400D02*
X214680800Y-186791600D01*
X214477600Y-175717200D02*
X203250800Y-175717200D01*
X203250800Y-175717200D02*
X202996800Y-175463200D01*
X202996800Y-175463200D02*
X202996800Y-184574125D01*
X202996800Y-184574125D02*
X201543058Y-186027867D01*
X202996800Y-167427300D02*
X202543211Y-166973711D01*
X202996800Y-175463200D02*
X202996800Y-167427300D01*
X186664600Y-153424300D02*
X186363411Y-153123111D01*
X186664600Y-156718000D02*
X186664600Y-153424300D01*
X216814400Y-99644200D02*
X216077800Y-98907600D01*
X216814400Y-101295200D02*
X216814400Y-99644200D01*
X216814400Y-110134400D02*
X216814400Y-101295200D01*
G04 #@! TO.N,GND*
X188493400Y-103461085D02*
X188137800Y-103816685D01*
X188493400Y-102895400D02*
X188493400Y-103461085D01*
X188137800Y-103816685D02*
X188137800Y-120650000D01*
X189712600Y-122224800D02*
X190246000Y-122758200D01*
X188137800Y-120650000D02*
X189712600Y-122224800D01*
X190645999Y-123158199D02*
X196138800Y-128651000D01*
X190246000Y-122758200D02*
X190645999Y-123158199D01*
X196138800Y-128651000D02*
X196138800Y-169443400D01*
X196138800Y-170510200D02*
X197078600Y-171450000D01*
X196138800Y-169443400D02*
X196138800Y-170510200D01*
D16*
G04 #@! TO.N,ROW0*
X182632401Y-84829599D02*
X181870401Y-84829599D01*
X183032400Y-84429600D02*
X182632401Y-84829599D01*
X181870401Y-84829599D02*
X178003200Y-88696800D01*
X178003200Y-88696800D02*
X171450000Y-88696800D01*
X171450000Y-88696800D02*
X169976800Y-90170000D01*
X169976800Y-90170000D02*
X169976800Y-116433600D01*
X169976800Y-116433600D02*
X176580800Y-123037600D01*
X176580800Y-123037600D02*
X176580800Y-137312400D01*
X176580800Y-137312400D02*
X178562000Y-139293600D01*
X178562000Y-139293600D02*
X178562000Y-162001200D01*
X176936400Y-175463200D02*
X176987200Y-175514000D01*
X178562000Y-162001200D02*
X176936400Y-163626800D01*
X176936400Y-163626800D02*
X176936400Y-175463200D01*
G04 #@! TO.N,ROW1*
X210820000Y-113741200D02*
X209143600Y-115417600D01*
X209143600Y-115417600D02*
X208670600Y-115417600D01*
X94488000Y-104210567D02*
X98958400Y-108680967D01*
X94488000Y-98552000D02*
X94488000Y-104210567D01*
X98958400Y-108680967D02*
X98958400Y-163474400D01*
X98958400Y-163474400D02*
X99923600Y-164439600D01*
X204070001Y-189426799D02*
X198519999Y-189426799D01*
X204470000Y-189026800D02*
X204070001Y-189426799D01*
X198519999Y-189426799D02*
X193852800Y-184759600D01*
X208670600Y-115417600D02*
X207670400Y-115417600D01*
G04 #@! TO.N,ROW2*
X211654292Y-133911885D02*
X216662000Y-138919593D01*
X216662000Y-138919593D02*
X216662000Y-143055990D01*
X216662000Y-143055990D02*
X216662000Y-147726400D01*
X216662000Y-147726400D02*
X215595200Y-148793200D01*
X215595200Y-149358885D02*
X216712800Y-150476485D01*
X215595200Y-148793200D02*
X215595200Y-149358885D01*
X216712800Y-161460734D02*
X206908400Y-171265134D01*
X216712800Y-150476485D02*
X216712800Y-161460734D01*
X206908400Y-171265134D02*
X206908400Y-173126400D01*
X206908400Y-173126400D02*
X206908400Y-173485000D01*
X206908400Y-173485000D02*
X206956200Y-173532800D01*
G04 #@! TO.N,ROW3*
X211055457Y-134360186D02*
X211068186Y-134360186D01*
X210655458Y-133960187D02*
X211055457Y-134360186D01*
X211068186Y-134360186D02*
X216154000Y-139446000D01*
X216154000Y-139446000D02*
X216154000Y-143055990D01*
X215744153Y-147568285D02*
X214731600Y-148580838D01*
X216154000Y-143055990D02*
X215744153Y-143465837D01*
X215744153Y-143465837D02*
X215744153Y-147568285D01*
X214731600Y-148580838D02*
X214731600Y-149555200D01*
X214731600Y-149555200D02*
X215849200Y-150672800D01*
X215849200Y-150672800D02*
X215849200Y-155092400D01*
X215849200Y-155658085D02*
X215950800Y-155759685D01*
X215849200Y-155092400D02*
X215849200Y-155658085D01*
X215950800Y-161580668D02*
X206081468Y-171450000D01*
X215950800Y-155759685D02*
X215950800Y-161580668D01*
X206081468Y-171450000D02*
X206081468Y-172909068D01*
X206081468Y-172909068D02*
X206095600Y-172923200D01*
G04 #@! TO.N,ROW4*
X138436401Y-90315999D02*
X138436401Y-87369599D01*
X134366000Y-94386400D02*
X138436401Y-90315999D01*
X137566400Y-158301430D02*
X139446000Y-156421830D01*
X138436401Y-87369599D02*
X138836400Y-86969600D01*
X139446000Y-156421830D02*
X139446000Y-112014000D01*
X136710420Y-109278420D02*
X136710420Y-100591620D01*
X136710420Y-100591620D02*
X134366000Y-98247200D01*
X139446000Y-112014000D02*
X136710420Y-109278420D01*
X134366000Y-98247200D02*
X134366000Y-94386400D01*
G04 #@! TO.N,ROW5*
X161594800Y-84328000D02*
X151434800Y-94488000D01*
X151434800Y-94488000D02*
X151434800Y-112572800D01*
X151434800Y-112572800D02*
X157429200Y-118567200D01*
X157429200Y-178932741D02*
X154243941Y-182118000D01*
X157429200Y-118567200D02*
X157429200Y-178932741D01*
G04 #@! TO.N,Net-(F1-Pad2)*
X201193400Y-165100000D02*
X203098400Y-165100000D01*
X196926200Y-160832800D02*
X201193400Y-165100000D01*
X196926200Y-127914400D02*
X196926200Y-160832800D01*
X189382400Y-120370600D02*
X196926200Y-127914400D01*
X192074800Y-105257600D02*
X189382400Y-107950000D01*
X189382400Y-107950000D02*
X189382400Y-120370600D01*
G04 #@! TO.N,COL13*
X214064799Y-134105599D02*
X213664800Y-133705600D01*
X217678000Y-137718800D02*
X214064799Y-134105599D01*
X217678000Y-161848800D02*
X217678000Y-137718800D01*
X208483200Y-173075600D02*
X208483200Y-171043600D01*
X208483200Y-171043600D02*
X217678000Y-161848800D01*
G04 #@! TO.N,COL11*
X215729387Y-134204766D02*
X215729387Y-133639081D01*
X218694000Y-137169379D02*
X215729387Y-134204766D01*
X218694000Y-164693600D02*
X218694000Y-137169379D01*
X212571384Y-170816216D02*
X218694000Y-164693600D01*
X210153377Y-171216215D02*
X210553376Y-170816216D01*
X210553376Y-170816216D02*
X212571384Y-170816216D01*
G04 #@! TO.N,COL10*
X216728599Y-134165015D02*
X219202000Y-136638416D01*
X216728599Y-133599330D02*
X216728599Y-134165015D01*
X219202000Y-136638416D02*
X219202000Y-143055990D01*
X215687029Y-183092280D02*
X216154000Y-182625309D01*
X215687029Y-183657965D02*
X215687029Y-183092280D01*
X216154000Y-182625309D02*
X216154000Y-177393600D01*
X219148010Y-143109980D02*
X219202000Y-143055990D01*
X219148010Y-173993190D02*
X219148010Y-143109980D01*
X216154000Y-176987200D02*
X219148010Y-173993190D01*
X216154000Y-177393600D02*
X216154000Y-176987200D01*
G04 #@! TO.N,COL9*
X217726898Y-134223341D02*
X217726898Y-133657656D01*
X219710000Y-136206443D02*
X217726898Y-134223341D01*
X219710000Y-174091600D02*
X219710000Y-136206443D01*
X216662000Y-177139600D02*
X219710000Y-174091600D01*
X216001600Y-184607200D02*
X216662000Y-183946800D01*
X216662000Y-183946800D02*
X216662000Y-177139600D01*
G04 #@! TO.N,COL8*
X218795600Y-133604000D02*
X220218000Y-135026400D01*
X220218000Y-135026400D02*
X220218000Y-143055990D01*
X220218000Y-143055990D02*
X220218000Y-174498000D01*
X220218000Y-174498000D02*
X217220800Y-177495200D01*
X217220800Y-177495200D02*
X217220800Y-178765200D01*
X217220800Y-178765200D02*
X217220800Y-184708800D01*
X217220800Y-184708800D02*
X216357200Y-185572400D01*
G04 #@! TO.N,COL7*
X207670400Y-171145200D02*
X207670400Y-172110400D01*
X217170000Y-161645600D02*
X207670400Y-171145200D01*
X217170000Y-138023600D02*
X217170000Y-161645600D01*
X213579001Y-134432601D02*
X217170000Y-138023600D01*
X212648800Y-133807200D02*
X213274201Y-134432601D01*
X213274201Y-134432601D02*
X213579001Y-134432601D01*
D15*
G04 #@! TO.N,5VR*
X288925000Y-100330000D02*
X288925000Y-103201759D01*
X272034000Y-84074000D02*
X272034000Y-85293097D01*
X272034000Y-85293097D02*
X283872133Y-97131230D01*
X283872133Y-97131230D02*
X285726230Y-97131230D01*
X285726230Y-97131230D02*
X288925000Y-100330000D01*
X288925000Y-103201759D02*
X289324999Y-103601758D01*
X289324999Y-103601758D02*
X289324999Y-106664732D01*
X289324999Y-106664732D02*
X284861000Y-111128731D01*
X284861000Y-111128731D02*
X284861000Y-125857000D01*
X284861000Y-125857000D02*
X284861000Y-134239000D01*
X288798000Y-138176000D02*
X288798000Y-145161000D01*
X284861000Y-134239000D02*
X288798000Y-138176000D01*
X288798000Y-145161000D02*
X288798000Y-154686000D01*
X292608000Y-158496000D02*
X292608000Y-163830000D01*
X288798000Y-154686000D02*
X292608000Y-158496000D01*
X297815000Y-169037000D02*
X292608000Y-163830000D01*
X297815000Y-181878088D02*
X297815000Y-169037000D01*
D16*
G04 #@! TO.N,COL7R*
X245071091Y-110808120D02*
X245071091Y-126911909D01*
X243946092Y-109683121D02*
X245071091Y-110808120D01*
X233083892Y-138899108D02*
X233083892Y-142324921D01*
X245071091Y-126911909D02*
X233083892Y-138899108D01*
X234208891Y-157325420D02*
X237692492Y-160809021D01*
X233083892Y-142324921D02*
X234208891Y-143449920D01*
X234208891Y-143449920D02*
X234208891Y-157325420D01*
G04 #@! TO.N,COL8R*
X248040891Y-186834222D02*
X248040891Y-185156109D01*
X246915892Y-187959221D02*
X248040891Y-186834222D01*
X248040891Y-185156109D02*
X259842000Y-173355000D01*
X259842000Y-166803629D02*
X258480892Y-165442521D01*
X259842000Y-173355000D02*
X259842000Y-166803629D01*
X258480892Y-163851531D02*
X255016000Y-160386639D01*
X258480892Y-165442521D02*
X258480892Y-163851531D01*
X255016000Y-148102129D02*
X253872292Y-146958421D01*
X255016000Y-160386639D02*
X255016000Y-148102129D01*
X253872292Y-145367431D02*
X250698000Y-142193139D01*
X253872292Y-146958421D02*
X253872292Y-145367431D01*
X250698000Y-129908629D02*
X249263692Y-128474321D01*
X250698000Y-142193139D02*
X250698000Y-129908629D01*
X249263692Y-126883331D02*
X257910023Y-118237000D01*
X249263692Y-128474321D02*
X249263692Y-126883331D01*
X257910023Y-118237000D02*
X260985000Y-118237000D01*
X260985000Y-118237000D02*
X264033000Y-115189000D01*
X264033000Y-105593337D02*
X262643462Y-104203799D01*
X264033000Y-115189000D02*
X264033000Y-105593337D01*
X261518463Y-103078800D02*
X259034800Y-103078800D01*
X262643462Y-104203799D02*
X261518463Y-103078800D01*
X259034800Y-103078800D02*
X252222000Y-96266000D01*
X244200433Y-96266000D02*
X242295433Y-94361000D01*
X252222000Y-96266000D02*
X244200433Y-96266000D01*
X242295433Y-94361000D02*
X241427000Y-94361000D01*
X241427000Y-94361000D02*
X239395000Y-92329000D01*
X239395000Y-87095729D02*
X237955392Y-85656121D01*
X239395000Y-92329000D02*
X239395000Y-87095729D01*
G04 #@! TO.N,COL9R*
X258445000Y-81996037D02*
X256652862Y-80203899D01*
X258445000Y-93980000D02*
X258445000Y-81996037D01*
X259715000Y-95250000D02*
X258445000Y-93980000D01*
X275633757Y-95250000D02*
X259715000Y-95250000D01*
X279704456Y-99320699D02*
X275633757Y-95250000D01*
X281295446Y-99320699D02*
X279704456Y-99320699D01*
X269256962Y-119871038D02*
X269256962Y-122695899D01*
X272923000Y-116205000D02*
X269256962Y-119871038D01*
X278003000Y-116205000D02*
X272923000Y-116205000D01*
X282420445Y-111787555D02*
X278003000Y-116205000D01*
X281295446Y-99320699D02*
X282420445Y-100445698D01*
X282420445Y-100445698D02*
X282420445Y-111787555D01*
X272092663Y-140204600D02*
X273217662Y-141329599D01*
X270381961Y-138493898D02*
X272092663Y-140204600D01*
X270381961Y-123820898D02*
X270381961Y-138493898D01*
X269256962Y-122695899D02*
X270381961Y-123820898D01*
X276053363Y-158838300D02*
X277178362Y-159963299D01*
X274342661Y-157127598D02*
X276053363Y-158838300D01*
X274342661Y-142454598D02*
X274342661Y-157127598D01*
X273217662Y-141329599D02*
X274342661Y-142454598D01*
X278675118Y-179761710D02*
X277550119Y-180886709D01*
X278675118Y-161460055D02*
X278675118Y-179761710D01*
X277178362Y-159963299D02*
X278675118Y-161460055D01*
G04 #@! TO.N,COL10R*
X304308263Y-173827700D02*
X304308263Y-171085263D01*
X305433262Y-174952699D02*
X304308263Y-173827700D01*
X295830346Y-156671189D02*
X295830346Y-155080199D01*
X296270335Y-157111178D02*
X295830346Y-156671189D01*
X296270335Y-163047335D02*
X296270335Y-157111178D01*
X304308263Y-171085263D02*
X296270335Y-163047335D01*
X293320445Y-137505198D02*
X292195446Y-136380199D01*
X293320445Y-150979308D02*
X293320445Y-137505198D01*
X295830346Y-153489209D02*
X293320445Y-150979308D01*
X295830346Y-155080199D02*
X295830346Y-153489209D01*
X292195446Y-134789209D02*
X289814000Y-132407763D01*
X292195446Y-136380199D02*
X292195446Y-134789209D01*
X289814000Y-118933653D02*
X288560546Y-117680199D01*
X289814000Y-132407763D02*
X289814000Y-118933653D01*
X289685545Y-116555200D02*
X289685545Y-115571455D01*
X288560546Y-117680199D02*
X289685545Y-116555200D01*
X289685545Y-115571455D02*
X301752000Y-103505000D01*
X300889651Y-97539095D02*
X300889651Y-95948105D01*
X301752000Y-98401444D02*
X300889651Y-97539095D01*
X301752000Y-103505000D02*
X301752000Y-98401444D01*
X276429845Y-76418798D02*
X275304846Y-75293799D01*
X276429845Y-88519000D02*
X276429845Y-76418798D01*
X277396690Y-89485845D02*
X276429845Y-88519000D01*
X294427391Y-89485845D02*
X277396690Y-89485845D01*
X300889651Y-95948105D02*
X294427391Y-89485845D01*
G04 #@! TO.N,COl11R*
X314203923Y-134475369D02*
X314203923Y-132884379D01*
X314739224Y-135010670D02*
X314203923Y-134475369D01*
X314739224Y-150736880D02*
X314739224Y-135010670D01*
X315864223Y-151861879D02*
X314739224Y-150736880D01*
X312543623Y-115497869D02*
X312543623Y-113906879D01*
X313078924Y-116033170D02*
X312543623Y-115497869D01*
X313078924Y-131759380D02*
X313078924Y-116033170D01*
X314203923Y-132884379D02*
X313078924Y-131759380D01*
X320294000Y-106172000D02*
X320675000Y-105791000D01*
X320265123Y-95699469D02*
X320265123Y-94108479D01*
X320675000Y-96109346D02*
X320265123Y-95699469D01*
X320675000Y-105791000D02*
X320675000Y-96109346D01*
X320278502Y-106172000D02*
X312543623Y-113906879D01*
X320294000Y-106172000D02*
X320278502Y-106172000D01*
X296024050Y-73046104D02*
X294899051Y-71921105D01*
X320265123Y-94108479D02*
X319140124Y-92983480D01*
X319140124Y-92983480D02*
X317392480Y-92983480D01*
X317392480Y-92983480D02*
X306832000Y-82423000D01*
X306832000Y-82423000D02*
X298831000Y-82423000D01*
X298831000Y-82423000D02*
X296024050Y-79616050D01*
X296024050Y-79616050D02*
X296024050Y-73046104D01*
G04 #@! TO.N,COL12R*
X334930750Y-87757000D02*
X340677500Y-93503750D01*
X324612000Y-87757000D02*
X334930750Y-87757000D01*
X315214000Y-72312146D02*
X315214000Y-78359000D01*
X314246723Y-69753879D02*
X314246723Y-71344869D01*
X314246723Y-71344869D02*
X315214000Y-72312146D01*
X340677500Y-95094740D02*
X341122000Y-95539240D01*
X340677500Y-93503750D02*
X340677500Y-95094740D01*
X341122000Y-107346750D02*
X335915000Y-112553750D01*
X341122000Y-95539240D02*
X341122000Y-107346750D01*
X335915000Y-112553750D02*
X335915000Y-131603750D01*
X335915000Y-133194740D02*
X335915000Y-150653750D01*
X335915000Y-131603750D02*
X335915000Y-133194740D01*
X318643000Y-81788000D02*
X324612000Y-87757000D01*
X315214000Y-78359000D02*
X318643000Y-81788000D01*
G04 #@! TO.N,COL13R*
X356089999Y-168578751D02*
X356089999Y-158133001D01*
X354965000Y-169703750D02*
X356089999Y-168578751D01*
X357346250Y-156876750D02*
X357346250Y-150653750D01*
X356089999Y-158133001D02*
X357346250Y-156876750D01*
X357346250Y-131603800D02*
X357346300Y-131603750D01*
X357346250Y-150653750D02*
X357346250Y-131603800D01*
X354965000Y-129222450D02*
X354965000Y-112553750D01*
X357346300Y-131603750D02*
X354965000Y-129222450D01*
X354965000Y-112553750D02*
X354965000Y-106934000D01*
X359727500Y-102171500D02*
X359727500Y-93503750D01*
X354965000Y-106934000D02*
X359727500Y-102171500D01*
X354869750Y-88646000D02*
X359727500Y-93503750D01*
X343789000Y-88646000D02*
X354869750Y-88646000D01*
X334297500Y-68545750D02*
X334297500Y-79154500D01*
X335280000Y-80137000D02*
X335280000Y-80182065D01*
X335280000Y-80137000D02*
X343789000Y-88646000D01*
X334297500Y-79154500D02*
X335280000Y-80137000D01*
G04 #@! TO.N,Net-(J3-Pad2)*
X212648800Y-158133515D02*
X212623400Y-158108115D01*
X212648800Y-158699200D02*
X212648800Y-158133515D01*
X212623400Y-141916866D02*
X206121000Y-135414466D01*
X212623400Y-158108115D02*
X212623400Y-141916866D01*
X206121000Y-135414466D02*
X206121000Y-108178600D01*
X206121000Y-107137200D02*
X206121000Y-107543600D01*
X205206600Y-106222800D02*
X206121000Y-107137200D01*
X206121000Y-107182185D02*
X206121000Y-107543600D01*
X206121000Y-107543600D02*
X206121000Y-108178600D01*
G04 #@! TO.N,Net-(J3-Pad3)*
X206578200Y-106176477D02*
X206474718Y-106072995D01*
X206578200Y-106934000D02*
X206578200Y-106176477D01*
X213080600Y-141732000D02*
X206578200Y-135229600D01*
X206578200Y-135229600D02*
X206578200Y-106934000D01*
X213080600Y-157073600D02*
X213080600Y-141732000D01*
X213080600Y-157400472D02*
X213080600Y-157073600D01*
X213080600Y-157810200D02*
X213944200Y-158673800D01*
X213080600Y-157073600D02*
X213080600Y-157810200D01*
G04 #@! TO.N,COL0*
X82041950Y-152244740D02*
X82041950Y-150653750D01*
X84423250Y-168112760D02*
X82041950Y-165731460D01*
X84423250Y-169703750D02*
X84423250Y-168112760D01*
X82041950Y-133194740D02*
X82041950Y-150653750D01*
X82041950Y-131603750D02*
X82041950Y-133194740D01*
X83166949Y-130478751D02*
X83166949Y-118763051D01*
X82041950Y-131603750D02*
X83166949Y-130478751D01*
X84423250Y-117506750D02*
X84423250Y-112553750D01*
X83166949Y-118763051D02*
X84423250Y-117506750D01*
X79660750Y-95094740D02*
X80264000Y-95697990D01*
X79660750Y-93503750D02*
X79660750Y-95094740D01*
X80264000Y-108394500D02*
X84423250Y-112553750D01*
X80264000Y-95697990D02*
X80264000Y-108394500D01*
X79660750Y-93503750D02*
X93611700Y-79552800D01*
X93611700Y-79552800D02*
X98552000Y-79552800D01*
X105090750Y-73014050D02*
X105090750Y-68545750D01*
X98552000Y-79552800D02*
X105090750Y-73014050D01*
X82041950Y-159512000D02*
X82041950Y-152244740D01*
X82041950Y-165731460D02*
X82041950Y-159512000D01*
X198253865Y-190188799D02*
X194100733Y-186035667D01*
X205282800Y-189788800D02*
X204882801Y-190188799D01*
X204882801Y-190188799D02*
X198253865Y-190188799D01*
G04 #@! TO.N,COL1*
X98710750Y-95094740D02*
X99161600Y-95545590D01*
X98710750Y-93503750D02*
X98710750Y-95094740D01*
X99161600Y-108242100D02*
X103473250Y-112553750D01*
X99161600Y-95545590D02*
X99161600Y-108242100D01*
X98710750Y-91912760D02*
X109292710Y-81330800D01*
X98710750Y-93503750D02*
X98710750Y-91912760D01*
X125170624Y-69089352D02*
X125170624Y-73863776D01*
X117703600Y-81330800D02*
X115468400Y-81330800D01*
X125170624Y-73863776D02*
X117703600Y-81330800D01*
X109292710Y-81330800D02*
X115468400Y-81330800D01*
X115468400Y-81330800D02*
X115641242Y-81330800D01*
X103473250Y-112553750D02*
X103473250Y-131603750D01*
X103473250Y-131603750D02*
X103473250Y-150653750D01*
X103473250Y-152244740D02*
X104038400Y-152809890D01*
X106070400Y-167690800D02*
X106629200Y-167690800D01*
X104038400Y-165658800D02*
X106070400Y-167690800D01*
X104038400Y-152809890D02*
X104038400Y-165658800D01*
X103473250Y-150653750D02*
X103473250Y-152244740D01*
G04 #@! TO.N,COL2*
X124678023Y-150072753D02*
X124678023Y-137094377D01*
X123553024Y-151197752D02*
X124678023Y-150072753D01*
X125213324Y-136559076D02*
X125213324Y-132220252D01*
X124678023Y-137094377D02*
X125213324Y-136559076D01*
X126873624Y-114833742D02*
X126873624Y-113242752D01*
X126873624Y-128968962D02*
X126873624Y-114833742D01*
X125213324Y-130629262D02*
X126873624Y-128968962D01*
X125213324Y-132220252D02*
X125213324Y-130629262D01*
X119152124Y-95035342D02*
X119152124Y-93444352D01*
X119152124Y-103930262D02*
X119152124Y-95035342D01*
X126873624Y-111651762D02*
X119152124Y-103930262D01*
X126873624Y-113242752D02*
X126873624Y-111651762D01*
X119152124Y-91853362D02*
X126575886Y-84429600D01*
X119152124Y-93444352D02*
X119152124Y-91853362D01*
X126575886Y-84429600D02*
X135585200Y-84429600D01*
X144545697Y-75469103D02*
X144545697Y-70992361D01*
X135585200Y-84429600D02*
X144545697Y-75469103D01*
X123553024Y-151197752D02*
X123553024Y-166580624D01*
X123553024Y-166580624D02*
X124002800Y-167030400D01*
G04 #@! TO.N,COL3*
X143697905Y-153626235D02*
X143697905Y-157901695D01*
X143697905Y-157901695D02*
X138735005Y-162864595D01*
X138555397Y-93428471D02*
X146487468Y-85496400D01*
X138555397Y-95019461D02*
X138555397Y-93428471D01*
X146487468Y-85496400D02*
X157276800Y-85496400D01*
X164223405Y-78549795D02*
X164223405Y-73929435D01*
X157276800Y-85496400D02*
X164223405Y-78549795D01*
X138576670Y-98776473D02*
X138555397Y-98755200D01*
X138576670Y-103835200D02*
X138576670Y-98776473D01*
X138555397Y-95019461D02*
X138555397Y-98755200D01*
X138576670Y-103835200D02*
X150967705Y-116226235D01*
X150967705Y-116226235D02*
X150967705Y-121167895D01*
X147332805Y-124802795D02*
X147332805Y-134926235D01*
X150967705Y-121167895D02*
X147332805Y-124802795D01*
X147332805Y-134926235D02*
X147332805Y-139483995D01*
X143697905Y-143118895D02*
X143697905Y-153626235D01*
X147332805Y-139483995D02*
X143697905Y-143118895D01*
X138735005Y-166979600D02*
X138735005Y-173654335D01*
X138735005Y-162864595D02*
X138735005Y-166979600D01*
G04 #@! TO.N,COL4*
X158232805Y-97866735D02*
X169485540Y-86614000D01*
X169485540Y-86614000D02*
X178562000Y-86614000D01*
X182902103Y-82273897D02*
X182902103Y-78592112D01*
X178562000Y-86614000D02*
X182902103Y-82273897D01*
X158232805Y-97866735D02*
X158232805Y-102167995D01*
X158232805Y-102167995D02*
X157226000Y-103174800D01*
X157226000Y-108039809D02*
X170297803Y-121111612D01*
X157226000Y-103174800D02*
X157226000Y-108039809D01*
X170297803Y-121111612D02*
X170297803Y-125510597D01*
X166337103Y-129471297D02*
X166337103Y-139745312D01*
X170297803Y-125510597D02*
X166337103Y-129471297D01*
X166337103Y-139745312D02*
X166337103Y-144254097D01*
X162376403Y-148214797D02*
X162376403Y-158379012D01*
X166337103Y-144254097D02*
X162376403Y-148214797D01*
X162376403Y-158379013D02*
X162376403Y-163200797D01*
X162376403Y-163200797D02*
X160985200Y-164592000D01*
X160985200Y-164592000D02*
X160985200Y-165962843D01*
X160985200Y-165962843D02*
X160985200Y-173024800D01*
G04 #@! TO.N,COL5*
X178757113Y-181058648D02*
X179781200Y-180034561D01*
X178757113Y-182649638D02*
X178757113Y-181058648D01*
X181133705Y-166592295D02*
X181133705Y-163599076D01*
X179781200Y-167944800D02*
X181133705Y-166592295D01*
X181133705Y-162008086D02*
X183896000Y-159245791D01*
X181133705Y-163599076D02*
X181133705Y-162008086D01*
X183896000Y-159245791D02*
X183896000Y-150622000D01*
X185742305Y-148775695D02*
X185742305Y-145114976D01*
X183896000Y-150622000D02*
X185742305Y-148775695D01*
X185742305Y-143523986D02*
X188366400Y-140899891D01*
X185742305Y-145114976D02*
X185742305Y-143523986D01*
X188366400Y-140899891D02*
X188366400Y-132130800D01*
X190350905Y-130146295D02*
X190350905Y-126630876D01*
X188366400Y-132130800D02*
X190350905Y-130146295D01*
X176911303Y-105841497D02*
X176911303Y-102619512D01*
X176174400Y-106578400D02*
X176911303Y-105841497D01*
X176174400Y-112420400D02*
X176174400Y-106578400D01*
X189225906Y-125471906D02*
X176174400Y-112420400D01*
X189225906Y-125505877D02*
X189225906Y-125471906D01*
X190350905Y-126630876D02*
X189225906Y-125505877D01*
X176911303Y-102619512D02*
X186770015Y-92760800D01*
X186770015Y-92760800D02*
X196189600Y-92760800D01*
X201659405Y-87290995D02*
X201659405Y-83812476D01*
X196189600Y-92760800D02*
X201659405Y-87290995D01*
X179781200Y-176123600D02*
X179781200Y-176479200D01*
X179781200Y-176123600D02*
X179781200Y-167944800D01*
X179781200Y-176271013D02*
X179739931Y-176312282D01*
X179781200Y-176123600D02*
X179781200Y-176271013D01*
X179781200Y-180034561D02*
X179739931Y-176312282D01*
G04 #@! TO.N,COL6*
X201922105Y-157374586D02*
X205232000Y-154064691D01*
X201922105Y-158965576D02*
X201922105Y-157374586D01*
X205232000Y-154064691D02*
X205232000Y-145694400D01*
X206530705Y-144395695D02*
X206530705Y-140481476D01*
X205232000Y-145694400D02*
X206530705Y-144395695D01*
X195668505Y-111214295D02*
X195668505Y-107839676D01*
X194767200Y-112115600D02*
X195668505Y-111214295D01*
X194767200Y-120980200D02*
X194767200Y-112115600D01*
X205405706Y-131618706D02*
X194767200Y-120980200D01*
X205405706Y-139356477D02*
X205405706Y-131618706D01*
X206530705Y-140481476D02*
X205405706Y-139356477D01*
X196501039Y-191633401D02*
X190601600Y-185733962D01*
X206190561Y-191633401D02*
X196501039Y-191633401D01*
X206883000Y-189687200D02*
X206883000Y-190940962D01*
X206883000Y-190940962D02*
X206190561Y-191633401D01*
X190601600Y-185733962D02*
X190601600Y-180060600D01*
X190601600Y-180060600D02*
X194564000Y-176098200D01*
X194564000Y-176098200D02*
X194564000Y-154203400D01*
X194564000Y-154203400D02*
X195122800Y-153644600D01*
X201922105Y-157374586D02*
X201922105Y-156811705D01*
X201676000Y-156565600D02*
X200507600Y-156565600D01*
X201922105Y-156811705D02*
X201676000Y-156565600D01*
G04 #@! TO.N,Net-(R3-Pad2)*
X210543314Y-188299799D02*
X201641001Y-188299799D01*
X211988400Y-189179200D02*
X211422715Y-189179200D01*
X211422715Y-189179200D02*
X210543314Y-188299799D01*
X201641001Y-188299799D02*
X200816057Y-187474855D01*
X200816057Y-187474855D02*
X200816057Y-171754800D01*
G04 #@! TO.N,SwLedPWM*
X205275915Y-190906400D02*
X196850000Y-190906400D01*
X206121000Y-190627000D02*
X205555315Y-190627000D01*
X205555315Y-190627000D02*
X205275915Y-190906400D01*
G04 #@! TO.N,COL12*
X209296000Y-171798715D02*
X209296000Y-172364400D01*
X215131599Y-134105599D02*
X215131599Y-134308799D01*
X215131599Y-134308799D02*
X218186000Y-137363200D01*
X218186000Y-137363200D02*
X218186000Y-162107630D01*
X218186000Y-162107630D02*
X209296000Y-170997630D01*
X214731600Y-133705600D02*
X215131599Y-134105599D01*
X209296000Y-170997630D02*
X209296000Y-171798715D01*
G04 #@! TD*
M02*
