G04 #@! TF.GenerationSoftware,KiCad,Pcbnew,(5.0.2)-1*
G04 #@! TF.CreationDate,2019-04-23T22:47:33-07:00*
G04 #@! TF.ProjectId,AergoPcb,41657267-6f50-4636-922e-6b696361645f,rev?*
G04 #@! TF.SameCoordinates,Original*
G04 #@! TF.FileFunction,Legend,Top*
G04 #@! TF.FilePolarity,Positive*
%FSLAX46Y46*%
G04 Gerber Fmt 4.6, Leading zero omitted, Abs format (unit mm)*
G04 Created by KiCad (PCBNEW (5.0.2)-1) date 4/23/2019 10:47:33 PM*
%MOMM*%
%LPD*%
G01*
G04 APERTURE LIST*
%ADD10C,0.300000*%
%ADD11C,0.010000*%
%ADD12C,4.387800*%
%ADD13C,2.150000*%
%ADD14C,3.448000*%
%ADD15C,1.187400*%
G04 APERTURE END LIST*
D10*
X227249885Y-173373171D02*
X227249885Y-171873171D01*
X227249885Y-172444600D02*
X227392742Y-172373171D01*
X227678457Y-172373171D01*
X227821314Y-172444600D01*
X227892742Y-172516028D01*
X227964171Y-172658885D01*
X227964171Y-173087457D01*
X227892742Y-173230314D01*
X227821314Y-173301742D01*
X227678457Y-173373171D01*
X227392742Y-173373171D01*
X227249885Y-173301742D01*
X228464171Y-172373171D02*
X228821314Y-173373171D01*
X229178457Y-172373171D02*
X228821314Y-173373171D01*
X228678457Y-173730314D01*
X228607028Y-173801742D01*
X228464171Y-173873171D01*
X230821314Y-172944600D02*
X231535600Y-172944600D01*
X230678457Y-173373171D02*
X231178457Y-171873171D01*
X231678457Y-173373171D01*
X232821314Y-173301742D02*
X232678457Y-173373171D01*
X232392742Y-173373171D01*
X232249885Y-173301742D01*
X232178457Y-173230314D01*
X232107028Y-173087457D01*
X232107028Y-172658885D01*
X232178457Y-172516028D01*
X232249885Y-172444600D01*
X232392742Y-172373171D01*
X232678457Y-172373171D01*
X232821314Y-172444600D01*
X234035600Y-173301742D02*
X233892742Y-173373171D01*
X233607028Y-173373171D01*
X233464171Y-173301742D01*
X233392742Y-173158885D01*
X233392742Y-172587457D01*
X233464171Y-172444600D01*
X233607028Y-172373171D01*
X233892742Y-172373171D01*
X234035600Y-172444600D01*
X234107028Y-172587457D01*
X234107028Y-172730314D01*
X233392742Y-172873171D01*
X235607028Y-173373171D02*
X235107028Y-172658885D01*
X234749885Y-173373171D02*
X234749885Y-171873171D01*
X235321314Y-171873171D01*
X235464171Y-171944600D01*
X235535600Y-172016028D01*
X235607028Y-172158885D01*
X235607028Y-172373171D01*
X235535600Y-172516028D01*
X235464171Y-172587457D01*
X235321314Y-172658885D01*
X234749885Y-172658885D01*
X236821314Y-173301742D02*
X236678457Y-173373171D01*
X236392742Y-173373171D01*
X236249885Y-173301742D01*
X236178457Y-173158885D01*
X236178457Y-172587457D01*
X236249885Y-172444600D01*
X236392742Y-172373171D01*
X236678457Y-172373171D01*
X236821314Y-172444600D01*
X236892742Y-172587457D01*
X236892742Y-172730314D01*
X236178457Y-172873171D01*
X238178457Y-173301742D02*
X238035600Y-173373171D01*
X237749885Y-173373171D01*
X237607028Y-173301742D01*
X237535600Y-173230314D01*
X237464171Y-173087457D01*
X237464171Y-172658885D01*
X237535600Y-172516028D01*
X237607028Y-172444600D01*
X237749885Y-172373171D01*
X238035600Y-172373171D01*
X238178457Y-172444600D01*
X239035600Y-173373171D02*
X238892742Y-173301742D01*
X238821314Y-173230314D01*
X238749885Y-173087457D01*
X238749885Y-172658885D01*
X238821314Y-172516028D01*
X238892742Y-172444600D01*
X239035600Y-172373171D01*
X239249885Y-172373171D01*
X239392742Y-172444600D01*
X239464171Y-172516028D01*
X239535600Y-172658885D01*
X239535600Y-173087457D01*
X239464171Y-173230314D01*
X239392742Y-173301742D01*
X239249885Y-173373171D01*
X239035600Y-173373171D01*
X240178457Y-172373171D02*
X240178457Y-173373171D01*
X240178457Y-172516028D02*
X240249885Y-172444600D01*
X240392742Y-172373171D01*
X240607028Y-172373171D01*
X240749885Y-172444600D01*
X240821314Y-172587457D01*
X240821314Y-173373171D01*
X227395685Y-169642600D02*
X228109971Y-169642600D01*
X227252828Y-170071171D02*
X227752828Y-168571171D01*
X228252828Y-170071171D01*
X228752828Y-169285457D02*
X229252828Y-169285457D01*
X229467114Y-170071171D02*
X228752828Y-170071171D01*
X228752828Y-168571171D01*
X229467114Y-168571171D01*
X230109971Y-170071171D02*
X230109971Y-169071171D01*
X230109971Y-169356885D02*
X230181400Y-169214028D01*
X230252828Y-169142600D01*
X230395685Y-169071171D01*
X230538542Y-169071171D01*
X231681400Y-169071171D02*
X231681400Y-170285457D01*
X231609971Y-170428314D01*
X231538542Y-170499742D01*
X231395685Y-170571171D01*
X231181400Y-170571171D01*
X231038542Y-170499742D01*
X231681400Y-169999742D02*
X231538542Y-170071171D01*
X231252828Y-170071171D01*
X231109971Y-169999742D01*
X231038542Y-169928314D01*
X230967114Y-169785457D01*
X230967114Y-169356885D01*
X231038542Y-169214028D01*
X231109971Y-169142600D01*
X231252828Y-169071171D01*
X231538542Y-169071171D01*
X231681400Y-169142600D01*
X232609971Y-170071171D02*
X232467114Y-169999742D01*
X232395685Y-169928314D01*
X232324257Y-169785457D01*
X232324257Y-169356885D01*
X232395685Y-169214028D01*
X232467114Y-169142600D01*
X232609971Y-169071171D01*
X232824257Y-169071171D01*
X232967114Y-169142600D01*
X233038542Y-169214028D01*
X233109971Y-169356885D01*
X233109971Y-169785457D01*
X233038542Y-169928314D01*
X232967114Y-169999742D01*
X232824257Y-170071171D01*
X232609971Y-170071171D01*
X234681400Y-168571171D02*
X235181400Y-170071171D01*
X235681400Y-168571171D01*
X236967114Y-170071171D02*
X236109971Y-170071171D01*
X236538542Y-170071171D02*
X236538542Y-168571171D01*
X236395685Y-168785457D01*
X236252828Y-168928314D01*
X236109971Y-168999742D01*
D11*
G04 #@! TO.C,G\002A\002A\002A*
G36*
X240734888Y-188477200D02*
X240764646Y-188485156D01*
X240748230Y-188530707D01*
X240705125Y-188625454D01*
X240644545Y-188749176D01*
X240642508Y-188753214D01*
X240533399Y-188929641D01*
X240371006Y-189137167D01*
X240178420Y-189349260D01*
X239836470Y-189703352D01*
X239693124Y-190171038D01*
X239596387Y-190484005D01*
X239517201Y-190732079D01*
X239451373Y-190925434D01*
X239394712Y-191074245D01*
X239343027Y-191188687D01*
X239292127Y-191278934D01*
X239237819Y-191355163D01*
X239175912Y-191427547D01*
X239175177Y-191428355D01*
X239090556Y-191514247D01*
X239031328Y-191560608D01*
X239010096Y-191557610D01*
X239010141Y-191557031D01*
X239012470Y-191481281D01*
X239011490Y-191368533D01*
X239010815Y-191342779D01*
X239006185Y-191187143D01*
X238830635Y-191387822D01*
X238731357Y-191492888D01*
X238635113Y-191569154D01*
X238517070Y-191632284D01*
X238352395Y-191697942D01*
X238320593Y-191709536D01*
X238163611Y-191763601D01*
X238028401Y-191805210D01*
X237936057Y-191828070D01*
X237914729Y-191830570D01*
X237847313Y-191864725D01*
X237798497Y-191938875D01*
X237755334Y-192004123D01*
X237675986Y-192095676D01*
X237578128Y-192196161D01*
X237479433Y-192288207D01*
X237397575Y-192354441D01*
X237352113Y-192377646D01*
X237324860Y-192346868D01*
X237310520Y-192315835D01*
X237295717Y-192239519D01*
X237287436Y-192123565D01*
X237286800Y-192082516D01*
X237270635Y-191944458D01*
X237213509Y-191813204D01*
X237159800Y-191730725D01*
X237032800Y-191550441D01*
X237034996Y-191256164D01*
X237217155Y-191256164D01*
X237236028Y-191403845D01*
X237247749Y-191439863D01*
X237278430Y-191504987D01*
X237305785Y-191528145D01*
X237336734Y-191501984D01*
X237378202Y-191419147D01*
X237437108Y-191272282D01*
X237458871Y-191215538D01*
X237501213Y-191111142D01*
X237546876Y-191019444D01*
X237603026Y-190934367D01*
X237676826Y-190849834D01*
X237775442Y-190759767D01*
X237906037Y-190658090D01*
X238075777Y-190538726D01*
X238291826Y-190395598D01*
X238561349Y-190222629D01*
X238829969Y-190052570D01*
X239104399Y-189878923D01*
X239322832Y-189738818D01*
X239495540Y-189624366D01*
X239632794Y-189527679D01*
X239744865Y-189440867D01*
X239842026Y-189356042D01*
X239934549Y-189265316D01*
X240032704Y-189160800D01*
X240127444Y-189056108D01*
X240496249Y-188645800D01*
X240297547Y-188633963D01*
X240149269Y-188634970D01*
X239987574Y-188657521D01*
X239801288Y-188704943D01*
X239579238Y-188780561D01*
X239310248Y-188887703D01*
X239013038Y-189016388D01*
X238809996Y-189105992D01*
X238632144Y-189183323D01*
X238491581Y-189243213D01*
X238400407Y-189280494D01*
X238371055Y-189290570D01*
X238353836Y-189255625D01*
X238338943Y-189167217D01*
X238334249Y-189114746D01*
X238322339Y-188938922D01*
X237946945Y-189300361D01*
X237800404Y-189444491D01*
X237669507Y-189578817D01*
X237567469Y-189689396D01*
X237507505Y-189762285D01*
X237503475Y-189768286D01*
X237436372Y-189907708D01*
X237373566Y-190100505D01*
X237317719Y-190329277D01*
X237271493Y-190576628D01*
X237237549Y-190825157D01*
X237218549Y-191057469D01*
X237217155Y-191256164D01*
X237034996Y-191256164D01*
X237036932Y-190996890D01*
X237047097Y-190646461D01*
X237076279Y-190349321D01*
X237131045Y-190092948D01*
X237217960Y-189864821D01*
X237343590Y-189652420D01*
X237514502Y-189443224D01*
X237737263Y-189224711D01*
X238018437Y-188984360D01*
X238146493Y-188881087D01*
X238478646Y-188616330D01*
X238490188Y-188852202D01*
X238501730Y-189088075D01*
X238920034Y-188890674D01*
X239212521Y-188756376D01*
X239454484Y-188655475D01*
X239663416Y-188582866D01*
X239856805Y-188533446D01*
X240052140Y-188502110D01*
X240266913Y-188483754D01*
X240325031Y-188480627D01*
X240499721Y-188474216D01*
X240641524Y-188473127D01*
X240734888Y-188477200D01*
X240734888Y-188477200D01*
G37*
X240734888Y-188477200D02*
X240764646Y-188485156D01*
X240748230Y-188530707D01*
X240705125Y-188625454D01*
X240644545Y-188749176D01*
X240642508Y-188753214D01*
X240533399Y-188929641D01*
X240371006Y-189137167D01*
X240178420Y-189349260D01*
X239836470Y-189703352D01*
X239693124Y-190171038D01*
X239596387Y-190484005D01*
X239517201Y-190732079D01*
X239451373Y-190925434D01*
X239394712Y-191074245D01*
X239343027Y-191188687D01*
X239292127Y-191278934D01*
X239237819Y-191355163D01*
X239175912Y-191427547D01*
X239175177Y-191428355D01*
X239090556Y-191514247D01*
X239031328Y-191560608D01*
X239010096Y-191557610D01*
X239010141Y-191557031D01*
X239012470Y-191481281D01*
X239011490Y-191368533D01*
X239010815Y-191342779D01*
X239006185Y-191187143D01*
X238830635Y-191387822D01*
X238731357Y-191492888D01*
X238635113Y-191569154D01*
X238517070Y-191632284D01*
X238352395Y-191697942D01*
X238320593Y-191709536D01*
X238163611Y-191763601D01*
X238028401Y-191805210D01*
X237936057Y-191828070D01*
X237914729Y-191830570D01*
X237847313Y-191864725D01*
X237798497Y-191938875D01*
X237755334Y-192004123D01*
X237675986Y-192095676D01*
X237578128Y-192196161D01*
X237479433Y-192288207D01*
X237397575Y-192354441D01*
X237352113Y-192377646D01*
X237324860Y-192346868D01*
X237310520Y-192315835D01*
X237295717Y-192239519D01*
X237287436Y-192123565D01*
X237286800Y-192082516D01*
X237270635Y-191944458D01*
X237213509Y-191813204D01*
X237159800Y-191730725D01*
X237032800Y-191550441D01*
X237034996Y-191256164D01*
X237217155Y-191256164D01*
X237236028Y-191403845D01*
X237247749Y-191439863D01*
X237278430Y-191504987D01*
X237305785Y-191528145D01*
X237336734Y-191501984D01*
X237378202Y-191419147D01*
X237437108Y-191272282D01*
X237458871Y-191215538D01*
X237501213Y-191111142D01*
X237546876Y-191019444D01*
X237603026Y-190934367D01*
X237676826Y-190849834D01*
X237775442Y-190759767D01*
X237906037Y-190658090D01*
X238075777Y-190538726D01*
X238291826Y-190395598D01*
X238561349Y-190222629D01*
X238829969Y-190052570D01*
X239104399Y-189878923D01*
X239322832Y-189738818D01*
X239495540Y-189624366D01*
X239632794Y-189527679D01*
X239744865Y-189440867D01*
X239842026Y-189356042D01*
X239934549Y-189265316D01*
X240032704Y-189160800D01*
X240127444Y-189056108D01*
X240496249Y-188645800D01*
X240297547Y-188633963D01*
X240149269Y-188634970D01*
X239987574Y-188657521D01*
X239801288Y-188704943D01*
X239579238Y-188780561D01*
X239310248Y-188887703D01*
X239013038Y-189016388D01*
X238809996Y-189105992D01*
X238632144Y-189183323D01*
X238491581Y-189243213D01*
X238400407Y-189280494D01*
X238371055Y-189290570D01*
X238353836Y-189255625D01*
X238338943Y-189167217D01*
X238334249Y-189114746D01*
X238322339Y-188938922D01*
X237946945Y-189300361D01*
X237800404Y-189444491D01*
X237669507Y-189578817D01*
X237567469Y-189689396D01*
X237507505Y-189762285D01*
X237503475Y-189768286D01*
X237436372Y-189907708D01*
X237373566Y-190100505D01*
X237317719Y-190329277D01*
X237271493Y-190576628D01*
X237237549Y-190825157D01*
X237218549Y-191057469D01*
X237217155Y-191256164D01*
X237034996Y-191256164D01*
X237036932Y-190996890D01*
X237047097Y-190646461D01*
X237076279Y-190349321D01*
X237131045Y-190092948D01*
X237217960Y-189864821D01*
X237343590Y-189652420D01*
X237514502Y-189443224D01*
X237737263Y-189224711D01*
X238018437Y-188984360D01*
X238146493Y-188881087D01*
X238478646Y-188616330D01*
X238490188Y-188852202D01*
X238501730Y-189088075D01*
X238920034Y-188890674D01*
X239212521Y-188756376D01*
X239454484Y-188655475D01*
X239663416Y-188582866D01*
X239856805Y-188533446D01*
X240052140Y-188502110D01*
X240266913Y-188483754D01*
X240325031Y-188480627D01*
X240499721Y-188474216D01*
X240641524Y-188473127D01*
X240734888Y-188477200D01*
G36*
X230612171Y-188474792D02*
X230770723Y-188480052D01*
X230991925Y-188494699D01*
X231186852Y-188520273D01*
X231373236Y-188561902D01*
X231568812Y-188624716D01*
X231791314Y-188713843D01*
X232058473Y-188834412D01*
X232157954Y-188881260D01*
X232597570Y-189089752D01*
X232597570Y-188858007D01*
X232600925Y-188735143D01*
X232609637Y-188651119D01*
X232619479Y-188626262D01*
X232665976Y-188651084D01*
X232757733Y-188718646D01*
X232882662Y-188818595D01*
X233028673Y-188940576D01*
X233183678Y-189074235D01*
X233335587Y-189209217D01*
X233472312Y-189335169D01*
X233581763Y-189441736D01*
X233625873Y-189488242D01*
X233805199Y-189732949D01*
X233938379Y-190022556D01*
X234027239Y-190363280D01*
X234073605Y-190761338D01*
X234081814Y-191040517D01*
X234075135Y-191287784D01*
X234050920Y-191477364D01*
X234004333Y-191628686D01*
X233930538Y-191761177D01*
X233888148Y-191818585D01*
X233831815Y-191927333D01*
X233809840Y-192077989D01*
X233808954Y-192126610D01*
X233802696Y-192246997D01*
X233786642Y-192332140D01*
X233772990Y-192356184D01*
X233726201Y-192345055D01*
X233641864Y-192293420D01*
X233561601Y-192231490D01*
X233449680Y-192125807D01*
X233353895Y-192014983D01*
X233315140Y-191957570D01*
X233251751Y-191874063D01*
X233187045Y-191831832D01*
X233176880Y-191830570D01*
X233111519Y-191817773D01*
X232993870Y-191783560D01*
X232844732Y-191734198D01*
X232775162Y-191709536D01*
X232600883Y-191642053D01*
X232477145Y-191579564D01*
X232379116Y-191506405D01*
X232281963Y-191406912D01*
X232265119Y-191387822D01*
X232089570Y-191187143D01*
X232089570Y-191609731D01*
X231989439Y-191515663D01*
X231916384Y-191439400D01*
X231850879Y-191350845D01*
X231787982Y-191239166D01*
X231722747Y-191093534D01*
X231650233Y-190903119D01*
X231565495Y-190657091D01*
X231484356Y-190409151D01*
X231243242Y-189661800D01*
X230926562Y-189354726D01*
X230694705Y-189108570D01*
X230526212Y-188879420D01*
X230470496Y-188782396D01*
X230403960Y-188652298D01*
X230400851Y-188645800D01*
X230605132Y-188645800D01*
X230966279Y-189048471D01*
X231072019Y-189165299D01*
X231165032Y-189263525D01*
X231255034Y-189350574D01*
X231351740Y-189433870D01*
X231464864Y-189520837D01*
X231604122Y-189618899D01*
X231779228Y-189735481D01*
X231999898Y-189878006D01*
X232275847Y-190053899D01*
X232312063Y-190076919D01*
X232568158Y-190241767D01*
X232808595Y-190400479D01*
X233023675Y-190546348D01*
X233203702Y-190672666D01*
X233338979Y-190772726D01*
X233419808Y-190839823D01*
X233429751Y-190849968D01*
X233511659Y-190962885D01*
X233598105Y-191116890D01*
X233669816Y-191277292D01*
X233724196Y-191407097D01*
X233772110Y-191499332D01*
X233804845Y-191537754D01*
X233809268Y-191537299D01*
X233835316Y-191490476D01*
X233866500Y-191392597D01*
X233884199Y-191319112D01*
X233902587Y-191187775D01*
X233902982Y-191036128D01*
X233883944Y-190851340D01*
X233844037Y-190620585D01*
X233781822Y-190331032D01*
X233765539Y-190260487D01*
X233708752Y-190052551D01*
X233637962Y-189876185D01*
X233542242Y-189714709D01*
X233410668Y-189551444D01*
X233232314Y-189369708D01*
X233103339Y-189249456D01*
X232753877Y-188930420D01*
X232753877Y-189110495D01*
X232749570Y-189216858D01*
X232738645Y-189281502D01*
X232731716Y-189290570D01*
X232690437Y-189275595D01*
X232589657Y-189234056D01*
X232441337Y-189171027D01*
X232257438Y-189091583D01*
X232082287Y-189015029D01*
X231763104Y-188878434D01*
X231501622Y-188775469D01*
X231286676Y-188702813D01*
X231107100Y-188657145D01*
X230951728Y-188635143D01*
X230809393Y-188633488D01*
X230801021Y-188633963D01*
X230605132Y-188645800D01*
X230400851Y-188645800D01*
X230354697Y-188549342D01*
X230331748Y-188492580D01*
X230331108Y-188488630D01*
X230367523Y-188478951D01*
X230466396Y-188474237D01*
X230612171Y-188474792D01*
X230612171Y-188474792D01*
G37*
X230612171Y-188474792D02*
X230770723Y-188480052D01*
X230991925Y-188494699D01*
X231186852Y-188520273D01*
X231373236Y-188561902D01*
X231568812Y-188624716D01*
X231791314Y-188713843D01*
X232058473Y-188834412D01*
X232157954Y-188881260D01*
X232597570Y-189089752D01*
X232597570Y-188858007D01*
X232600925Y-188735143D01*
X232609637Y-188651119D01*
X232619479Y-188626262D01*
X232665976Y-188651084D01*
X232757733Y-188718646D01*
X232882662Y-188818595D01*
X233028673Y-188940576D01*
X233183678Y-189074235D01*
X233335587Y-189209217D01*
X233472312Y-189335169D01*
X233581763Y-189441736D01*
X233625873Y-189488242D01*
X233805199Y-189732949D01*
X233938379Y-190022556D01*
X234027239Y-190363280D01*
X234073605Y-190761338D01*
X234081814Y-191040517D01*
X234075135Y-191287784D01*
X234050920Y-191477364D01*
X234004333Y-191628686D01*
X233930538Y-191761177D01*
X233888148Y-191818585D01*
X233831815Y-191927333D01*
X233809840Y-192077989D01*
X233808954Y-192126610D01*
X233802696Y-192246997D01*
X233786642Y-192332140D01*
X233772990Y-192356184D01*
X233726201Y-192345055D01*
X233641864Y-192293420D01*
X233561601Y-192231490D01*
X233449680Y-192125807D01*
X233353895Y-192014983D01*
X233315140Y-191957570D01*
X233251751Y-191874063D01*
X233187045Y-191831832D01*
X233176880Y-191830570D01*
X233111519Y-191817773D01*
X232993870Y-191783560D01*
X232844732Y-191734198D01*
X232775162Y-191709536D01*
X232600883Y-191642053D01*
X232477145Y-191579564D01*
X232379116Y-191506405D01*
X232281963Y-191406912D01*
X232265119Y-191387822D01*
X232089570Y-191187143D01*
X232089570Y-191609731D01*
X231989439Y-191515663D01*
X231916384Y-191439400D01*
X231850879Y-191350845D01*
X231787982Y-191239166D01*
X231722747Y-191093534D01*
X231650233Y-190903119D01*
X231565495Y-190657091D01*
X231484356Y-190409151D01*
X231243242Y-189661800D01*
X230926562Y-189354726D01*
X230694705Y-189108570D01*
X230526212Y-188879420D01*
X230470496Y-188782396D01*
X230403960Y-188652298D01*
X230400851Y-188645800D01*
X230605132Y-188645800D01*
X230966279Y-189048471D01*
X231072019Y-189165299D01*
X231165032Y-189263525D01*
X231255034Y-189350574D01*
X231351740Y-189433870D01*
X231464864Y-189520837D01*
X231604122Y-189618899D01*
X231779228Y-189735481D01*
X231999898Y-189878006D01*
X232275847Y-190053899D01*
X232312063Y-190076919D01*
X232568158Y-190241767D01*
X232808595Y-190400479D01*
X233023675Y-190546348D01*
X233203702Y-190672666D01*
X233338979Y-190772726D01*
X233419808Y-190839823D01*
X233429751Y-190849968D01*
X233511659Y-190962885D01*
X233598105Y-191116890D01*
X233669816Y-191277292D01*
X233724196Y-191407097D01*
X233772110Y-191499332D01*
X233804845Y-191537754D01*
X233809268Y-191537299D01*
X233835316Y-191490476D01*
X233866500Y-191392597D01*
X233884199Y-191319112D01*
X233902587Y-191187775D01*
X233902982Y-191036128D01*
X233883944Y-190851340D01*
X233844037Y-190620585D01*
X233781822Y-190331032D01*
X233765539Y-190260487D01*
X233708752Y-190052551D01*
X233637962Y-189876185D01*
X233542242Y-189714709D01*
X233410668Y-189551444D01*
X233232314Y-189369708D01*
X233103339Y-189249456D01*
X232753877Y-188930420D01*
X232753877Y-189110495D01*
X232749570Y-189216858D01*
X232738645Y-189281502D01*
X232731716Y-189290570D01*
X232690437Y-189275595D01*
X232589657Y-189234056D01*
X232441337Y-189171027D01*
X232257438Y-189091583D01*
X232082287Y-189015029D01*
X231763104Y-188878434D01*
X231501622Y-188775469D01*
X231286676Y-188702813D01*
X231107100Y-188657145D01*
X230951728Y-188635143D01*
X230809393Y-188633488D01*
X230801021Y-188633963D01*
X230605132Y-188645800D01*
X230400851Y-188645800D01*
X230354697Y-188549342D01*
X230331748Y-188492580D01*
X230331108Y-188488630D01*
X230367523Y-188478951D01*
X230466396Y-188474237D01*
X230612171Y-188474792D01*
G36*
X237275505Y-195066145D02*
X237322796Y-195118146D01*
X237368157Y-195208862D01*
X237412500Y-195336385D01*
X237426842Y-195439797D01*
X237422736Y-195467348D01*
X237369266Y-195548886D01*
X237265775Y-195647689D01*
X237133162Y-195748192D01*
X236992331Y-195834827D01*
X236864182Y-195892027D01*
X236844753Y-195897814D01*
X236660880Y-195958258D01*
X236526995Y-196034561D01*
X236414980Y-196145320D01*
X236358345Y-196219489D01*
X236272832Y-196347588D01*
X236238511Y-196427572D01*
X236253957Y-196469112D01*
X236317743Y-196481881D01*
X236319646Y-196481912D01*
X236372771Y-196490969D01*
X236362490Y-196511827D01*
X236301532Y-196538625D01*
X236202622Y-196565500D01*
X236097780Y-196584087D01*
X235989013Y-196596329D01*
X235936781Y-196587376D01*
X235920373Y-196547905D01*
X235919108Y-196503633D01*
X235947294Y-196375307D01*
X236025142Y-196210057D01*
X236142580Y-196021362D01*
X236289542Y-195822701D01*
X236455957Y-195627552D01*
X236631757Y-195449395D01*
X236806874Y-195301708D01*
X236829159Y-195285381D01*
X237003375Y-195163071D01*
X237127820Y-195086900D01*
X237214522Y-195055160D01*
X237275505Y-195066145D01*
X237275505Y-195066145D01*
G37*
X237275505Y-195066145D02*
X237322796Y-195118146D01*
X237368157Y-195208862D01*
X237412500Y-195336385D01*
X237426842Y-195439797D01*
X237422736Y-195467348D01*
X237369266Y-195548886D01*
X237265775Y-195647689D01*
X237133162Y-195748192D01*
X236992331Y-195834827D01*
X236864182Y-195892027D01*
X236844753Y-195897814D01*
X236660880Y-195958258D01*
X236526995Y-196034561D01*
X236414980Y-196145320D01*
X236358345Y-196219489D01*
X236272832Y-196347588D01*
X236238511Y-196427572D01*
X236253957Y-196469112D01*
X236317743Y-196481881D01*
X236319646Y-196481912D01*
X236372771Y-196490969D01*
X236362490Y-196511827D01*
X236301532Y-196538625D01*
X236202622Y-196565500D01*
X236097780Y-196584087D01*
X235989013Y-196596329D01*
X235936781Y-196587376D01*
X235920373Y-196547905D01*
X235919108Y-196503633D01*
X235947294Y-196375307D01*
X236025142Y-196210057D01*
X236142580Y-196021362D01*
X236289542Y-195822701D01*
X236455957Y-195627552D01*
X236631757Y-195449395D01*
X236806874Y-195301708D01*
X236829159Y-195285381D01*
X237003375Y-195163071D01*
X237127820Y-195086900D01*
X237214522Y-195055160D01*
X237275505Y-195066145D01*
G36*
X233947208Y-195055506D02*
X234047101Y-195111595D01*
X234177806Y-195193298D01*
X234265661Y-195251624D01*
X234449020Y-195385457D01*
X234598356Y-195520321D01*
X234740375Y-195682241D01*
X234837208Y-195808637D01*
X234990879Y-196021725D01*
X235099486Y-196186780D01*
X235169103Y-196314873D01*
X235205805Y-196417071D01*
X235215723Y-196498321D01*
X235202650Y-196570901D01*
X235147426Y-196594139D01*
X235108262Y-196594430D01*
X234994384Y-196580408D01*
X234867788Y-196551406D01*
X234864031Y-196550301D01*
X234787448Y-196520002D01*
X234776013Y-196496585D01*
X234785877Y-196492114D01*
X234872433Y-196465703D01*
X234895038Y-196458663D01*
X234900855Y-196423550D01*
X234865349Y-196348767D01*
X234801057Y-196251277D01*
X234720516Y-196148041D01*
X234636264Y-196056020D01*
X234560838Y-195992177D01*
X234542134Y-195981218D01*
X234447206Y-195943123D01*
X234321671Y-195903752D01*
X234288985Y-195895055D01*
X234151784Y-195837912D01*
X233997886Y-195740918D01*
X233854703Y-195624484D01*
X233749649Y-195509017D01*
X233730652Y-195479377D01*
X233707503Y-195413842D01*
X233717218Y-195335322D01*
X233763187Y-195216747D01*
X233763691Y-195215608D01*
X233818810Y-195111960D01*
X233871443Y-195046502D01*
X233894680Y-195034710D01*
X233947208Y-195055506D01*
X233947208Y-195055506D01*
G37*
X233947208Y-195055506D02*
X234047101Y-195111595D01*
X234177806Y-195193298D01*
X234265661Y-195251624D01*
X234449020Y-195385457D01*
X234598356Y-195520321D01*
X234740375Y-195682241D01*
X234837208Y-195808637D01*
X234990879Y-196021725D01*
X235099486Y-196186780D01*
X235169103Y-196314873D01*
X235205805Y-196417071D01*
X235215723Y-196498321D01*
X235202650Y-196570901D01*
X235147426Y-196594139D01*
X235108262Y-196594430D01*
X234994384Y-196580408D01*
X234867788Y-196551406D01*
X234864031Y-196550301D01*
X234787448Y-196520002D01*
X234776013Y-196496585D01*
X234785877Y-196492114D01*
X234872433Y-196465703D01*
X234895038Y-196458663D01*
X234900855Y-196423550D01*
X234865349Y-196348767D01*
X234801057Y-196251277D01*
X234720516Y-196148041D01*
X234636264Y-196056020D01*
X234560838Y-195992177D01*
X234542134Y-195981218D01*
X234447206Y-195943123D01*
X234321671Y-195903752D01*
X234288985Y-195895055D01*
X234151784Y-195837912D01*
X233997886Y-195740918D01*
X233854703Y-195624484D01*
X233749649Y-195509017D01*
X233730652Y-195479377D01*
X233707503Y-195413842D01*
X233717218Y-195335322D01*
X233763187Y-195216747D01*
X233763691Y-195215608D01*
X233818810Y-195111960D01*
X233871443Y-195046502D01*
X233894680Y-195034710D01*
X233947208Y-195055506D01*
G36*
X237274375Y-193956992D02*
X237364434Y-193999565D01*
X237480042Y-194056872D01*
X237594198Y-194117145D01*
X237669976Y-194171334D01*
X237724337Y-194239991D01*
X237774240Y-194343666D01*
X237826691Y-194476949D01*
X237912798Y-194710061D01*
X237972500Y-194897485D01*
X238012064Y-195064528D01*
X238037754Y-195236501D01*
X238051896Y-195386570D01*
X238075071Y-195679646D01*
X237696899Y-196226723D01*
X237569971Y-196409572D01*
X237457065Y-196570777D01*
X237366237Y-196698947D01*
X237305546Y-196782692D01*
X237284603Y-196809546D01*
X237288421Y-196786991D01*
X237319265Y-196703000D01*
X237373045Y-196567828D01*
X237445672Y-196391731D01*
X237533057Y-196184964D01*
X237541688Y-196164776D01*
X237633607Y-195945436D01*
X237713654Y-195745753D01*
X237776913Y-195578712D01*
X237818463Y-195457299D01*
X237833387Y-195394675D01*
X237820656Y-195300799D01*
X237785756Y-195160673D01*
X237734695Y-194991208D01*
X237673481Y-194809317D01*
X237608122Y-194631912D01*
X237544626Y-194475904D01*
X237489000Y-194358205D01*
X237447253Y-194295727D01*
X237441503Y-194291556D01*
X237387814Y-194274601D01*
X237323076Y-194283280D01*
X237235463Y-194323250D01*
X237113151Y-194400167D01*
X236944313Y-194519690D01*
X236905800Y-194547828D01*
X236791250Y-194629114D01*
X236705502Y-194684852D01*
X236663489Y-194705492D01*
X236661570Y-194704042D01*
X236683482Y-194665724D01*
X236741765Y-194581394D01*
X236825233Y-194465964D01*
X236922702Y-194334346D01*
X237022989Y-194201453D01*
X237114909Y-194082195D01*
X237187279Y-193991487D01*
X237228913Y-193944238D01*
X237234061Y-193940723D01*
X237274375Y-193956992D01*
X237274375Y-193956992D01*
G37*
X237274375Y-193956992D02*
X237364434Y-193999565D01*
X237480042Y-194056872D01*
X237594198Y-194117145D01*
X237669976Y-194171334D01*
X237724337Y-194239991D01*
X237774240Y-194343666D01*
X237826691Y-194476949D01*
X237912798Y-194710061D01*
X237972500Y-194897485D01*
X238012064Y-195064528D01*
X238037754Y-195236501D01*
X238051896Y-195386570D01*
X238075071Y-195679646D01*
X237696899Y-196226723D01*
X237569971Y-196409572D01*
X237457065Y-196570777D01*
X237366237Y-196698947D01*
X237305546Y-196782692D01*
X237284603Y-196809546D01*
X237288421Y-196786991D01*
X237319265Y-196703000D01*
X237373045Y-196567828D01*
X237445672Y-196391731D01*
X237533057Y-196184964D01*
X237541688Y-196164776D01*
X237633607Y-195945436D01*
X237713654Y-195745753D01*
X237776913Y-195578712D01*
X237818463Y-195457299D01*
X237833387Y-195394675D01*
X237820656Y-195300799D01*
X237785756Y-195160673D01*
X237734695Y-194991208D01*
X237673481Y-194809317D01*
X237608122Y-194631912D01*
X237544626Y-194475904D01*
X237489000Y-194358205D01*
X237447253Y-194295727D01*
X237441503Y-194291556D01*
X237387814Y-194274601D01*
X237323076Y-194283280D01*
X237235463Y-194323250D01*
X237113151Y-194400167D01*
X236944313Y-194519690D01*
X236905800Y-194547828D01*
X236791250Y-194629114D01*
X236705502Y-194684852D01*
X236663489Y-194705492D01*
X236661570Y-194704042D01*
X236683482Y-194665724D01*
X236741765Y-194581394D01*
X236825233Y-194465964D01*
X236922702Y-194334346D01*
X237022989Y-194201453D01*
X237114909Y-194082195D01*
X237187279Y-193991487D01*
X237228913Y-193944238D01*
X237234061Y-193940723D01*
X237274375Y-193956992D01*
G36*
X234179609Y-194333243D02*
X234290542Y-194479989D01*
X234379376Y-194601407D01*
X234437826Y-194685874D01*
X234457606Y-194721769D01*
X234456931Y-194722262D01*
X234418483Y-194700902D01*
X234330882Y-194643156D01*
X234208239Y-194558528D01*
X234100856Y-194482491D01*
X233936571Y-194367891D01*
X233812737Y-194296322D01*
X233719109Y-194272867D01*
X233645445Y-194302608D01*
X233581501Y-194390629D01*
X233517032Y-194542011D01*
X233441795Y-194761838D01*
X233423153Y-194818751D01*
X233362907Y-195008499D01*
X233312893Y-195176329D01*
X233277780Y-195305801D01*
X233262237Y-195380480D01*
X233261877Y-195386559D01*
X233276200Y-195437962D01*
X233315358Y-195547167D01*
X233373634Y-195700041D01*
X233445310Y-195882453D01*
X233524670Y-196080270D01*
X233605995Y-196279360D01*
X233683569Y-196465589D01*
X233751674Y-196624826D01*
X233804594Y-196742938D01*
X233834939Y-196803108D01*
X233839029Y-196831983D01*
X233836532Y-196832416D01*
X233808836Y-196802364D01*
X233749360Y-196722443D01*
X233669385Y-196608004D01*
X233642684Y-196568646D01*
X233536530Y-196412055D01*
X233408281Y-196224247D01*
X233280461Y-196038175D01*
X233240235Y-195979906D01*
X233015523Y-195654935D01*
X233061825Y-195278171D01*
X233090824Y-195108943D01*
X233137267Y-194911911D01*
X233195322Y-194705530D01*
X233259157Y-194508253D01*
X233322939Y-194338535D01*
X233380835Y-194214832D01*
X233412854Y-194167505D01*
X233459483Y-194138348D01*
X233555646Y-194089976D01*
X233659571Y-194042255D01*
X233881419Y-193944225D01*
X234179609Y-194333243D01*
X234179609Y-194333243D01*
G37*
X234179609Y-194333243D02*
X234290542Y-194479989D01*
X234379376Y-194601407D01*
X234437826Y-194685874D01*
X234457606Y-194721769D01*
X234456931Y-194722262D01*
X234418483Y-194700902D01*
X234330882Y-194643156D01*
X234208239Y-194558528D01*
X234100856Y-194482491D01*
X233936571Y-194367891D01*
X233812737Y-194296322D01*
X233719109Y-194272867D01*
X233645445Y-194302608D01*
X233581501Y-194390629D01*
X233517032Y-194542011D01*
X233441795Y-194761838D01*
X233423153Y-194818751D01*
X233362907Y-195008499D01*
X233312893Y-195176329D01*
X233277780Y-195305801D01*
X233262237Y-195380480D01*
X233261877Y-195386559D01*
X233276200Y-195437962D01*
X233315358Y-195547167D01*
X233373634Y-195700041D01*
X233445310Y-195882453D01*
X233524670Y-196080270D01*
X233605995Y-196279360D01*
X233683569Y-196465589D01*
X233751674Y-196624826D01*
X233804594Y-196742938D01*
X233834939Y-196803108D01*
X233839029Y-196831983D01*
X233836532Y-196832416D01*
X233808836Y-196802364D01*
X233749360Y-196722443D01*
X233669385Y-196608004D01*
X233642684Y-196568646D01*
X233536530Y-196412055D01*
X233408281Y-196224247D01*
X233280461Y-196038175D01*
X233240235Y-195979906D01*
X233015523Y-195654935D01*
X233061825Y-195278171D01*
X233090824Y-195108943D01*
X233137267Y-194911911D01*
X233195322Y-194705530D01*
X233259157Y-194508253D01*
X233322939Y-194338535D01*
X233380835Y-194214832D01*
X233412854Y-194167505D01*
X233459483Y-194138348D01*
X233555646Y-194089976D01*
X233659571Y-194042255D01*
X233881419Y-193944225D01*
X234179609Y-194333243D01*
G36*
X242834700Y-175250759D02*
X242792530Y-175323719D01*
X242723003Y-175421851D01*
X242639233Y-175541185D01*
X242575713Y-175657685D01*
X242526395Y-175789256D01*
X242485229Y-175953806D01*
X242446168Y-176169239D01*
X242425306Y-176303160D01*
X242398291Y-176502151D01*
X242380693Y-176688909D01*
X242373105Y-176875588D01*
X242376120Y-177074347D01*
X242390332Y-177297340D01*
X242416335Y-177556725D01*
X242454720Y-177864658D01*
X242506082Y-178233295D01*
X242526287Y-178372435D01*
X242596350Y-178877686D01*
X242648789Y-179316855D01*
X242684637Y-179699752D01*
X242704926Y-180036191D01*
X242706851Y-180087954D01*
X242711502Y-180373355D01*
X242708467Y-180696106D01*
X242698633Y-181038311D01*
X242682890Y-181382073D01*
X242662126Y-181709495D01*
X242637228Y-182002683D01*
X242609086Y-182243739D01*
X242595518Y-182330906D01*
X242573441Y-182423275D01*
X242529007Y-182579922D01*
X242465238Y-182791208D01*
X242385156Y-183047494D01*
X242291783Y-183339140D01*
X242188141Y-183656505D01*
X242077251Y-183989951D01*
X242050390Y-184069829D01*
X241548638Y-185558723D01*
X241667505Y-185657745D01*
X241723231Y-185708089D01*
X241755991Y-185757465D01*
X241765480Y-185821106D01*
X241751395Y-185914243D01*
X241713429Y-186052109D01*
X241655950Y-186235296D01*
X241618219Y-186362547D01*
X241595593Y-186457019D01*
X241592890Y-186497685D01*
X241622903Y-186475257D01*
X241697454Y-186403565D01*
X241808312Y-186290991D01*
X241947246Y-186145919D01*
X242106024Y-185976732D01*
X242134214Y-185946373D01*
X242418557Y-185630684D01*
X242691886Y-185307459D01*
X242963760Y-184964263D01*
X243243736Y-184588663D01*
X243541373Y-184168226D01*
X243851723Y-183712178D01*
X243988238Y-183510826D01*
X244111506Y-183333494D01*
X244214554Y-183189853D01*
X244290410Y-183089571D01*
X244332101Y-183042316D01*
X244336548Y-183039905D01*
X244346224Y-183076343D01*
X244352119Y-183178565D01*
X244354554Y-183334307D01*
X244353853Y-183531309D01*
X244350337Y-183757307D01*
X244344328Y-184000039D01*
X244336150Y-184247242D01*
X244326125Y-184486655D01*
X244314574Y-184706014D01*
X244301821Y-184893058D01*
X244288188Y-185035524D01*
X244283076Y-185073877D01*
X244240288Y-185280459D01*
X244167675Y-185541625D01*
X244070695Y-185842220D01*
X243954805Y-186167093D01*
X243825463Y-186501090D01*
X243688130Y-186829059D01*
X243548262Y-187135847D01*
X243517222Y-187199954D01*
X243418829Y-187382844D01*
X243298684Y-187569887D01*
X243145868Y-187776622D01*
X242949462Y-188018588D01*
X242904675Y-188071766D01*
X242755292Y-188248552D01*
X242618966Y-188410396D01*
X242505669Y-188545420D01*
X242425375Y-188641746D01*
X242392561Y-188681759D01*
X242367817Y-188717493D01*
X242350451Y-188760973D01*
X242340009Y-188823761D01*
X242336040Y-188917416D01*
X242338090Y-189053496D01*
X242345708Y-189243563D01*
X242358440Y-189499175D01*
X242359649Y-189522471D01*
X242372930Y-189756859D01*
X242386750Y-189963807D01*
X242400109Y-190130900D01*
X242412004Y-190245720D01*
X242421437Y-190295852D01*
X242422040Y-190296681D01*
X242462668Y-190287044D01*
X242550247Y-190240893D01*
X242668229Y-190167271D01*
X242708952Y-190139900D01*
X242865531Y-190022307D01*
X243006297Y-189890503D01*
X243143043Y-189730570D01*
X243287561Y-189528591D01*
X243451642Y-189270647D01*
X243467574Y-189244537D01*
X243665464Y-188919339D01*
X243640051Y-189434757D01*
X243593001Y-189937383D01*
X243503733Y-190376158D01*
X243370864Y-190753871D01*
X243193011Y-191073309D01*
X242968791Y-191337258D01*
X242696821Y-191548507D01*
X242550026Y-191631439D01*
X242399654Y-191715835D01*
X242309061Y-191793465D01*
X242264023Y-191882701D01*
X242250316Y-192001913D01*
X242250103Y-192018818D01*
X242261751Y-192083583D01*
X242312935Y-192089484D01*
X242337493Y-192082823D01*
X242635734Y-191970963D01*
X242934053Y-191820581D01*
X243196908Y-191650055D01*
X243242194Y-191615070D01*
X243363015Y-191520414D01*
X243458181Y-191449422D01*
X243513440Y-191412561D01*
X243521499Y-191409912D01*
X243525267Y-191459041D01*
X243511388Y-191561629D01*
X243484566Y-191696242D01*
X243449505Y-191841449D01*
X243410908Y-191975816D01*
X243376336Y-192071396D01*
X243276724Y-192236727D01*
X243120933Y-192416726D01*
X242925565Y-192597585D01*
X242707223Y-192765496D01*
X242482509Y-192906652D01*
X242268027Y-193007245D01*
X242238435Y-193017755D01*
X242120779Y-193054520D01*
X242030377Y-193077344D01*
X242003333Y-193081031D01*
X241960392Y-193112383D01*
X241894645Y-193194452D01*
X241822630Y-193305723D01*
X241748987Y-193409349D01*
X241622963Y-193561209D01*
X241449227Y-193756118D01*
X241232447Y-193988894D01*
X240977293Y-194254352D01*
X240863521Y-194370570D01*
X240573841Y-194670282D01*
X240291607Y-194972243D01*
X240023547Y-195268575D01*
X239776386Y-195551399D01*
X239556851Y-195812838D01*
X239371668Y-196045015D01*
X239227564Y-196240052D01*
X239131263Y-196390071D01*
X239117646Y-196415308D01*
X239071285Y-196534982D01*
X239051838Y-196646433D01*
X239052722Y-196669308D01*
X239068127Y-196727076D01*
X239109477Y-196771844D01*
X239193085Y-196815021D01*
X239335259Y-196868015D01*
X239338339Y-196869089D01*
X239461322Y-196908146D01*
X239582121Y-196936148D01*
X239719275Y-196955462D01*
X239891323Y-196968456D01*
X240116806Y-196977498D01*
X240206998Y-196980042D01*
X240802119Y-196995707D01*
X240747151Y-197102004D01*
X240623429Y-197275515D01*
X240437287Y-197449053D01*
X240203478Y-197610287D01*
X240022185Y-197707864D01*
X239872044Y-197779032D01*
X239759928Y-197824745D01*
X239660634Y-197850047D01*
X239548960Y-197859981D01*
X239399706Y-197859591D01*
X239279723Y-197856445D01*
X239097959Y-197850852D01*
X238936583Y-197844993D01*
X238817264Y-197839701D01*
X238771868Y-197836906D01*
X238717070Y-197838221D01*
X238684660Y-197865274D01*
X238665040Y-197935645D01*
X238649183Y-198061623D01*
X238625175Y-198203526D01*
X238579281Y-198310537D01*
X238496945Y-198402305D01*
X238363611Y-198498480D01*
X238293031Y-198542408D01*
X238218938Y-198593825D01*
X238185703Y-198629497D01*
X238185570Y-198630729D01*
X238204887Y-198673773D01*
X238254730Y-198760722D01*
X238303350Y-198839450D01*
X238374558Y-198939658D01*
X238452362Y-199015153D01*
X238551751Y-199073130D01*
X238687714Y-199120786D01*
X238875240Y-199165315D01*
X239055031Y-199200303D01*
X239215728Y-199232111D01*
X239342903Y-199261118D01*
X239420176Y-199283364D01*
X239435885Y-199292371D01*
X239417286Y-199336443D01*
X239371295Y-199419126D01*
X239356421Y-199443899D01*
X239261394Y-199546467D01*
X239108025Y-199652983D01*
X238915117Y-199754883D01*
X238701473Y-199843600D01*
X238485897Y-199910571D01*
X238287191Y-199947228D01*
X238244185Y-199950560D01*
X238074203Y-199952059D01*
X237907196Y-199941668D01*
X237797087Y-199925066D01*
X237623527Y-199885361D01*
X237326902Y-200201726D01*
X237030277Y-200518092D01*
X236318174Y-200280338D01*
X235606071Y-200042583D01*
X234913887Y-200274115D01*
X234693330Y-200347146D01*
X234497432Y-200410606D01*
X234338555Y-200460602D01*
X234229059Y-200493246D01*
X234181406Y-200504648D01*
X234139897Y-200477039D01*
X234059072Y-200403143D01*
X233951578Y-200295049D01*
X233858508Y-200196028D01*
X233575908Y-199888405D01*
X233409123Y-199926588D01*
X233120195Y-199957266D01*
X232805407Y-199927804D01*
X232485566Y-199840755D01*
X232385167Y-199800991D01*
X232200405Y-199709814D01*
X232033412Y-199605507D01*
X231897987Y-199498871D01*
X231807927Y-199400708D01*
X231776954Y-199324816D01*
X231799012Y-199290661D01*
X231871920Y-199258519D01*
X232005781Y-199224853D01*
X232134126Y-199199769D01*
X232309368Y-199164427D01*
X232470056Y-199126270D01*
X232590012Y-199091718D01*
X232620165Y-199080580D01*
X232708918Y-199022737D01*
X232808837Y-198928113D01*
X232901144Y-198818662D01*
X232967064Y-198716335D01*
X232988339Y-198650125D01*
X232958332Y-198605676D01*
X232879960Y-198535005D01*
X232778878Y-198459607D01*
X232665746Y-198378648D01*
X232600882Y-198314404D01*
X232567789Y-198239843D01*
X232549971Y-198127937D01*
X232544326Y-198075277D01*
X232529766Y-197948436D01*
X232516940Y-197858154D01*
X232509555Y-197826438D01*
X232469173Y-197826296D01*
X232367837Y-197832862D01*
X232222346Y-197844913D01*
X232101871Y-197856089D01*
X231902051Y-197872586D01*
X231754423Y-197876131D01*
X231633931Y-197865650D01*
X231515520Y-197840068D01*
X231476640Y-197829283D01*
X231253734Y-197748597D01*
X231028493Y-197638444D01*
X230826321Y-197513016D01*
X230801700Y-197492750D01*
X232912669Y-197492750D01*
X232914198Y-197583382D01*
X232921495Y-197673170D01*
X232966723Y-197855612D01*
X233060325Y-198065292D01*
X233189268Y-198281101D01*
X233340522Y-198481928D01*
X233501054Y-198646664D01*
X233544508Y-198682379D01*
X233726690Y-198862375D01*
X233850868Y-199069191D01*
X233909999Y-199288131D01*
X233908728Y-199442148D01*
X233899220Y-199541314D01*
X233908340Y-199617180D01*
X233945271Y-199694100D01*
X234019196Y-199796428D01*
X234063666Y-199853071D01*
X234178494Y-199985752D01*
X234261907Y-200052667D01*
X234309297Y-200061247D01*
X234368644Y-200046376D01*
X234489547Y-200017297D01*
X234657432Y-199977473D01*
X234857726Y-199930369D01*
X234989979Y-199899450D01*
X235604389Y-199756133D01*
X236276138Y-199917393D01*
X236494549Y-199967833D01*
X236686258Y-200008327D01*
X236838587Y-200036504D01*
X236938860Y-200049991D01*
X236973898Y-200047919D01*
X237104108Y-199890826D01*
X237191399Y-199772156D01*
X237245101Y-199672210D01*
X237274541Y-199571287D01*
X237289047Y-199449685D01*
X237293750Y-199372416D01*
X237318374Y-199158841D01*
X237375008Y-198989919D01*
X237476168Y-198842149D01*
X237634369Y-198692030D01*
X237672830Y-198660561D01*
X237819433Y-198517150D01*
X237964844Y-198331006D01*
X238096162Y-198123473D01*
X238200484Y-197915896D01*
X238264908Y-197729620D01*
X238277209Y-197660671D01*
X238288197Y-197541628D01*
X238283687Y-197483370D01*
X238257763Y-197469117D01*
X238213288Y-197479423D01*
X238031383Y-197546109D01*
X237797615Y-197650198D01*
X237524662Y-197785022D01*
X237225201Y-197943909D01*
X236911911Y-198120191D01*
X236597470Y-198307198D01*
X236373145Y-198447510D01*
X235596259Y-198944783D01*
X234860723Y-198474582D01*
X234627676Y-198327340D01*
X234398356Y-198185595D01*
X234187209Y-198058042D01*
X234008682Y-197953378D01*
X233877221Y-197880301D01*
X233851286Y-197866920D01*
X233713600Y-197799998D01*
X233550727Y-197724126D01*
X233378719Y-197646366D01*
X233213629Y-197573778D01*
X233071510Y-197513424D01*
X232968415Y-197472363D01*
X232920794Y-197457646D01*
X232912669Y-197492750D01*
X230801700Y-197492750D01*
X230672622Y-197386505D01*
X230659398Y-197372738D01*
X230555879Y-197253493D01*
X230471416Y-197141413D01*
X230419379Y-197055206D01*
X230409262Y-197022689D01*
X230446063Y-197012253D01*
X230547386Y-197001439D01*
X230699613Y-196991263D01*
X230889126Y-196982743D01*
X230985646Y-196979644D01*
X231243257Y-196969860D01*
X231441565Y-196955520D01*
X231599390Y-196934324D01*
X231735551Y-196903972D01*
X231825160Y-196876996D01*
X231998272Y-196811207D01*
X232101803Y-196744215D01*
X232143601Y-196664197D01*
X232131515Y-196559333D01*
X232096647Y-196468084D01*
X232021919Y-196334013D01*
X231898375Y-196154082D01*
X231733282Y-195936862D01*
X231533906Y-195690923D01*
X231307514Y-195424838D01*
X231061373Y-195147178D01*
X230802747Y-194866514D01*
X230538904Y-194591418D01*
X230319854Y-194372177D01*
X230037663Y-194091611D01*
X229810328Y-193856569D01*
X229633181Y-193661927D01*
X229501555Y-193502562D01*
X229412257Y-193375716D01*
X229324232Y-193238874D01*
X229256015Y-193152135D01*
X229187510Y-193098402D01*
X229098625Y-193060575D01*
X229009928Y-193033357D01*
X228779258Y-192942353D01*
X228530955Y-192796710D01*
X228255828Y-192590777D01*
X228160442Y-192511070D01*
X227950093Y-192282140D01*
X227793502Y-192007898D01*
X227701151Y-191708112D01*
X227687973Y-191620031D01*
X227661851Y-191389954D01*
X227912095Y-191585676D01*
X228057714Y-191693322D01*
X228206562Y-191793296D01*
X228328271Y-191865284D01*
X228336305Y-191869418D01*
X228443957Y-191919303D01*
X228575435Y-191973868D01*
X228710966Y-192025790D01*
X228830776Y-192067747D01*
X228915091Y-192092418D01*
X228944009Y-192094440D01*
X228944592Y-192053299D01*
X228937800Y-191962195D01*
X228934002Y-191923834D01*
X228918091Y-191827266D01*
X228882629Y-191765675D01*
X228807678Y-191715470D01*
X228724574Y-191676065D01*
X228475401Y-191538166D01*
X228245038Y-191363876D01*
X228057755Y-191172681D01*
X227998422Y-191092985D01*
X227932010Y-190974507D01*
X227854462Y-190806459D01*
X227776907Y-190614189D01*
X227727985Y-190477007D01*
X227667730Y-190289121D01*
X227625435Y-190131292D01*
X227596715Y-189978437D01*
X227577183Y-189805472D01*
X227562455Y-189587315D01*
X227558125Y-189505539D01*
X227548553Y-189308012D01*
X227541377Y-189140775D01*
X227537138Y-189018116D01*
X227536377Y-188954322D01*
X227537013Y-188948573D01*
X227558100Y-188975922D01*
X227609980Y-189057586D01*
X227684359Y-189180205D01*
X227755341Y-189300266D01*
X227923069Y-189557217D01*
X228111319Y-189795557D01*
X228306483Y-190000487D01*
X228494951Y-190157209D01*
X228606502Y-190225752D01*
X228706122Y-190273341D01*
X228771748Y-190298582D01*
X228785259Y-190299526D01*
X228790167Y-190258488D01*
X228798160Y-190151479D01*
X228808470Y-189990588D01*
X228820326Y-189787904D01*
X228830641Y-189598137D01*
X229195347Y-189598137D01*
X229196848Y-190011459D01*
X229212826Y-190465726D01*
X229243094Y-190949022D01*
X229273942Y-191311611D01*
X229310205Y-191669517D01*
X229346317Y-191961662D01*
X229385215Y-192200380D01*
X229429834Y-192398001D01*
X229483111Y-192566859D01*
X229547982Y-192719286D01*
X229627384Y-192867613D01*
X229655768Y-192915285D01*
X229776066Y-193097000D01*
X229940751Y-193321933D01*
X230139545Y-193577448D01*
X230362169Y-193850909D01*
X230598343Y-194129681D01*
X230837789Y-194401128D01*
X231062152Y-194644108D01*
X231254825Y-194854253D01*
X231464020Y-195093965D01*
X231668031Y-195337686D01*
X231845155Y-195559855D01*
X231891718Y-195621031D01*
X232052209Y-195825494D01*
X232232048Y-196039233D01*
X232411181Y-196239273D01*
X232569557Y-196402640D01*
X232596187Y-196428147D01*
X232766576Y-196595592D01*
X232883654Y-196728342D01*
X232956967Y-196838144D01*
X232988454Y-196910919D01*
X233040278Y-197025412D01*
X233103892Y-197111898D01*
X233123401Y-197127968D01*
X233172942Y-197157298D01*
X233279236Y-197218148D01*
X233432964Y-197305304D01*
X233624812Y-197413552D01*
X233845461Y-197537677D01*
X234085595Y-197672467D01*
X234335898Y-197812707D01*
X234587052Y-197953184D01*
X234829740Y-198088684D01*
X235054646Y-198213992D01*
X235252453Y-198323896D01*
X235413844Y-198413181D01*
X235529502Y-198476634D01*
X235590111Y-198509041D01*
X235596855Y-198512143D01*
X235631994Y-198493878D01*
X235727757Y-198441607D01*
X235876583Y-198359520D01*
X236070913Y-198251810D01*
X236303187Y-198122665D01*
X236565845Y-197976278D01*
X236851327Y-197816838D01*
X236875478Y-197803335D01*
X238144200Y-197093948D01*
X238204910Y-196911166D01*
X238248894Y-196808954D01*
X238317674Y-196707360D01*
X238423879Y-196590629D01*
X238580138Y-196443008D01*
X238580320Y-196442842D01*
X238731306Y-196293902D01*
X238909039Y-196099442D01*
X239096605Y-195878766D01*
X239277088Y-195651173D01*
X239296651Y-195625396D01*
X239476088Y-195396461D01*
X239687572Y-195140239D01*
X239907620Y-194884442D01*
X240112753Y-194656782D01*
X240160614Y-194605758D01*
X240398109Y-194348132D01*
X240640182Y-194072717D01*
X240876755Y-193791968D01*
X241097746Y-193518338D01*
X241293076Y-193264280D01*
X241452663Y-193042247D01*
X241557158Y-192880498D01*
X241648247Y-192714854D01*
X241718428Y-192553601D01*
X241772668Y-192378788D01*
X241815930Y-192172468D01*
X241853181Y-191916689D01*
X241874616Y-191732877D01*
X241934599Y-191142691D01*
X241976996Y-190620723D01*
X242001612Y-190158998D01*
X242008245Y-189749539D01*
X241996699Y-189384370D01*
X241966775Y-189055513D01*
X241918273Y-188754993D01*
X241850996Y-188474833D01*
X241788541Y-188274570D01*
X241675104Y-187950990D01*
X241562970Y-187645660D01*
X241457370Y-187372057D01*
X241363530Y-187143661D01*
X241286681Y-186973952D01*
X241274840Y-186950254D01*
X241237923Y-186872460D01*
X241216320Y-186802298D01*
X241208741Y-186719957D01*
X241213893Y-186605624D01*
X241230486Y-186439486D01*
X241237479Y-186376790D01*
X241255068Y-186207241D01*
X241266579Y-186069158D01*
X241270794Y-185979235D01*
X241268352Y-185953356D01*
X241205377Y-185911480D01*
X241083743Y-185842709D01*
X240915635Y-185753153D01*
X240713237Y-185648922D01*
X240488732Y-185536126D01*
X240254305Y-185420875D01*
X240022140Y-185309278D01*
X239804422Y-185207444D01*
X239613334Y-185121485D01*
X239583988Y-185108724D01*
X238930869Y-184826455D01*
X238619431Y-185026233D01*
X238307994Y-185226012D01*
X238002551Y-185204836D01*
X237697108Y-185183661D01*
X237834228Y-185259832D01*
X237920370Y-185315363D01*
X238017808Y-185389444D01*
X238113700Y-185470325D01*
X238195207Y-185546256D01*
X238249490Y-185605484D01*
X238263708Y-185636259D01*
X238244185Y-185635024D01*
X237937954Y-185534821D01*
X237638766Y-185454669D01*
X237331236Y-185392162D01*
X236999979Y-185344892D01*
X236629612Y-185310452D01*
X236204750Y-185286435D01*
X235957779Y-185277285D01*
X235467772Y-185271548D01*
X234983532Y-185284606D01*
X234517180Y-185315185D01*
X234080838Y-185362009D01*
X233686624Y-185423803D01*
X233346660Y-185499292D01*
X233095899Y-185578341D01*
X232897436Y-185653751D01*
X233030811Y-185514825D01*
X233150207Y-185410832D01*
X233294254Y-185312104D01*
X233349800Y-185281037D01*
X233461763Y-185219707D01*
X233525751Y-185176288D01*
X233529497Y-185167954D01*
X237638493Y-185167954D01*
X237658031Y-185187493D01*
X237677570Y-185167954D01*
X237658031Y-185148416D01*
X237638493Y-185167954D01*
X233529497Y-185167954D01*
X233534452Y-185156934D01*
X233486570Y-185165913D01*
X233425184Y-185176408D01*
X233310198Y-185189717D01*
X233165963Y-185203040D01*
X233159170Y-185203595D01*
X232880618Y-185226231D01*
X232581577Y-185031016D01*
X232448028Y-184945216D01*
X232340352Y-184878629D01*
X232274296Y-184840867D01*
X232261858Y-184835800D01*
X232198148Y-184852744D01*
X232075700Y-184900114D01*
X231905344Y-184972725D01*
X231697909Y-185065386D01*
X231464225Y-185172911D01*
X231215120Y-185290110D01*
X230961424Y-185411795D01*
X230713966Y-185532779D01*
X230483575Y-185647873D01*
X230281081Y-185751889D01*
X230117312Y-185839638D01*
X230003099Y-185905932D01*
X229952285Y-185942303D01*
X229929879Y-185989485D01*
X229924589Y-186078954D01*
X229936138Y-186224958D01*
X229945257Y-186301185D01*
X229966940Y-186509470D01*
X229968928Y-186676610D01*
X229947004Y-186828756D01*
X229896953Y-186992058D01*
X229814559Y-187192666D01*
X229794066Y-187239031D01*
X229670987Y-187531529D01*
X229552571Y-187842428D01*
X229444509Y-188154343D01*
X229352494Y-188449886D01*
X229282218Y-188711670D01*
X229239374Y-188922308D01*
X229236528Y-188941993D01*
X229208511Y-189237677D01*
X229195347Y-189598137D01*
X228830641Y-189598137D01*
X228832958Y-189555514D01*
X228834533Y-189525368D01*
X228874154Y-188763705D01*
X228504447Y-188333522D01*
X228267984Y-188054340D01*
X228073489Y-187812660D01*
X227911966Y-187593120D01*
X227774413Y-187380359D01*
X227651831Y-187159014D01*
X227535221Y-186913726D01*
X227415583Y-186629133D01*
X227283918Y-186289873D01*
X227242112Y-186178833D01*
X227140093Y-185903941D01*
X227059424Y-185675266D01*
X226997431Y-185477513D01*
X226951438Y-185295385D01*
X226918769Y-185113588D01*
X226896749Y-184916826D01*
X226882703Y-184689804D01*
X226873956Y-184417228D01*
X226867832Y-184083800D01*
X226867082Y-184034723D01*
X226862636Y-183727767D01*
X226860033Y-183491005D01*
X226859740Y-183316487D01*
X226862220Y-183196265D01*
X226867940Y-183122392D01*
X226877363Y-183086918D01*
X226890955Y-183081895D01*
X226909181Y-183099375D01*
X226920873Y-183115038D01*
X226963030Y-183175146D01*
X227041787Y-183288733D01*
X227149561Y-183444813D01*
X227278768Y-183632399D01*
X227421828Y-183840504D01*
X227473740Y-183916115D01*
X227636029Y-184150950D01*
X227802846Y-184389493D01*
X227962424Y-184615116D01*
X228102994Y-184811191D01*
X228212789Y-184961091D01*
X228222724Y-184974371D01*
X228333519Y-185114888D01*
X228482634Y-185293933D01*
X228657888Y-185497835D01*
X228847100Y-185712923D01*
X229038087Y-185925527D01*
X229218669Y-186121977D01*
X229376664Y-186288603D01*
X229499891Y-186411733D01*
X229521895Y-186432336D01*
X229622059Y-186524410D01*
X229527199Y-186225693D01*
X229466351Y-186017005D01*
X229437708Y-185867253D01*
X229441333Y-185764134D01*
X229477286Y-185695348D01*
X229530031Y-185656416D01*
X229601274Y-185603925D01*
X229627723Y-185558898D01*
X229615493Y-185511944D01*
X229580852Y-185400448D01*
X229526872Y-185233750D01*
X229456625Y-185021191D01*
X229373185Y-184772111D01*
X229279623Y-184495850D01*
X229234941Y-184364872D01*
X229075821Y-183896887D01*
X228941071Y-183491867D01*
X228828662Y-183139219D01*
X228736568Y-182828346D01*
X228662762Y-182548655D01*
X228605215Y-182289549D01*
X228561901Y-182040433D01*
X228530792Y-181790714D01*
X228509861Y-181529795D01*
X228497081Y-181247081D01*
X228490423Y-180931978D01*
X228487862Y-180573890D01*
X228487593Y-180459185D01*
X228487802Y-180207793D01*
X228490214Y-179995785D01*
X228496120Y-179807775D01*
X228506807Y-179628376D01*
X228523567Y-179442203D01*
X228547688Y-179233871D01*
X228580459Y-178987994D01*
X228623171Y-178689185D01*
X228652970Y-178485800D01*
X228714057Y-178055733D01*
X228760341Y-177690783D01*
X228792319Y-177379426D01*
X228810490Y-177110137D01*
X228815351Y-176871391D01*
X228807399Y-176651664D01*
X228787133Y-176439432D01*
X228755049Y-176223170D01*
X228751544Y-176202802D01*
X228686183Y-175897889D01*
X228605368Y-175657683D01*
X228503937Y-175469417D01*
X228406671Y-175349877D01*
X228340060Y-175275929D01*
X228322245Y-175236799D01*
X228359464Y-175230855D01*
X228457954Y-175256467D01*
X228592714Y-175301213D01*
X228876985Y-175419329D01*
X229102202Y-175561556D01*
X229286514Y-175739847D01*
X229318961Y-175779487D01*
X229418935Y-175915283D01*
X229508424Y-176059563D01*
X229589549Y-176219677D01*
X229664430Y-176402975D01*
X229735188Y-176616809D01*
X229803944Y-176868526D01*
X229872819Y-177165479D01*
X229943934Y-177515017D01*
X230019409Y-177924491D01*
X230101366Y-178401250D01*
X230136492Y-178612759D01*
X230157312Y-178702333D01*
X230200050Y-178857014D01*
X230261823Y-179067794D01*
X230339748Y-179325665D01*
X230430942Y-179621619D01*
X230532523Y-179946650D01*
X230641608Y-180291748D01*
X230755313Y-180647906D01*
X230870756Y-181006116D01*
X230985054Y-181357371D01*
X231095324Y-181692663D01*
X231198684Y-182002985D01*
X231292249Y-182279327D01*
X231373139Y-182512683D01*
X231438469Y-182694045D01*
X231465298Y-182764723D01*
X231534856Y-182934665D01*
X231623162Y-183138021D01*
X231723730Y-183361127D01*
X231830073Y-183590317D01*
X231935706Y-183811928D01*
X232034143Y-184012294D01*
X232118898Y-184177752D01*
X232183486Y-184294636D01*
X232212942Y-184339875D01*
X232264127Y-184385670D01*
X232330420Y-184384443D01*
X232383562Y-184366529D01*
X232428383Y-184348728D01*
X232463896Y-184340627D01*
X232500094Y-184349954D01*
X232546966Y-184384437D01*
X232614504Y-184451802D01*
X232712697Y-184559777D01*
X232851537Y-184716090D01*
X232886719Y-184755696D01*
X233039098Y-184927111D01*
X233902719Y-184782410D01*
X234355666Y-184709594D01*
X234749048Y-184654738D01*
X235099353Y-184617818D01*
X235423073Y-184598810D01*
X235736699Y-184597690D01*
X236056720Y-184614436D01*
X236399628Y-184649022D01*
X236781912Y-184701426D01*
X237220064Y-184771624D01*
X237255561Y-184777593D01*
X237500225Y-184818394D01*
X237720686Y-184854321D01*
X237904610Y-184883431D01*
X238039661Y-184903783D01*
X238113503Y-184913434D01*
X238121581Y-184913954D01*
X238169826Y-184885606D01*
X238253158Y-184809352D01*
X238357921Y-184698382D01*
X238425734Y-184620206D01*
X238550164Y-184480584D01*
X238648637Y-184386954D01*
X238712911Y-184346822D01*
X238725884Y-184346834D01*
X238815896Y-184379370D01*
X238882962Y-184390120D01*
X238938401Y-184369972D01*
X238993536Y-184309814D01*
X239059686Y-184200532D01*
X239148173Y-184033016D01*
X239171316Y-183988303D01*
X239278610Y-183777918D01*
X239377139Y-183576960D01*
X239469846Y-183377615D01*
X239559674Y-183172067D01*
X239649567Y-182952501D01*
X239742467Y-182711101D01*
X239841316Y-182440053D01*
X239949059Y-182131540D01*
X240068637Y-181777749D01*
X240202993Y-181370863D01*
X240355071Y-180903067D01*
X240485514Y-180498262D01*
X240611197Y-180107272D01*
X240715693Y-179781422D01*
X240801519Y-179511382D01*
X240871196Y-179287821D01*
X240927241Y-179101407D01*
X240972173Y-178942809D01*
X241008512Y-178802697D01*
X241038775Y-178671739D01*
X241065481Y-178540604D01*
X241091149Y-178399961D01*
X241118298Y-178240479D01*
X241149446Y-178052827D01*
X241155600Y-178015767D01*
X241247323Y-177507044D01*
X241342798Y-177060340D01*
X241440998Y-176679594D01*
X241540898Y-176368746D01*
X241641473Y-176131733D01*
X241651107Y-176113044D01*
X241847328Y-175816096D01*
X242092986Y-175571631D01*
X242378533Y-175388279D01*
X242520903Y-175326743D01*
X242659687Y-175276955D01*
X242770672Y-175240192D01*
X242833043Y-175223285D01*
X242837359Y-175222877D01*
X242834700Y-175250759D01*
X242834700Y-175250759D01*
G37*
X242834700Y-175250759D02*
X242792530Y-175323719D01*
X242723003Y-175421851D01*
X242639233Y-175541185D01*
X242575713Y-175657685D01*
X242526395Y-175789256D01*
X242485229Y-175953806D01*
X242446168Y-176169239D01*
X242425306Y-176303160D01*
X242398291Y-176502151D01*
X242380693Y-176688909D01*
X242373105Y-176875588D01*
X242376120Y-177074347D01*
X242390332Y-177297340D01*
X242416335Y-177556725D01*
X242454720Y-177864658D01*
X242506082Y-178233295D01*
X242526287Y-178372435D01*
X242596350Y-178877686D01*
X242648789Y-179316855D01*
X242684637Y-179699752D01*
X242704926Y-180036191D01*
X242706851Y-180087954D01*
X242711502Y-180373355D01*
X242708467Y-180696106D01*
X242698633Y-181038311D01*
X242682890Y-181382073D01*
X242662126Y-181709495D01*
X242637228Y-182002683D01*
X242609086Y-182243739D01*
X242595518Y-182330906D01*
X242573441Y-182423275D01*
X242529007Y-182579922D01*
X242465238Y-182791208D01*
X242385156Y-183047494D01*
X242291783Y-183339140D01*
X242188141Y-183656505D01*
X242077251Y-183989951D01*
X242050390Y-184069829D01*
X241548638Y-185558723D01*
X241667505Y-185657745D01*
X241723231Y-185708089D01*
X241755991Y-185757465D01*
X241765480Y-185821106D01*
X241751395Y-185914243D01*
X241713429Y-186052109D01*
X241655950Y-186235296D01*
X241618219Y-186362547D01*
X241595593Y-186457019D01*
X241592890Y-186497685D01*
X241622903Y-186475257D01*
X241697454Y-186403565D01*
X241808312Y-186290991D01*
X241947246Y-186145919D01*
X242106024Y-185976732D01*
X242134214Y-185946373D01*
X242418557Y-185630684D01*
X242691886Y-185307459D01*
X242963760Y-184964263D01*
X243243736Y-184588663D01*
X243541373Y-184168226D01*
X243851723Y-183712178D01*
X243988238Y-183510826D01*
X244111506Y-183333494D01*
X244214554Y-183189853D01*
X244290410Y-183089571D01*
X244332101Y-183042316D01*
X244336548Y-183039905D01*
X244346224Y-183076343D01*
X244352119Y-183178565D01*
X244354554Y-183334307D01*
X244353853Y-183531309D01*
X244350337Y-183757307D01*
X244344328Y-184000039D01*
X244336150Y-184247242D01*
X244326125Y-184486655D01*
X244314574Y-184706014D01*
X244301821Y-184893058D01*
X244288188Y-185035524D01*
X244283076Y-185073877D01*
X244240288Y-185280459D01*
X244167675Y-185541625D01*
X244070695Y-185842220D01*
X243954805Y-186167093D01*
X243825463Y-186501090D01*
X243688130Y-186829059D01*
X243548262Y-187135847D01*
X243517222Y-187199954D01*
X243418829Y-187382844D01*
X243298684Y-187569887D01*
X243145868Y-187776622D01*
X242949462Y-188018588D01*
X242904675Y-188071766D01*
X242755292Y-188248552D01*
X242618966Y-188410396D01*
X242505669Y-188545420D01*
X242425375Y-188641746D01*
X242392561Y-188681759D01*
X242367817Y-188717493D01*
X242350451Y-188760973D01*
X242340009Y-188823761D01*
X242336040Y-188917416D01*
X242338090Y-189053496D01*
X242345708Y-189243563D01*
X242358440Y-189499175D01*
X242359649Y-189522471D01*
X242372930Y-189756859D01*
X242386750Y-189963807D01*
X242400109Y-190130900D01*
X242412004Y-190245720D01*
X242421437Y-190295852D01*
X242422040Y-190296681D01*
X242462668Y-190287044D01*
X242550247Y-190240893D01*
X242668229Y-190167271D01*
X242708952Y-190139900D01*
X242865531Y-190022307D01*
X243006297Y-189890503D01*
X243143043Y-189730570D01*
X243287561Y-189528591D01*
X243451642Y-189270647D01*
X243467574Y-189244537D01*
X243665464Y-188919339D01*
X243640051Y-189434757D01*
X243593001Y-189937383D01*
X243503733Y-190376158D01*
X243370864Y-190753871D01*
X243193011Y-191073309D01*
X242968791Y-191337258D01*
X242696821Y-191548507D01*
X242550026Y-191631439D01*
X242399654Y-191715835D01*
X242309061Y-191793465D01*
X242264023Y-191882701D01*
X242250316Y-192001913D01*
X242250103Y-192018818D01*
X242261751Y-192083583D01*
X242312935Y-192089484D01*
X242337493Y-192082823D01*
X242635734Y-191970963D01*
X242934053Y-191820581D01*
X243196908Y-191650055D01*
X243242194Y-191615070D01*
X243363015Y-191520414D01*
X243458181Y-191449422D01*
X243513440Y-191412561D01*
X243521499Y-191409912D01*
X243525267Y-191459041D01*
X243511388Y-191561629D01*
X243484566Y-191696242D01*
X243449505Y-191841449D01*
X243410908Y-191975816D01*
X243376336Y-192071396D01*
X243276724Y-192236727D01*
X243120933Y-192416726D01*
X242925565Y-192597585D01*
X242707223Y-192765496D01*
X242482509Y-192906652D01*
X242268027Y-193007245D01*
X242238435Y-193017755D01*
X242120779Y-193054520D01*
X242030377Y-193077344D01*
X242003333Y-193081031D01*
X241960392Y-193112383D01*
X241894645Y-193194452D01*
X241822630Y-193305723D01*
X241748987Y-193409349D01*
X241622963Y-193561209D01*
X241449227Y-193756118D01*
X241232447Y-193988894D01*
X240977293Y-194254352D01*
X240863521Y-194370570D01*
X240573841Y-194670282D01*
X240291607Y-194972243D01*
X240023547Y-195268575D01*
X239776386Y-195551399D01*
X239556851Y-195812838D01*
X239371668Y-196045015D01*
X239227564Y-196240052D01*
X239131263Y-196390071D01*
X239117646Y-196415308D01*
X239071285Y-196534982D01*
X239051838Y-196646433D01*
X239052722Y-196669308D01*
X239068127Y-196727076D01*
X239109477Y-196771844D01*
X239193085Y-196815021D01*
X239335259Y-196868015D01*
X239338339Y-196869089D01*
X239461322Y-196908146D01*
X239582121Y-196936148D01*
X239719275Y-196955462D01*
X239891323Y-196968456D01*
X240116806Y-196977498D01*
X240206998Y-196980042D01*
X240802119Y-196995707D01*
X240747151Y-197102004D01*
X240623429Y-197275515D01*
X240437287Y-197449053D01*
X240203478Y-197610287D01*
X240022185Y-197707864D01*
X239872044Y-197779032D01*
X239759928Y-197824745D01*
X239660634Y-197850047D01*
X239548960Y-197859981D01*
X239399706Y-197859591D01*
X239279723Y-197856445D01*
X239097959Y-197850852D01*
X238936583Y-197844993D01*
X238817264Y-197839701D01*
X238771868Y-197836906D01*
X238717070Y-197838221D01*
X238684660Y-197865274D01*
X238665040Y-197935645D01*
X238649183Y-198061623D01*
X238625175Y-198203526D01*
X238579281Y-198310537D01*
X238496945Y-198402305D01*
X238363611Y-198498480D01*
X238293031Y-198542408D01*
X238218938Y-198593825D01*
X238185703Y-198629497D01*
X238185570Y-198630729D01*
X238204887Y-198673773D01*
X238254730Y-198760722D01*
X238303350Y-198839450D01*
X238374558Y-198939658D01*
X238452362Y-199015153D01*
X238551751Y-199073130D01*
X238687714Y-199120786D01*
X238875240Y-199165315D01*
X239055031Y-199200303D01*
X239215728Y-199232111D01*
X239342903Y-199261118D01*
X239420176Y-199283364D01*
X239435885Y-199292371D01*
X239417286Y-199336443D01*
X239371295Y-199419126D01*
X239356421Y-199443899D01*
X239261394Y-199546467D01*
X239108025Y-199652983D01*
X238915117Y-199754883D01*
X238701473Y-199843600D01*
X238485897Y-199910571D01*
X238287191Y-199947228D01*
X238244185Y-199950560D01*
X238074203Y-199952059D01*
X237907196Y-199941668D01*
X237797087Y-199925066D01*
X237623527Y-199885361D01*
X237326902Y-200201726D01*
X237030277Y-200518092D01*
X236318174Y-200280338D01*
X235606071Y-200042583D01*
X234913887Y-200274115D01*
X234693330Y-200347146D01*
X234497432Y-200410606D01*
X234338555Y-200460602D01*
X234229059Y-200493246D01*
X234181406Y-200504648D01*
X234139897Y-200477039D01*
X234059072Y-200403143D01*
X233951578Y-200295049D01*
X233858508Y-200196028D01*
X233575908Y-199888405D01*
X233409123Y-199926588D01*
X233120195Y-199957266D01*
X232805407Y-199927804D01*
X232485566Y-199840755D01*
X232385167Y-199800991D01*
X232200405Y-199709814D01*
X232033412Y-199605507D01*
X231897987Y-199498871D01*
X231807927Y-199400708D01*
X231776954Y-199324816D01*
X231799012Y-199290661D01*
X231871920Y-199258519D01*
X232005781Y-199224853D01*
X232134126Y-199199769D01*
X232309368Y-199164427D01*
X232470056Y-199126270D01*
X232590012Y-199091718D01*
X232620165Y-199080580D01*
X232708918Y-199022737D01*
X232808837Y-198928113D01*
X232901144Y-198818662D01*
X232967064Y-198716335D01*
X232988339Y-198650125D01*
X232958332Y-198605676D01*
X232879960Y-198535005D01*
X232778878Y-198459607D01*
X232665746Y-198378648D01*
X232600882Y-198314404D01*
X232567789Y-198239843D01*
X232549971Y-198127937D01*
X232544326Y-198075277D01*
X232529766Y-197948436D01*
X232516940Y-197858154D01*
X232509555Y-197826438D01*
X232469173Y-197826296D01*
X232367837Y-197832862D01*
X232222346Y-197844913D01*
X232101871Y-197856089D01*
X231902051Y-197872586D01*
X231754423Y-197876131D01*
X231633931Y-197865650D01*
X231515520Y-197840068D01*
X231476640Y-197829283D01*
X231253734Y-197748597D01*
X231028493Y-197638444D01*
X230826321Y-197513016D01*
X230801700Y-197492750D01*
X232912669Y-197492750D01*
X232914198Y-197583382D01*
X232921495Y-197673170D01*
X232966723Y-197855612D01*
X233060325Y-198065292D01*
X233189268Y-198281101D01*
X233340522Y-198481928D01*
X233501054Y-198646664D01*
X233544508Y-198682379D01*
X233726690Y-198862375D01*
X233850868Y-199069191D01*
X233909999Y-199288131D01*
X233908728Y-199442148D01*
X233899220Y-199541314D01*
X233908340Y-199617180D01*
X233945271Y-199694100D01*
X234019196Y-199796428D01*
X234063666Y-199853071D01*
X234178494Y-199985752D01*
X234261907Y-200052667D01*
X234309297Y-200061247D01*
X234368644Y-200046376D01*
X234489547Y-200017297D01*
X234657432Y-199977473D01*
X234857726Y-199930369D01*
X234989979Y-199899450D01*
X235604389Y-199756133D01*
X236276138Y-199917393D01*
X236494549Y-199967833D01*
X236686258Y-200008327D01*
X236838587Y-200036504D01*
X236938860Y-200049991D01*
X236973898Y-200047919D01*
X237104108Y-199890826D01*
X237191399Y-199772156D01*
X237245101Y-199672210D01*
X237274541Y-199571287D01*
X237289047Y-199449685D01*
X237293750Y-199372416D01*
X237318374Y-199158841D01*
X237375008Y-198989919D01*
X237476168Y-198842149D01*
X237634369Y-198692030D01*
X237672830Y-198660561D01*
X237819433Y-198517150D01*
X237964844Y-198331006D01*
X238096162Y-198123473D01*
X238200484Y-197915896D01*
X238264908Y-197729620D01*
X238277209Y-197660671D01*
X238288197Y-197541628D01*
X238283687Y-197483370D01*
X238257763Y-197469117D01*
X238213288Y-197479423D01*
X238031383Y-197546109D01*
X237797615Y-197650198D01*
X237524662Y-197785022D01*
X237225201Y-197943909D01*
X236911911Y-198120191D01*
X236597470Y-198307198D01*
X236373145Y-198447510D01*
X235596259Y-198944783D01*
X234860723Y-198474582D01*
X234627676Y-198327340D01*
X234398356Y-198185595D01*
X234187209Y-198058042D01*
X234008682Y-197953378D01*
X233877221Y-197880301D01*
X233851286Y-197866920D01*
X233713600Y-197799998D01*
X233550727Y-197724126D01*
X233378719Y-197646366D01*
X233213629Y-197573778D01*
X233071510Y-197513424D01*
X232968415Y-197472363D01*
X232920794Y-197457646D01*
X232912669Y-197492750D01*
X230801700Y-197492750D01*
X230672622Y-197386505D01*
X230659398Y-197372738D01*
X230555879Y-197253493D01*
X230471416Y-197141413D01*
X230419379Y-197055206D01*
X230409262Y-197022689D01*
X230446063Y-197012253D01*
X230547386Y-197001439D01*
X230699613Y-196991263D01*
X230889126Y-196982743D01*
X230985646Y-196979644D01*
X231243257Y-196969860D01*
X231441565Y-196955520D01*
X231599390Y-196934324D01*
X231735551Y-196903972D01*
X231825160Y-196876996D01*
X231998272Y-196811207D01*
X232101803Y-196744215D01*
X232143601Y-196664197D01*
X232131515Y-196559333D01*
X232096647Y-196468084D01*
X232021919Y-196334013D01*
X231898375Y-196154082D01*
X231733282Y-195936862D01*
X231533906Y-195690923D01*
X231307514Y-195424838D01*
X231061373Y-195147178D01*
X230802747Y-194866514D01*
X230538904Y-194591418D01*
X230319854Y-194372177D01*
X230037663Y-194091611D01*
X229810328Y-193856569D01*
X229633181Y-193661927D01*
X229501555Y-193502562D01*
X229412257Y-193375716D01*
X229324232Y-193238874D01*
X229256015Y-193152135D01*
X229187510Y-193098402D01*
X229098625Y-193060575D01*
X229009928Y-193033357D01*
X228779258Y-192942353D01*
X228530955Y-192796710D01*
X228255828Y-192590777D01*
X228160442Y-192511070D01*
X227950093Y-192282140D01*
X227793502Y-192007898D01*
X227701151Y-191708112D01*
X227687973Y-191620031D01*
X227661851Y-191389954D01*
X227912095Y-191585676D01*
X228057714Y-191693322D01*
X228206562Y-191793296D01*
X228328271Y-191865284D01*
X228336305Y-191869418D01*
X228443957Y-191919303D01*
X228575435Y-191973868D01*
X228710966Y-192025790D01*
X228830776Y-192067747D01*
X228915091Y-192092418D01*
X228944009Y-192094440D01*
X228944592Y-192053299D01*
X228937800Y-191962195D01*
X228934002Y-191923834D01*
X228918091Y-191827266D01*
X228882629Y-191765675D01*
X228807678Y-191715470D01*
X228724574Y-191676065D01*
X228475401Y-191538166D01*
X228245038Y-191363876D01*
X228057755Y-191172681D01*
X227998422Y-191092985D01*
X227932010Y-190974507D01*
X227854462Y-190806459D01*
X227776907Y-190614189D01*
X227727985Y-190477007D01*
X227667730Y-190289121D01*
X227625435Y-190131292D01*
X227596715Y-189978437D01*
X227577183Y-189805472D01*
X227562455Y-189587315D01*
X227558125Y-189505539D01*
X227548553Y-189308012D01*
X227541377Y-189140775D01*
X227537138Y-189018116D01*
X227536377Y-188954322D01*
X227537013Y-188948573D01*
X227558100Y-188975922D01*
X227609980Y-189057586D01*
X227684359Y-189180205D01*
X227755341Y-189300266D01*
X227923069Y-189557217D01*
X228111319Y-189795557D01*
X228306483Y-190000487D01*
X228494951Y-190157209D01*
X228606502Y-190225752D01*
X228706122Y-190273341D01*
X228771748Y-190298582D01*
X228785259Y-190299526D01*
X228790167Y-190258488D01*
X228798160Y-190151479D01*
X228808470Y-189990588D01*
X228820326Y-189787904D01*
X228830641Y-189598137D01*
X229195347Y-189598137D01*
X229196848Y-190011459D01*
X229212826Y-190465726D01*
X229243094Y-190949022D01*
X229273942Y-191311611D01*
X229310205Y-191669517D01*
X229346317Y-191961662D01*
X229385215Y-192200380D01*
X229429834Y-192398001D01*
X229483111Y-192566859D01*
X229547982Y-192719286D01*
X229627384Y-192867613D01*
X229655768Y-192915285D01*
X229776066Y-193097000D01*
X229940751Y-193321933D01*
X230139545Y-193577448D01*
X230362169Y-193850909D01*
X230598343Y-194129681D01*
X230837789Y-194401128D01*
X231062152Y-194644108D01*
X231254825Y-194854253D01*
X231464020Y-195093965D01*
X231668031Y-195337686D01*
X231845155Y-195559855D01*
X231891718Y-195621031D01*
X232052209Y-195825494D01*
X232232048Y-196039233D01*
X232411181Y-196239273D01*
X232569557Y-196402640D01*
X232596187Y-196428147D01*
X232766576Y-196595592D01*
X232883654Y-196728342D01*
X232956967Y-196838144D01*
X232988454Y-196910919D01*
X233040278Y-197025412D01*
X233103892Y-197111898D01*
X233123401Y-197127968D01*
X233172942Y-197157298D01*
X233279236Y-197218148D01*
X233432964Y-197305304D01*
X233624812Y-197413552D01*
X233845461Y-197537677D01*
X234085595Y-197672467D01*
X234335898Y-197812707D01*
X234587052Y-197953184D01*
X234829740Y-198088684D01*
X235054646Y-198213992D01*
X235252453Y-198323896D01*
X235413844Y-198413181D01*
X235529502Y-198476634D01*
X235590111Y-198509041D01*
X235596855Y-198512143D01*
X235631994Y-198493878D01*
X235727757Y-198441607D01*
X235876583Y-198359520D01*
X236070913Y-198251810D01*
X236303187Y-198122665D01*
X236565845Y-197976278D01*
X236851327Y-197816838D01*
X236875478Y-197803335D01*
X238144200Y-197093948D01*
X238204910Y-196911166D01*
X238248894Y-196808954D01*
X238317674Y-196707360D01*
X238423879Y-196590629D01*
X238580138Y-196443008D01*
X238580320Y-196442842D01*
X238731306Y-196293902D01*
X238909039Y-196099442D01*
X239096605Y-195878766D01*
X239277088Y-195651173D01*
X239296651Y-195625396D01*
X239476088Y-195396461D01*
X239687572Y-195140239D01*
X239907620Y-194884442D01*
X240112753Y-194656782D01*
X240160614Y-194605758D01*
X240398109Y-194348132D01*
X240640182Y-194072717D01*
X240876755Y-193791968D01*
X241097746Y-193518338D01*
X241293076Y-193264280D01*
X241452663Y-193042247D01*
X241557158Y-192880498D01*
X241648247Y-192714854D01*
X241718428Y-192553601D01*
X241772668Y-192378788D01*
X241815930Y-192172468D01*
X241853181Y-191916689D01*
X241874616Y-191732877D01*
X241934599Y-191142691D01*
X241976996Y-190620723D01*
X242001612Y-190158998D01*
X242008245Y-189749539D01*
X241996699Y-189384370D01*
X241966775Y-189055513D01*
X241918273Y-188754993D01*
X241850996Y-188474833D01*
X241788541Y-188274570D01*
X241675104Y-187950990D01*
X241562970Y-187645660D01*
X241457370Y-187372057D01*
X241363530Y-187143661D01*
X241286681Y-186973952D01*
X241274840Y-186950254D01*
X241237923Y-186872460D01*
X241216320Y-186802298D01*
X241208741Y-186719957D01*
X241213893Y-186605624D01*
X241230486Y-186439486D01*
X241237479Y-186376790D01*
X241255068Y-186207241D01*
X241266579Y-186069158D01*
X241270794Y-185979235D01*
X241268352Y-185953356D01*
X241205377Y-185911480D01*
X241083743Y-185842709D01*
X240915635Y-185753153D01*
X240713237Y-185648922D01*
X240488732Y-185536126D01*
X240254305Y-185420875D01*
X240022140Y-185309278D01*
X239804422Y-185207444D01*
X239613334Y-185121485D01*
X239583988Y-185108724D01*
X238930869Y-184826455D01*
X238619431Y-185026233D01*
X238307994Y-185226012D01*
X238002551Y-185204836D01*
X237697108Y-185183661D01*
X237834228Y-185259832D01*
X237920370Y-185315363D01*
X238017808Y-185389444D01*
X238113700Y-185470325D01*
X238195207Y-185546256D01*
X238249490Y-185605484D01*
X238263708Y-185636259D01*
X238244185Y-185635024D01*
X237937954Y-185534821D01*
X237638766Y-185454669D01*
X237331236Y-185392162D01*
X236999979Y-185344892D01*
X236629612Y-185310452D01*
X236204750Y-185286435D01*
X235957779Y-185277285D01*
X235467772Y-185271548D01*
X234983532Y-185284606D01*
X234517180Y-185315185D01*
X234080838Y-185362009D01*
X233686624Y-185423803D01*
X233346660Y-185499292D01*
X233095899Y-185578341D01*
X232897436Y-185653751D01*
X233030811Y-185514825D01*
X233150207Y-185410832D01*
X233294254Y-185312104D01*
X233349800Y-185281037D01*
X233461763Y-185219707D01*
X233525751Y-185176288D01*
X233529497Y-185167954D01*
X237638493Y-185167954D01*
X237658031Y-185187493D01*
X237677570Y-185167954D01*
X237658031Y-185148416D01*
X237638493Y-185167954D01*
X233529497Y-185167954D01*
X233534452Y-185156934D01*
X233486570Y-185165913D01*
X233425184Y-185176408D01*
X233310198Y-185189717D01*
X233165963Y-185203040D01*
X233159170Y-185203595D01*
X232880618Y-185226231D01*
X232581577Y-185031016D01*
X232448028Y-184945216D01*
X232340352Y-184878629D01*
X232274296Y-184840867D01*
X232261858Y-184835800D01*
X232198148Y-184852744D01*
X232075700Y-184900114D01*
X231905344Y-184972725D01*
X231697909Y-185065386D01*
X231464225Y-185172911D01*
X231215120Y-185290110D01*
X230961424Y-185411795D01*
X230713966Y-185532779D01*
X230483575Y-185647873D01*
X230281081Y-185751889D01*
X230117312Y-185839638D01*
X230003099Y-185905932D01*
X229952285Y-185942303D01*
X229929879Y-185989485D01*
X229924589Y-186078954D01*
X229936138Y-186224958D01*
X229945257Y-186301185D01*
X229966940Y-186509470D01*
X229968928Y-186676610D01*
X229947004Y-186828756D01*
X229896953Y-186992058D01*
X229814559Y-187192666D01*
X229794066Y-187239031D01*
X229670987Y-187531529D01*
X229552571Y-187842428D01*
X229444509Y-188154343D01*
X229352494Y-188449886D01*
X229282218Y-188711670D01*
X229239374Y-188922308D01*
X229236528Y-188941993D01*
X229208511Y-189237677D01*
X229195347Y-189598137D01*
X228830641Y-189598137D01*
X228832958Y-189555514D01*
X228834533Y-189525368D01*
X228874154Y-188763705D01*
X228504447Y-188333522D01*
X228267984Y-188054340D01*
X228073489Y-187812660D01*
X227911966Y-187593120D01*
X227774413Y-187380359D01*
X227651831Y-187159014D01*
X227535221Y-186913726D01*
X227415583Y-186629133D01*
X227283918Y-186289873D01*
X227242112Y-186178833D01*
X227140093Y-185903941D01*
X227059424Y-185675266D01*
X226997431Y-185477513D01*
X226951438Y-185295385D01*
X226918769Y-185113588D01*
X226896749Y-184916826D01*
X226882703Y-184689804D01*
X226873956Y-184417228D01*
X226867832Y-184083800D01*
X226867082Y-184034723D01*
X226862636Y-183727767D01*
X226860033Y-183491005D01*
X226859740Y-183316487D01*
X226862220Y-183196265D01*
X226867940Y-183122392D01*
X226877363Y-183086918D01*
X226890955Y-183081895D01*
X226909181Y-183099375D01*
X226920873Y-183115038D01*
X226963030Y-183175146D01*
X227041787Y-183288733D01*
X227149561Y-183444813D01*
X227278768Y-183632399D01*
X227421828Y-183840504D01*
X227473740Y-183916115D01*
X227636029Y-184150950D01*
X227802846Y-184389493D01*
X227962424Y-184615116D01*
X228102994Y-184811191D01*
X228212789Y-184961091D01*
X228222724Y-184974371D01*
X228333519Y-185114888D01*
X228482634Y-185293933D01*
X228657888Y-185497835D01*
X228847100Y-185712923D01*
X229038087Y-185925527D01*
X229218669Y-186121977D01*
X229376664Y-186288603D01*
X229499891Y-186411733D01*
X229521895Y-186432336D01*
X229622059Y-186524410D01*
X229527199Y-186225693D01*
X229466351Y-186017005D01*
X229437708Y-185867253D01*
X229441333Y-185764134D01*
X229477286Y-185695348D01*
X229530031Y-185656416D01*
X229601274Y-185603925D01*
X229627723Y-185558898D01*
X229615493Y-185511944D01*
X229580852Y-185400448D01*
X229526872Y-185233750D01*
X229456625Y-185021191D01*
X229373185Y-184772111D01*
X229279623Y-184495850D01*
X229234941Y-184364872D01*
X229075821Y-183896887D01*
X228941071Y-183491867D01*
X228828662Y-183139219D01*
X228736568Y-182828346D01*
X228662762Y-182548655D01*
X228605215Y-182289549D01*
X228561901Y-182040433D01*
X228530792Y-181790714D01*
X228509861Y-181529795D01*
X228497081Y-181247081D01*
X228490423Y-180931978D01*
X228487862Y-180573890D01*
X228487593Y-180459185D01*
X228487802Y-180207793D01*
X228490214Y-179995785D01*
X228496120Y-179807775D01*
X228506807Y-179628376D01*
X228523567Y-179442203D01*
X228547688Y-179233871D01*
X228580459Y-178987994D01*
X228623171Y-178689185D01*
X228652970Y-178485800D01*
X228714057Y-178055733D01*
X228760341Y-177690783D01*
X228792319Y-177379426D01*
X228810490Y-177110137D01*
X228815351Y-176871391D01*
X228807399Y-176651664D01*
X228787133Y-176439432D01*
X228755049Y-176223170D01*
X228751544Y-176202802D01*
X228686183Y-175897889D01*
X228605368Y-175657683D01*
X228503937Y-175469417D01*
X228406671Y-175349877D01*
X228340060Y-175275929D01*
X228322245Y-175236799D01*
X228359464Y-175230855D01*
X228457954Y-175256467D01*
X228592714Y-175301213D01*
X228876985Y-175419329D01*
X229102202Y-175561556D01*
X229286514Y-175739847D01*
X229318961Y-175779487D01*
X229418935Y-175915283D01*
X229508424Y-176059563D01*
X229589549Y-176219677D01*
X229664430Y-176402975D01*
X229735188Y-176616809D01*
X229803944Y-176868526D01*
X229872819Y-177165479D01*
X229943934Y-177515017D01*
X230019409Y-177924491D01*
X230101366Y-178401250D01*
X230136492Y-178612759D01*
X230157312Y-178702333D01*
X230200050Y-178857014D01*
X230261823Y-179067794D01*
X230339748Y-179325665D01*
X230430942Y-179621619D01*
X230532523Y-179946650D01*
X230641608Y-180291748D01*
X230755313Y-180647906D01*
X230870756Y-181006116D01*
X230985054Y-181357371D01*
X231095324Y-181692663D01*
X231198684Y-182002985D01*
X231292249Y-182279327D01*
X231373139Y-182512683D01*
X231438469Y-182694045D01*
X231465298Y-182764723D01*
X231534856Y-182934665D01*
X231623162Y-183138021D01*
X231723730Y-183361127D01*
X231830073Y-183590317D01*
X231935706Y-183811928D01*
X232034143Y-184012294D01*
X232118898Y-184177752D01*
X232183486Y-184294636D01*
X232212942Y-184339875D01*
X232264127Y-184385670D01*
X232330420Y-184384443D01*
X232383562Y-184366529D01*
X232428383Y-184348728D01*
X232463896Y-184340627D01*
X232500094Y-184349954D01*
X232546966Y-184384437D01*
X232614504Y-184451802D01*
X232712697Y-184559777D01*
X232851537Y-184716090D01*
X232886719Y-184755696D01*
X233039098Y-184927111D01*
X233902719Y-184782410D01*
X234355666Y-184709594D01*
X234749048Y-184654738D01*
X235099353Y-184617818D01*
X235423073Y-184598810D01*
X235736699Y-184597690D01*
X236056720Y-184614436D01*
X236399628Y-184649022D01*
X236781912Y-184701426D01*
X237220064Y-184771624D01*
X237255561Y-184777593D01*
X237500225Y-184818394D01*
X237720686Y-184854321D01*
X237904610Y-184883431D01*
X238039661Y-184903783D01*
X238113503Y-184913434D01*
X238121581Y-184913954D01*
X238169826Y-184885606D01*
X238253158Y-184809352D01*
X238357921Y-184698382D01*
X238425734Y-184620206D01*
X238550164Y-184480584D01*
X238648637Y-184386954D01*
X238712911Y-184346822D01*
X238725884Y-184346834D01*
X238815896Y-184379370D01*
X238882962Y-184390120D01*
X238938401Y-184369972D01*
X238993536Y-184309814D01*
X239059686Y-184200532D01*
X239148173Y-184033016D01*
X239171316Y-183988303D01*
X239278610Y-183777918D01*
X239377139Y-183576960D01*
X239469846Y-183377615D01*
X239559674Y-183172067D01*
X239649567Y-182952501D01*
X239742467Y-182711101D01*
X239841316Y-182440053D01*
X239949059Y-182131540D01*
X240068637Y-181777749D01*
X240202993Y-181370863D01*
X240355071Y-180903067D01*
X240485514Y-180498262D01*
X240611197Y-180107272D01*
X240715693Y-179781422D01*
X240801519Y-179511382D01*
X240871196Y-179287821D01*
X240927241Y-179101407D01*
X240972173Y-178942809D01*
X241008512Y-178802697D01*
X241038775Y-178671739D01*
X241065481Y-178540604D01*
X241091149Y-178399961D01*
X241118298Y-178240479D01*
X241149446Y-178052827D01*
X241155600Y-178015767D01*
X241247323Y-177507044D01*
X241342798Y-177060340D01*
X241440998Y-176679594D01*
X241540898Y-176368746D01*
X241641473Y-176131733D01*
X241651107Y-176113044D01*
X241847328Y-175816096D01*
X242092986Y-175571631D01*
X242378533Y-175388279D01*
X242520903Y-175326743D01*
X242659687Y-175276955D01*
X242770672Y-175240192D01*
X242833043Y-175223285D01*
X242837359Y-175222877D01*
X242834700Y-175250759D01*
G04 #@! TD*
%LPC*%
D12*
G04 #@! TO.C,MX_6*
X198750850Y-111225950D03*
D13*
X193821748Y-109996987D03*
X203679952Y-112454913D03*
G04 #@! TD*
D12*
G04 #@! TO.C,MX_SPACE1*
X181585458Y-186035912D03*
D13*
X176656356Y-184806949D03*
X186514560Y-187264875D03*
D14*
X168312243Y-189925364D03*
X191479024Y-195701491D03*
D12*
X171999133Y-175138057D03*
X195165914Y-180914184D03*
G04 #@! TD*
D15*
G04 #@! TO.C,REF\002A\002A*
X221820217Y-175623208D03*
X221820216Y-174353208D03*
X221820216Y-170543208D03*
X221820216Y-171813208D03*
X221820216Y-173083208D03*
G04 #@! TD*
G04 #@! TO.C,REF\002A\002A*
X224878719Y-173083208D03*
X224878719Y-171813208D03*
X224878719Y-170543208D03*
X224878719Y-174353208D03*
X224878720Y-175623208D03*
G04 #@! TD*
G04 #@! TO.C,REF\002A\002A*
X221183200Y-122682000D03*
X221183200Y-121412000D03*
X221183200Y-120142000D03*
X221183200Y-123952000D03*
X221183201Y-125222000D03*
G04 #@! TD*
D13*
G04 #@! TO.C,MX_0*
X310022934Y-97385754D03*
X299938666Y-98623946D03*
D12*
X304980800Y-98004850D03*
G04 #@! TD*
D13*
G04 #@! TO.C,MX_1*
X107600750Y-96043750D03*
X97440750Y-96043750D03*
D12*
X102520750Y-96043750D03*
G04 #@! TD*
G04 #@! TO.C,MX_2*
X122726250Y-96306750D03*
D13*
X117665581Y-95863999D03*
X127786919Y-96749501D03*
G04 #@! TD*
D12*
G04 #@! TO.C,MX_3*
X142027450Y-98004850D03*
D13*
X136985316Y-97385754D03*
X147069584Y-98623946D03*
G04 #@! TD*
G04 #@! TO.C,MX_4*
X166474816Y-102056360D03*
X156501484Y-100117740D03*
D12*
X161488150Y-101087050D03*
G04 #@! TD*
D13*
G04 #@! TO.C,MX_5*
X185078940Y-106952341D03*
X175140960Y-104839959D03*
D12*
X180109950Y-105896150D03*
G04 #@! TD*
D13*
G04 #@! TO.C,MX_7*
X253186502Y-109996987D03*
X243328298Y-112454913D03*
D12*
X248257400Y-111225950D03*
G04 #@! TD*
G04 #@! TO.C,MX_8*
X266898300Y-105896150D03*
D13*
X261929310Y-106952341D03*
X271867290Y-104839959D03*
G04 #@! TD*
D12*
G04 #@! TO.C,MX_9*
X285520100Y-101087050D03*
D13*
X280533434Y-102056360D03*
X290506766Y-100117740D03*
G04 #@! TD*
D12*
G04 #@! TO.C,MX_-1*
X324282000Y-96306750D03*
D13*
X319221331Y-96749501D03*
X329342669Y-95863999D03*
G04 #@! TD*
D12*
G04 #@! TO.C,MX_/1*
X339725000Y-153193750D03*
D13*
X334645000Y-153193750D03*
X344805000Y-153193750D03*
G04 #@! TD*
D12*
G04 #@! TO.C,MX_;1*
X339725000Y-134143750D03*
D13*
X334645000Y-134143750D03*
X344805000Y-134143750D03*
G04 #@! TD*
D12*
G04 #@! TO.C,MX_<1*
X300055000Y-156846550D03*
D13*
X295068334Y-157815860D03*
X305041666Y-155877240D03*
G04 #@! TD*
G04 #@! TO.C,MX_=1*
X349567500Y-96043750D03*
X339407500Y-96043750D03*
D12*
X344487500Y-96043750D03*
G04 #@! TD*
G04 #@! TO.C,MX_>1*
X319881100Y-154060150D03*
D13*
X314820431Y-154502901D03*
X324941769Y-153617399D03*
G04 #@! TD*
D12*
G04 #@! TO.C,MX_A1*
X107283250Y-134143750D03*
D13*
X102203250Y-134143750D03*
X112363250Y-134143750D03*
G04 #@! TD*
G04 #@! TO.C,MX_B1*
X189145152Y-168214313D03*
X179286948Y-165756387D03*
D12*
X184216050Y-166985350D03*
G04 #@! TD*
G04 #@! TO.C,MX_BackSpace1*
X363537500Y-96043750D03*
D13*
X358457500Y-96043750D03*
X368617500Y-96043750D03*
G04 #@! TD*
G04 #@! TO.C,MX_C1*
X151939916Y-157815860D03*
X141966584Y-155877240D03*
D12*
X146953250Y-156846550D03*
G04 #@! TD*
D13*
G04 #@! TO.C,MX_D1*
X155574816Y-139115860D03*
X145601484Y-137177240D03*
D12*
X150588150Y-138146550D03*
G04 #@! TD*
G04 #@! TO.C,MX_DEL1*
X358775000Y-115093750D03*
D13*
X353695000Y-115093750D03*
X363855000Y-115093750D03*
G04 #@! TD*
G04 #@! TO.C,MX_E1*
X159209716Y-120415860D03*
X149236384Y-118477240D03*
D12*
X154223050Y-119446550D03*
G04 #@! TD*
D13*
G04 #@! TO.C,MX_END1*
X246932902Y-161122887D03*
X237074698Y-163580813D03*
D12*
X242003800Y-162351850D03*
G04 #@! TD*
G04 #@! TO.C,MX_ENTER1*
X281804957Y-182579060D03*
D13*
X276835967Y-183635251D03*
X286773947Y-181522869D03*
D14*
X271580094Y-191893471D03*
X294934346Y-186929371D03*
D12*
X268411520Y-176986501D03*
X291765772Y-172022402D03*
G04 #@! TD*
G04 #@! TO.C,MX_ESC1*
X83470750Y-96043750D03*
D13*
X78390750Y-96043750D03*
X88550750Y-96043750D03*
G04 #@! TD*
G04 #@! TO.C,MX_F1*
X113980750Y-71085750D03*
X103820750Y-71085750D03*
D12*
X108900750Y-71085750D03*
G04 #@! TD*
D13*
G04 #@! TO.C,MX_F2*
X133805419Y-72394501D03*
X123684081Y-71508999D03*
D12*
X128744750Y-71951750D03*
G04 #@! TD*
D13*
G04 #@! TO.C,MX_F3*
X153059884Y-74596846D03*
X142975616Y-73358654D03*
D12*
X148017750Y-73977750D03*
G04 #@! TD*
G04 #@! TO.C,MX_F4*
X167478750Y-77149750D03*
D13*
X162492084Y-76180440D03*
X172465416Y-78119060D03*
G04 #@! TD*
D12*
G04 #@! TO.C,MX_F5*
X186100750Y-81868750D03*
D13*
X181131760Y-80812559D03*
X191069740Y-82924941D03*
G04 #@! TD*
G04 #@! TO.C,MX_F6*
X209670852Y-88427713D03*
X199812648Y-85969787D03*
D12*
X204741750Y-87198750D03*
G04 #@! TD*
G04 #@! TO.C,MX_F7*
X242266700Y-87198950D03*
D13*
X237337598Y-88427913D03*
X247195802Y-85969987D03*
G04 #@! TD*
D12*
G04 #@! TO.C,MX_F8*
X260907700Y-81896250D03*
D13*
X255938710Y-82952441D03*
X265876690Y-80840059D03*
G04 #@! TD*
G04 #@! TO.C,MX_F9*
X284516166Y-76090840D03*
X274542834Y-78029460D03*
D12*
X279529500Y-77060150D03*
G04 #@! TD*
D13*
G04 #@! TO.C,MX_F10*
X304032334Y-73358754D03*
X293948066Y-74596946D03*
D12*
X298990200Y-73977850D03*
G04 #@! TD*
D13*
G04 #@! TO.C,MX_F11*
X323324269Y-71509399D03*
X313202931Y-72394901D03*
D12*
X318263600Y-71952150D03*
G04 #@! TD*
G04 #@! TO.C,MX_F12*
X338107500Y-71085750D03*
D13*
X333027500Y-71085750D03*
X343187500Y-71085750D03*
G04 #@! TD*
D12*
G04 #@! TO.C,MX_F13*
X169535750Y-143021950D03*
D13*
X164566760Y-141965759D03*
X174504740Y-144078141D03*
G04 #@! TD*
G04 #@! TO.C,MX_FN1*
X93313250Y-172243750D03*
X83153250Y-172243750D03*
D12*
X88233250Y-172243750D03*
G04 #@! TD*
G04 #@! TO.C,MX_FN2*
X251227200Y-189502050D03*
D13*
X246298098Y-190731013D03*
X256156302Y-188273087D03*
G04 #@! TD*
D12*
G04 #@! TO.C,MX_G1*
X188824650Y-148501250D03*
D13*
X183895548Y-147272287D03*
X193753752Y-149730213D03*
G04 #@! TD*
G04 #@! TO.C,MX_H1*
X263112702Y-147272287D03*
X253254498Y-149730213D03*
D12*
X258183600Y-148501250D03*
G04 #@! TD*
G04 #@! TO.C,MX_HOME1*
X237395200Y-143867750D03*
D13*
X232466098Y-145096713D03*
X242324302Y-142638787D03*
G04 #@! TD*
G04 #@! TO.C,MX_I1*
X297771866Y-118477240D03*
X287798534Y-120415860D03*
D12*
X292785200Y-119446550D03*
G04 #@! TD*
D13*
G04 #@! TO.C,MX_J1*
X282441490Y-141965759D03*
X272503510Y-144078141D03*
D12*
X277472500Y-143021950D03*
G04 #@! TD*
G04 #@! TO.C,MX_K1*
X296420100Y-138146550D03*
D13*
X291433434Y-139115860D03*
X301406766Y-137177240D03*
G04 #@! TD*
D12*
G04 #@! TO.C,MX_L1*
X318220800Y-135082650D03*
D13*
X313160131Y-135525401D03*
X323281469Y-134639899D03*
G04 #@! TD*
D12*
G04 #@! TO.C,MX_LALT1*
X141990350Y-176874650D03*
D13*
X137003684Y-175905340D03*
X146977016Y-177843960D03*
G04 #@! TD*
G04 #@! TO.C,MX_M1*
X286402190Y-160599459D03*
X276464210Y-162711841D03*
D12*
X281433200Y-161655650D03*
G04 #@! TD*
D13*
G04 #@! TO.C,MX_N1*
X267721302Y-165756387D03*
X257863098Y-168214313D03*
D12*
X262792200Y-166985350D03*
G04 #@! TD*
D13*
G04 #@! TO.C,MX_O1*
X321621169Y-115662399D03*
X311499831Y-116547901D03*
D12*
X316560500Y-116105150D03*
G04 #@! TD*
G04 #@! TO.C,MX_P1*
X339725000Y-115093750D03*
D13*
X334645000Y-115093750D03*
X344805000Y-115093750D03*
G04 #@! TD*
D12*
G04 #@! TO.C,MX_PGDN1*
X205004450Y-162351850D03*
D13*
X200075348Y-161122887D03*
X209933552Y-163580813D03*
G04 #@! TD*
G04 #@! TO.C,MX_PGUP1*
X214542152Y-145096713D03*
X204683948Y-142638787D03*
D12*
X209613050Y-143867750D03*
G04 #@! TD*
G04 #@! TO.C,MX_Q1*
X107283250Y-115093750D03*
D13*
X102203250Y-115093750D03*
X112363250Y-115093750D03*
G04 #@! TD*
G04 #@! TO.C,MX_R1*
X178465440Y-125444441D03*
X168527460Y-123332059D03*
D12*
X173496450Y-124388250D03*
G04 #@! TD*
D13*
G04 #@! TO.C,MX_RALT1*
X314657090Y-175588859D03*
X304719110Y-177701241D03*
D12*
X309688100Y-176645050D03*
G04 #@! TD*
G04 #@! TO.C,MX_RCTRL1*
X358775000Y-172243750D03*
D13*
X353695000Y-172243750D03*
X363855000Y-172243750D03*
G04 #@! TD*
D12*
G04 #@! TO.C,MX_S1*
X128787450Y-135082650D03*
D13*
X123726781Y-134639899D03*
X133848119Y-135525401D03*
G04 #@! TD*
D12*
G04 #@! TO.C,MX_T1*
X193433250Y-130017150D03*
D13*
X188504148Y-128788187D03*
X198362352Y-131246113D03*
G04 #@! TD*
D12*
G04 #@! TO.C,MX_TAB1*
X88233250Y-115093750D03*
D13*
X83153250Y-115093750D03*
X93313250Y-115093750D03*
G04 #@! TD*
D12*
G04 #@! TO.C,MX_U1*
X273511800Y-124388250D03*
D13*
X268542810Y-125444441D03*
X278480790Y-123332059D03*
G04 #@! TD*
G04 #@! TO.C,MX_V1*
X170544040Y-162711841D03*
X160606060Y-160599459D03*
D12*
X165575050Y-161655650D03*
G04 #@! TD*
D13*
G04 #@! TO.C,MX_W1*
X135508419Y-116547901D03*
X125387081Y-115662399D03*
D12*
X130447750Y-116105150D03*
G04 #@! TD*
D13*
G04 #@! TO.C,MX_X1*
X132187819Y-154502901D03*
X122066481Y-153617399D03*
D12*
X127127150Y-154060150D03*
G04 #@! TD*
D13*
G04 #@! TO.C,MX_Y1*
X258504102Y-128788187D03*
X248645898Y-131246113D03*
D12*
X253575000Y-130017150D03*
G04 #@! TD*
G04 #@! TO.C,MX_Z1*
X107283250Y-153193750D03*
D13*
X102203250Y-153193750D03*
X112363250Y-153193750D03*
G04 #@! TD*
G04 #@! TO.C,MX_'1*
X366236300Y-134143750D03*
X356076300Y-134143750D03*
D12*
X361156300Y-134143750D03*
G04 #@! TD*
G04 #@! TO.C,MX_LCTRL1*
X85851950Y-134143750D03*
D13*
X80771950Y-134143750D03*
X90931950Y-134143750D03*
G04 #@! TD*
D12*
G04 #@! TO.C,MX_LSHIFT1*
X85851950Y-153193750D03*
D13*
X80771950Y-153193750D03*
X90931950Y-153193750D03*
G04 #@! TD*
G04 #@! TO.C,MX_RSHIFT1*
X366236250Y-153193750D03*
X356076250Y-153193750D03*
D12*
X361156250Y-153193750D03*
G04 #@! TD*
D15*
G04 #@! TO.C,REF\002A\002A*
X225552000Y-125171200D03*
X225552000Y-123901200D03*
X225552000Y-120091200D03*
X225552000Y-121361200D03*
X225552000Y-122631200D03*
G04 #@! TD*
M02*
