M48
;DRILL file {KiCad (5.0.2)-1} date 4/23/2019 10:48:00 PM
;FORMAT={-:-/ absolute / inch / decimal}
FMAT,2
INCH,TZ
T1C0.0310
T2C0.0689
T3C0.1200
T4C0.1570
%
G90
G05
T1
X8.7331Y-6.7143
X8.7331Y-6.8643
X8.7331Y-6.9143
X8.708Y-4.88
X8.88Y-4.728
X8.88Y-4.778
X8.88Y-4.828
X8.88Y-4.878
X8.88Y-4.928
X8.8535Y-6.7143
X8.8535Y-6.7643
X8.8535Y-6.8143
X8.8535Y-6.8643
X8.8535Y-6.9143
X8.7331Y-6.7643
X8.7331Y-6.8143
X8.708Y-4.73
X8.708Y-4.78
X8.708Y-4.83
X8.708Y-4.93
T2
X6.6349Y-4.8556
X7.0262Y-4.9388
X4.9365Y-4.5536
X5.335Y-4.5885
X5.5892Y-6.1369
X5.9819Y-6.2132
X13.925Y-4.5312
X14.325Y-4.5312
X10.8088Y-3.072
X11.2014Y-2.9957
X9.5799Y-4.4274
X9.968Y-4.3306
X11.3307Y-4.7408
X11.7233Y-4.6645
X6.8953Y-4.1276
X7.2866Y-4.2107
X12.2638Y-4.5885
X12.6623Y-4.5536
X12.5678Y-3.809
X12.9662Y-3.7742
X4.8711Y-5.3008
X5.2696Y-5.3356
X14.1125Y-3.7812
X14.5125Y-3.7812
X10.0763Y-3.2658
X10.4676Y-3.1827
X7.1312Y-3.1816
X7.5224Y-3.2648
X11.4738Y-5.477
X11.8664Y-5.4007
X12.3945Y-6.0828
X12.793Y-6.0479
X9.9706Y-5.8949
X10.3588Y-5.7981
X13.3625Y-3.7812
X13.7625Y-3.7812
X5.3938Y-6.9254
X5.7865Y-7.0017
X7.0585Y-6.5258
X7.4467Y-6.6226
X4.0237Y-6.0312
X4.4238Y-6.0312
X4.8058Y-6.0479
X5.2042Y-6.0828
X3.2737Y-4.5312
X3.6738Y-4.5312
X14.0187Y-6.0312
X14.4187Y-6.0312
X11.5728Y-2.9369
X11.9698Y-2.8881
X5.7323Y-5.4007
X6.125Y-5.477
X5.629Y-2.8881
X6.026Y-2.9369
X13.1113Y-2.7987
X13.5113Y-2.7987
X11.8086Y-3.8828
X12.2056Y-3.8341
X9.6968Y-7.5091
X10.0849Y-7.4123
X11.6169Y-6.2132
X12.0095Y-6.1369
X12.3291Y-5.3356
X12.7276Y-5.3008
X4.0237Y-5.2812
X4.4238Y-5.2812
X9.7892Y-5.1672
X10.1773Y-5.0704
X6.3231Y-6.3228
X6.7143Y-6.406
X3.18Y-6.0312
X3.58Y-6.0312
X7.8666Y-3.3846
X8.2548Y-3.4814
X9.344Y-3.4814
X9.7321Y-3.3846
X6.3973Y-2.9992
X6.79Y-3.0756
X6.955Y-7.2759
X7.3431Y-7.3726
X10.1521Y-6.6226
X10.5402Y-6.5258
X10.3122Y-4.2107
X10.7034Y-4.1276
X3.2737Y-6.7812
X3.6738Y-6.7812
X13.175Y-5.2812
X13.575Y-5.2812
X7.24Y-5.7981
X7.6281Y-5.8949
X11.0446Y-4.018
X11.4373Y-3.9416
X10.5726Y-4.9388
X10.9638Y-4.8556
X13.925Y-6.7812
X14.325Y-6.7812
X3.0862Y-3.7812
X3.4863Y-3.7812
X14.0188Y-5.2812
X14.4188Y-5.2812
X4.0874Y-2.7987
X4.4874Y-2.7987
X12.3308Y-2.8502
X12.7293Y-2.8153
X6.1615Y-3.9416
X6.5541Y-4.018
X7.877Y-6.3434
X8.2651Y-6.4402
X13.175Y-6.0312
X13.575Y-6.0312
X6.479Y-5.5892
X6.8703Y-5.6724
X7.6308Y-4.3306
X8.0189Y-4.4274
X7.4214Y-5.0704
X7.8095Y-5.1672
X8.0584Y-5.6157
X8.4465Y-5.7125
X10.8991Y-7.2297
X11.2903Y-7.1466
X4.8695Y-2.8153
X5.2679Y-2.8502
X10.8844Y-6.406
X11.2757Y-6.3228
X4.6325Y-3.7742
X5.031Y-3.809
X9.1522Y-5.7125
X9.5403Y-5.6157
X5.3931Y-3.8341
X5.7901Y-3.8828
X3.18Y-5.2812
X3.58Y-5.2812
X11.9968Y-6.9961
X12.3881Y-6.9129
X4.0237Y-4.5312
X4.4238Y-4.5312
X5.8754Y-4.6645
X6.2681Y-4.7408
X9.3336Y-6.4402
X9.7218Y-6.3434
X10.7285Y-5.6724
X11.1197Y-5.5892
X13.175Y-4.5312
X13.575Y-4.5312
X3.8362Y-3.7812
X4.2363Y-3.7812
T3
X6.6265Y-7.4774
X7.5385Y-7.7048
X10.6921Y-7.5549
X11.6116Y-7.3594
T4
X5.0687Y-2.8327
X11.08Y-6.3644
X4.8317Y-3.7916
X9.3463Y-5.6641
X5.5916Y-3.8585
X3.38Y-5.2812
X12.1924Y-6.9545
X4.2237Y-4.5312
X6.0718Y-4.7026
X9.5277Y-6.3918
X10.9241Y-5.6308
X13.375Y-4.5312
X4.0362Y-3.7812
X6.8306Y-4.8972
X5.1357Y-4.5711
X5.7856Y-6.1751
X14.125Y-4.5312
X11.0051Y-3.0339
X9.7739Y-4.379
X11.527Y-4.7026
X7.0909Y-4.1691
X12.463Y-4.5711
X12.767Y-3.7916
X5.0704Y-5.3182
X14.3125Y-3.7812
X10.272Y-3.2243
X7.3268Y-3.2232
X11.6701Y-5.4388
X12.5937Y-6.0654
X10.1647Y-5.8465
X13.5625Y-3.7812
X5.5902Y-6.9636
X7.2526Y-6.5742
X4.2237Y-6.0312
X5.005Y-6.0654
X3.4737Y-4.5312
X14.2188Y-6.0312
X11.7713Y-2.9125
X5.9287Y-5.4388
X5.8275Y-2.9125
X13.3113Y-2.7987
X12.0071Y-3.8585
X9.8908Y-7.4607
X11.8132Y-6.1751
X12.5284Y-5.3182
X4.2237Y-5.2812
X9.9833Y-5.1188
X6.5187Y-6.3644
X3.38Y-6.0312
X8.0607Y-3.433
X9.5381Y-3.433
X6.5937Y-3.0374
X6.7716Y-6.8952
X7.149Y-7.3242
X7.6837Y-7.1226
X10.3461Y-6.5742
X10.5078Y-4.1691
X3.4737Y-6.7812
X13.375Y-5.2812
X7.434Y-5.8465
X11.2409Y-3.9798
X10.7682Y-4.8972
X14.125Y-6.7812
X3.2862Y-3.7812
X14.2188Y-5.2812
X4.2874Y-2.7987
X12.5301Y-2.8328
X6.3578Y-3.9798
X8.071Y-6.3918
X13.375Y-6.0312
X6.6746Y-5.6308
X7.8248Y-4.379
X7.6155Y-5.1188
X8.2525Y-5.6641
X10.5674Y-6.968
X11.0947Y-7.1882
X11.4868Y-6.7725
T0
M30
