M48
;DRILL file {KiCad (5.0.2)-1} date 4/6/2019 5:54:49 PM
;FORMAT={-:-/ absolute / inch / decimal}
FMAT,2
INCH,TZ
T1C0.0157
T2C0.0409
T3C0.0579
%
G90
G05
T1
X3.72Y-3.88
X3.934Y-6.474
X4.198Y-6.602
X4.484Y-3.91
X4.678Y-7.0166
X4.68Y-4.766
X4.68Y-5.5131
X4.688Y-6.2602
X4.882Y-6.576
X4.888Y-3.0276
X5.416Y-6.2323
X5.462Y-6.574
X5.466Y-3.424
X6.0726Y-7.17
X6.338Y-6.812
X6.362Y-3.32
X6.968Y-6.91
X7.0764Y-6.9414
X7.206Y-3.324
X7.349Y-6.17
X7.421Y-4.051
X7.562Y-4.144
X7.632Y-7.274
X7.6418Y-7.3242
X7.682Y-6.049
X7.75Y-7.516
X7.759Y-6.75
X7.894Y-6.164
X7.9061Y-6.762
X7.924Y-5.422
X7.9348Y-7.3239
X7.992Y-6.908
X7.996Y-6.5
X8.05Y-7.442
X8.079Y-4.182
X8.082Y-7.472
X8.114Y-6.808
X8.115Y-7.505
X8.1289Y-4.1761
X8.145Y-7.468
X8.1479Y-6.832
X8.176Y-4.544
X8.176Y-6.776
X8.208Y-6.814
X8.24Y-6.786
X8.2738Y-6.7408
X8.2935Y-5.274
X8.3Y-4.478
X8.3328Y-5.2721
X8.346Y-7.448
X8.372Y-5.268
X8.372Y-6.248
X8.412Y-5.264
X8.423Y-6.247
X8.444Y-6.918
X8.452Y-7.354
X8.454Y-5.264
X8.488Y-5.858
X8.4916Y-7.2306
X8.4933Y-5.2614
X8.498Y-6.106
X8.504Y-7.268
X8.507Y-3.894
X8.518Y-7.306
X8.5326Y-5.2598
X8.536Y-4.336
X8.5719Y-5.2621
X8.614Y-5.26
X9.6142Y-3.79
X10.175Y-3.7
X10.71Y-3.31
X10.9211Y-3.5231
X11.215Y-4.955
X11.37Y-5.715
X11.375Y-4.0631
X11.52Y-6.45
X11.725Y-7.1606
X12.08Y-3.245
X12.545Y-3.22
X13.2Y-3.1568
T2
X13.325Y-4.7313
X13.425Y-4.7313
X4.1738Y-4.7313
X4.2737Y-4.7313
X7.5186Y-5.3007
X7.6156Y-5.3249
X7.1557Y-6.7562
X7.2527Y-6.7804
X5.9845Y-4.8894
X6.0827Y-4.9085
X4.9378Y-6.2602
X5.0374Y-6.269
X13.325Y-6.2313
X13.425Y-6.2313
X7.0005Y-4.3544
X7.0983Y-4.3752
X10.2646Y-3.4303
X10.3624Y-3.4095
X10.9168Y-5.8368
X11.0146Y-5.816
X7.0521Y-7.5062
X7.1492Y-7.5304
X12.1851Y-7.1606
X12.2829Y-7.1398
X10.346Y-6.7804
X10.443Y-6.7562
X6.7401Y-5.0824
X6.8379Y-5.1032
X9.9831Y-5.3249
X10.0802Y-5.3007
X11.8023Y-6.3809
X11.9004Y-6.3618
X5.6983Y-6.3618
X5.7965Y-6.3809
X5.8414Y-5.6256
X5.9396Y-5.6447
X5.0685Y-4.766
X5.1681Y-4.7747
X3.33Y-5.4813
X3.43Y-5.4813
X11.23Y-4.1857
X11.3282Y-4.1666
X4.7645Y-3.9865
X4.8641Y-3.9952
X7.3371Y-6.0285
X7.4342Y-6.0527
X6.5064Y-3.2242
X6.6046Y-3.2433
X11.5161Y-4.9085
X11.6142Y-4.8894
X11.0727Y-6.5704
X11.1705Y-6.5496
X12.496Y-5.5218
X12.5956Y-5.5131
X5.0031Y-5.5131
X5.1028Y-5.5218
X5.0015Y-3.0276
X5.1011Y-3.0363
X12.5614Y-6.269
X12.661Y-6.2602
X14.2625Y-3.9812
X14.3625Y-3.9812
X10.5005Y-4.3752
X10.5983Y-4.3544
X6.2706Y-4.1666
X6.3687Y-4.1857
X9.8907Y-7.6669
X9.9877Y-7.6427
X5.7535Y-3.1049
X5.8527Y-3.1171
X10.1646Y-6.0527
X10.2616Y-6.0285
X14.075Y-6.9813
X14.175Y-6.9813
X11.6592Y-5.6447
X11.7573Y-5.6256
X4.2374Y-2.9987
X4.3374Y-2.9987
X13.5125Y-3.9812
X13.6125Y-3.9812
X4.1738Y-6.2313
X4.2737Y-6.2313
X3.2363Y-3.9812
X3.3362Y-3.9812
X14.1687Y-6.2313
X14.2687Y-6.2313
X3.33Y-6.2313
X3.43Y-6.2313
X5.5176Y-4.0509
X5.6169Y-4.0631
X3.4238Y-6.9813
X3.5237Y-6.9813
X13.2613Y-2.9987
X13.3613Y-2.9987
X10.9942Y-3.2397
X11.0923Y-3.2206
X12.4306Y-4.7747
X12.5303Y-4.766
X7.9741Y-6.5738
X8.0712Y-6.598
X11.0874Y-7.3942
X11.1852Y-7.3734
X13.325Y-5.4813
X13.425Y-5.4813
X3.9863Y-3.9812
X4.0862Y-3.9812
X11.9819Y-4.0631
X12.0811Y-4.0509
X11.746Y-3.1171
X11.8453Y-3.1049
X9.5379Y-3.6392
X9.635Y-3.615
X9.3461Y-5.8702
X9.4432Y-5.846
X5.5029Y-7.1504
X5.6011Y-7.1694
X10.7609Y-5.1032
X10.8587Y-5.0824
X4.1738Y-5.4813
X4.2737Y-5.4813
X9.5276Y-6.598
X9.6246Y-6.5738
X6.5841Y-5.816
X6.682Y-5.8368
X7.2363Y-3.4084
X7.3341Y-3.4292
X7.7279Y-4.5609
X7.825Y-4.5851
X8.1556Y-5.846
X8.2526Y-5.8702
X6.4282Y-6.5496
X6.526Y-6.5704
X3.4238Y-4.7313
X3.5237Y-4.7313
X12.7346Y-3.9952
X12.8342Y-3.9865
X14.075Y-4.7313
X14.175Y-4.7313
X14.1688Y-5.4813
X14.2688Y-5.4813
X9.7738Y-4.5851
X9.8708Y-4.5609
X12.4977Y-3.0364
X12.5973Y-3.0276
X7.9638Y-3.615
X8.0608Y-3.6392
T3
X9.1765Y-5.6033
X9.3949Y-5.4458
X5.462Y-6.8368
X5.7265Y-6.7863
X10.6007Y-4.8305
X10.8244Y-4.6808
X4.0737Y-5.1812
X4.3237Y-5.0812
X9.358Y-6.3311
X9.5764Y-6.1736
X6.5487Y-5.5018
X6.814Y-5.4559
X7.2009Y-3.0942
X7.4662Y-3.0483
X7.7035Y-4.2457
X7.9703Y-4.2091
X8.1311Y-5.5308
X8.3979Y-5.4942
X6.3928Y-6.2354
X6.6581Y-6.1896
X3.3237Y-4.4312
X3.5737Y-4.3312
X12.6089Y-3.7051
X12.8492Y-3.5836
X13.975Y-4.4312
X14.225Y-4.3312
X14.0688Y-5.1812
X14.3188Y-5.0812
X9.6042Y-4.3182
X9.8226Y-4.1607
X12.3719Y-2.7462
X12.6123Y-2.6248
X7.9393Y-3.2997
X8.2061Y-3.2632
X13.225Y-4.4312
X13.475Y-4.3312
X4.0737Y-4.4312
X4.3237Y-4.3312
X7.4941Y-4.9855
X7.7609Y-4.9489
X7.1312Y-6.4409
X7.398Y-6.4044
X5.9436Y-4.5758
X6.2081Y-4.5254
X4.8643Y-5.9527
X5.1221Y-5.8748
X13.225Y-5.9312
X13.475Y-5.8312
X6.965Y-4.0401
X7.2303Y-3.9943
X10.1044Y-3.1576
X10.3282Y-3.0078
X10.7566Y-5.5642
X10.9803Y-5.4144
X7.0277Y-7.1909
X7.2944Y-7.1544
X12.0249Y-6.8879
X12.2487Y-6.7381
X10.1764Y-6.5135
X10.3948Y-6.356
X6.7046Y-4.7682
X6.97Y-4.7223
X9.8135Y-5.058
X10.0319Y-4.9005
X11.6469Y-6.1055
X11.8732Y-5.9597
X5.6574Y-6.0483
X5.9219Y-5.9978
X5.8005Y-5.3121
X6.065Y-5.2616
X4.995Y-4.4584
X5.2528Y-4.3805
X3.23Y-5.1812
X3.48Y-5.0812
X11.0746Y-3.9103
X11.3009Y-3.7644
X4.691Y-3.6789
X4.9488Y-3.6011
X7.3127Y-5.7132
X7.5795Y-5.6766
X6.4655Y-2.9106
X6.73Y-2.8601
X11.3607Y-4.6331
X11.587Y-4.4872
X10.9125Y-6.2978
X11.1363Y-6.148
X12.3702Y-5.2317
X12.6106Y-5.1103
X4.9297Y-5.2055
X5.1874Y-5.1277
X4.928Y-2.7201
X5.1857Y-2.6422
X12.4356Y-5.9788
X12.6759Y-5.8574
X14.1625Y-3.6812
X14.4125Y-3.5812
X10.3403Y-4.1025
X10.564Y-3.9527
X6.2296Y-3.853
X6.4941Y-3.8026
X9.7211Y-7.4
X9.9395Y-7.2425
X5.6908Y-2.795
X5.9511Y-2.7262
X9.995Y-5.7858
X10.2134Y-5.6283
X13.975Y-6.6812
X14.225Y-6.5812
X11.5038Y-5.3693
X11.7301Y-5.2234
X4.1374Y-2.6987
X4.3874Y-2.5987
X13.4125Y-3.6812
X13.6625Y-3.5812
X4.0737Y-5.9312
X4.3237Y-5.8312
X3.1362Y-3.6812
X3.3862Y-3.5812
X14.0687Y-5.9312
X14.3187Y-5.8312
X3.23Y-5.9312
X3.48Y-5.8312
X5.4549Y-3.7409
X5.7153Y-3.6721
X3.3237Y-6.6812
X3.5737Y-6.5812
X13.1613Y-2.6987
X13.4113Y-2.5987
X10.8388Y-2.9643
X11.0651Y-2.8185
X12.3049Y-4.4845
X12.5452Y-4.3631
X7.9497Y-6.2585
X8.2165Y-6.2219
X10.9272Y-7.1215
X11.1509Y-6.9717
X13.225Y-5.1812
X13.475Y-5.0812
X3.8862Y-3.6812
X4.1362Y-3.5812
X11.846Y-3.7775
X12.082Y-3.6478
X11.6102Y-2.8315
X11.8461Y-2.7018
X9.3683Y-3.3723
X9.5867Y-3.2148
T0
M30
